<svg id="Camada_1" data-name="Camada 1" xmlns="http://www.w3.org/2000/svg" xmlns:xlink="http://www.w3.org/1999/xlink" viewBox="0 0 393.07 447.87"><defs><style>.cls-1{fill:none;}.cls-2{clip-path:url(#clip-path);}.cls-3{fill:#150035;}.cls-4{fill:#ffd200;}.cls-5{fill:#fff;}.cls-6{clip-path:url(#clip-path-2);}.cls-7{fill:#1a0e33;}.cls-8{clip-path:url(#clip-path-3);}.cls-9{clip-path:url(#clip-path-4);}.cls-10{clip-path:url(#clip-path-5);}</style><clipPath id="clip-path" transform="translate(-130.85 -46.56)"><path class="cls-1" d="M279.54,403.28l30.13,17.32c3.33,1.92,3.69,4.84.81,6.5L278,446c-2.89,1.67-7.94,1.46-11.27-.46L236.6,428.26c-3.33-1.93-3.69-4.84-.8-6.51l32.47-18.93C271.16,401.15,276.21,401.36,279.54,403.28Z"/></clipPath><clipPath id="clip-path-2" transform="translate(-130.85 -46.56)"><path class="cls-1" d="M355.16,379.29l-9.7,5.58c-2.67,1.54-7.35,1.35-10.44-.44l-65.89-38.22c-3.09-1.78-3.42-4.48-.75-6l9.7-5.58c2.68-1.54,7.35-1.35,10.44.43l65.9,38.22C357.51,375.05,357.84,377.75,355.16,379.29Z"/></clipPath><clipPath id="clip-path-3" transform="translate(-130.85 -46.56)"><path class="cls-1" d="M215.67,313.13l30.12,17.32c3.34,1.92,3.7,4.83.81,6.5l-32.48,18.94c-2.89,1.67-7.93,1.46-11.27-.47l-30.12-17.31c-3.34-1.93-3.7-4.84-.81-6.51l32.48-18.94C207.28,311,212.33,311.2,215.67,313.13Z"/></clipPath><clipPath id="clip-path-4" transform="translate(-130.85 -46.56)"><path class="cls-1" d="M196.21,271.92l7.49,4.24c2.33,1.34,2.58,3.37.56,4.54l-12.75,7.43c-2,1.16-5.53,1-7.86-.33l-7.49-4.23c-2.33-1.35-2.58-3.38-.57-4.54l12.75-7.43C190.36,270.43,193.88,270.58,196.21,271.92Z"/></clipPath><clipPath id="clip-path-5" transform="translate(-130.85 -46.56)"><path class="cls-1" d="M393.62,193.46l7.49,4.23c2.33,1.35,2.58,3.38.56,4.54l-12.75,7.43c-2,1.17-5.54,1-7.86-.32l-7.49-4.24c-2.33-1.34-2.58-3.37-.57-4.54l12.75-7.43C387.77,192,391.29,192.11,393.62,193.46Z"/></clipPath></defs><title>backgraund-home</title><g class="cls-2"><rect class="cls-3" x="227.5" y="414.98" width="62.48" height="0.91" transform="translate(-303.77 138.21) rotate(-29.97)"/><rect class="cls-3" x="229.97" y="416.3" width="62.48" height="0.91" transform="translate(-304.09 139.62) rotate(-29.97)"/><rect class="cls-3" x="232.22" y="417.7" width="62.48" height="0.91" transform="translate(-304.5 140.93) rotate(-29.97)"/><rect class="cls-3" x="234.74" y="419" width="62.48" height="0.91" transform="translate(-304.81 142.37) rotate(-29.97)"/><rect class="cls-3" x="236.83" y="420.45" width="62.48" height="0.91" transform="translate(-305.25 143.6) rotate(-29.97)"/><rect class="cls-3" x="239.3" y="421.77" width="62.48" height="0.91" transform="translate(-305.58 145.01) rotate(-29.97)"/><rect class="cls-3" x="241.55" y="423.17" width="62.48" height="0.91" transform="translate(-305.98 146.32) rotate(-29.97)"/><rect class="cls-3" x="244.07" y="424.47" width="62.48" height="0.91" transform="translate(-306.29 147.76) rotate(-29.97)"/><rect class="cls-3" x="246.32" y="425.87" width="62.48" height="0.91" transform="translate(-306.69 149.06) rotate(-29.97)"/><rect class="cls-3" x="248.84" y="427.19" width="62.48" height="0.91" transform="translate(-307.05 150.56) rotate(-29.97)"/><rect class="cls-3" x="251.08" y="428.6" width="62.48" height="0.91" transform="translate(-307.42 151.81) rotate(-29.97)"/><rect class="cls-3" x="253.61" y="429.89" width="62.48" height="0.91" transform="translate(-307.73 153.25) rotate(-29.97)"/><rect class="cls-3" x="255.69" y="431.34" width="62.48" height="0.91" transform="translate(-308.17 154.48) rotate(-29.97)"/><rect class="cls-3" x="258.17" y="432.66" width="62.48" height="0.91" transform="translate(-308.5 155.89) rotate(-29.97)"/><rect class="cls-3" x="260.41" y="434.06" width="62.48" height="0.91" transform="translate(-308.9 157.2) rotate(-29.97)"/><rect class="cls-3" x="262.94" y="435.36" width="62.48" height="0.91" transform="translate(-309.24 158.7) rotate(-29.97)"/><rect class="cls-3" x="265.18" y="436.76" width="62.48" height="0.91" transform="translate(-309.62 159.95) rotate(-29.97)"/><rect class="cls-3" x="217.87" y="409.63" width="62.48" height="0.91" transform="translate(-302.38 132.69) rotate(-29.97)"/><rect class="cls-3" x="220.35" y="410.95" width="62.48" height="0.91" transform="translate(-302.69 134.07) rotate(-29.96)"/><rect class="cls-3" x="222.6" y="412.35" width="62.48" height="0.91" transform="translate(-303.11 135.41) rotate(-29.97)"/><rect class="cls-3" x="225.12" y="413.65" width="62.48" height="0.91" transform="translate(-303.46 136.91) rotate(-29.98)"/><rect class="cls-3" x="227.37" y="415.05" width="62.48" height="0.91" transform="translate(-303.82 138.15) rotate(-29.97)"/></g><path class="cls-4" d="M309.84,408.92l-11.55-1.07h-.06l-20-11.54c-3.33-1.93-8.38-2.14-11.26-.47L249.38,406l-.42,0-14.39,2.43a.13.13,0,0,0-.11.13l0,7.72c0,1.42.82,2.62,2.76,3.74l29,16.73c3.33,1.92,8.38,2.13,11.27.46L308,419.53a3.45,3.45,0,0,0,1.94-2.65v-7.83A.12.12,0,0,0,309.84,408.92Z" transform="translate(-130.85 -46.56)"/><path class="cls-3" d="M272.53,439.11a13.86,13.86,0,0,1-6.76-1.71l-29-16.73c-2.12-1.22-3.15-2.67-3.15-4.42v-7.72a.94.94,0,0,1,.76-.91l14.48-2.44h.27l17.4-10c3.16-1.82,8.46-1.62,12.06.47l19.86,11.46,11.41,1.05a.93.93,0,0,1,.84.92v7.83a4.21,4.21,0,0,1-2.34,3.33l-30.58,17.65A10.68,10.68,0,0,1,272.53,439.11Zm-37.28-30,0,7.17c0,.79.27,1.85,2.37,3.06l29,16.72c3.11,1.8,7.81,2,10.48.47l30.58-17.66a2.64,2.64,0,0,0,1.55-2v-7.17l-11.12-1-.21-.1-20-11.54c-3.11-1.8-7.81-2-10.48-.47l-17.79,10.27-.56,0Z" transform="translate(-130.85 -46.56)"/><path class="cls-3" d="M272.2,438.29a10.22,10.22,0,0,0,5.24-1.11l28.38-16.39V408.55l-7.53-.7h-.06l-14.74-8.51H272.2Z" transform="translate(-130.85 -46.56)"/><path class="cls-3" d="M272.54,439.09h-.36l-.77,0V398.54H283.7l14.8,8.54,8.11.75v13.42l-28.78,16.61A10.67,10.67,0,0,1,272.54,439.09Zm.45-39V437.5a8.79,8.79,0,0,0,4.05-1l28-16.16V409.27l-7-.65-.21-.1-14.56-8.41Z" transform="translate(-130.85 -46.56)"/><path class="cls-4" d="M278.24,388.63l29,16.72c3.33,1.93,3.7,4.84.81,6.51l-30.58,17.65c-2.89,1.67-7.94,1.46-11.27-.46l-29-16.73c-3.33-1.92-3.7-4.84-.81-6.5L267,388.16C269.86,386.49,274.91,386.7,278.24,388.63Z" transform="translate(-130.85 -46.56)"/><path class="cls-3" d="M272.53,431.44a13.86,13.86,0,0,1-6.76-1.71l-29-16.73c-2-1.15-3.15-2.74-3.15-4.36a4.12,4.12,0,0,1,2.34-3.51l30.58-17.65c3.16-1.82,8.46-1.62,12.06.47l29,16.72c2,1.15,3.16,2.74,3.16,4.36a4.12,4.12,0,0,1-2.35,3.51l-30.58,17.65A10.68,10.68,0,0,1,272.53,431.44Zm-.66-43.63a9.21,9.21,0,0,0-4.5,1L236.79,406.5a2.66,2.66,0,0,0-1.56,2.14c0,1,.86,2.13,2.37,3l29,16.73c3.11,1.79,7.82,2,10.48.46l30.58-17.66a2.66,2.66,0,0,0,1.56-2.14c0-1-.86-2.13-2.37-3l-29-16.72A12.29,12.29,0,0,0,271.87,387.81Z" transform="translate(-130.85 -46.56)"/><polygon class="cls-4" points="135.8 359.06 138.28 365.1 140.4 363.87 145.05 366.55 148.77 364.41 144.12 361.72 146.25 360.5 135.8 359.06"/><path class="cls-5" d="M275.9,413.82l-4.65-2.69-2.42,1.4-3.14-7.65,13.25,1.82-2.75,1.59,4.64,2.68Zm-4.65-4.08,4.65,2.68,2.51-1.45-4.65-2.68,1.5-.87-7.65-1.05,1.82,4.42Z" transform="translate(-130.85 -46.56)"/><rect class="cls-3" x="107.04" y="366.61" width="1.58" height="7.67"/><rect class="cls-3" x="135.01" y="382.67" width="1.58" height="7.67"/><path class="cls-4" d="M283.08,432.2a1,1,0,0,1-.49-.13,1.2,1.2,0,0,1-.54-1.08v-1.46a2.26,2.26,0,0,1,1-1.85l4-2.31a1,1,0,0,1,1.06,0,1.21,1.21,0,0,1,.54,1.09v1.46a2.28,2.28,0,0,1-1,1.85l-4,2.31A1.12,1.12,0,0,1,283.08,432.2Zm4.36-5.66-3.79,2.19a1.1,1.1,0,0,0-.39.8v1.33l3.79-2.18a1.06,1.06,0,0,0,.39-.8Z" transform="translate(-130.85 -46.56)"/><path class="cls-4" d="M292.47,426.83a1.05,1.05,0,0,1-.49-.13,1.21,1.21,0,0,1-.54-1.09v-1.46a2.26,2.26,0,0,1,1-1.85l4-2.31a1,1,0,0,1,1.06,0A1.19,1.19,0,0,1,298,421v1.46a2.28,2.28,0,0,1-1,1.85h0l-4,2.31A1.14,1.14,0,0,1,292.47,426.83Zm4.36-5.66L293,423.35a1.1,1.1,0,0,0-.39.8v1.34l3.79-2.19a1.06,1.06,0,0,0,.39-.8Z" transform="translate(-130.85 -46.56)"/><rect class="cls-4" x="143.55" y="384.62" width="1.21" height="6.01"/><path class="cls-4" d="M287.46,59.47a.16.16,0,0,1,0-.22c.76-.78,5.74-5.61,15.51-9.22h0c8.37-3.39,22-4.78,41.07,6.21,23.81,13.75,39.35,37.23,46.59,50.22,2.13,3.82,2.26,7.74.61,9.52h0s-3.08,5.1-11.28,6.37a.88.88,0,0,1-.89-.44l-5.2-9.24L349.71,77.32S327,68.07,317.58,64.11a25.49,25.49,0,0,0-10.78,3.94c-2.09,1.38-5.5-.15-8.05-3.59h0a14.16,14.16,0,0,1-1.07-1.66l-6.31.29Z" transform="translate(-130.85 -46.56)"/><path class="cls-3" d="M379.83,123.39a1.92,1.92,0,0,1-1.66-1L373,113.17,349,78.16c-2.64-1.08-22.7-9.26-31.6-13a24.61,24.61,0,0,0-10.07,3.74c-2.57,1.7-6.54.09-9.45-3.83-.29-.4-.57-.81-.83-1.23l-5.68.26-.43,0-4.21-3.91a1.19,1.19,0,0,1-.39-.84v-.44l.34-.41c.92-.94,6-5.81,15.9-9.47h0c8.35-3.36,22.38-5,41.9,6.3,24.08,13.9,39.77,37.68,47,50.61,2.27,4.08,2.48,8.43.53,10.64-.49.76-3.88,5.52-11.95,6.76A1.33,1.33,0,0,1,379.83,123.39ZM317.72,63.05l.25.11c9.33,3.91,31.9,13.12,32.13,13.21l.29.12,24.33,35.6,5.19,9.22c7.56-1.21,10.42-5.82,10.45-5.86l.12-.17c1.18-1.27,1.31-4.61-.75-8.32-7.11-12.74-22.56-36.17-46.21-49.83-18.86-10.89-32.25-9.35-40.17-6.15l-.27.11h0a44.87,44.87,0,0,0-14.23,8.25L291.75,62l5.87-.27.64,0,.31.56a13.22,13.22,0,0,0,1,1.55c2.17,2.92,5.09,4.39,6.66,3.35a26.65,26.65,0,0,1,11.21-4.1Z" transform="translate(-130.85 -46.56)"/><path class="cls-5" d="M321.34,48c6.46.85,14,3.27,22.7,8.28,23.39,13.51,38.77,36.37,46.17,49.5L381,111.33l-8.78-4.44-9.71-17-7.83-5.32-5-7.27-14.39-5.88-13.18-9-23.36-2.81Z" transform="translate(-130.85 -46.56)"/><path class="cls-3" d="M381.05,112.5l-9.57-4.83-9.74-17-7.8-5.3L349,78.16c-1.37-.55-7.38-3-14.11-5.77l-.19-.1-13-8.82-26.42-3.18,25.8-13.39.33,0c7.3,1,15.06,3.79,23.07,8.41,23.77,13.72,39.38,37.14,46.56,49.88l.49.87ZM373,106.12l8,4,7.86-4.78c-7.28-12.72-22.48-35.06-45.3-48.24-7.65-4.41-15-7.14-22-8.1L302.22,59l20.29,2.45,13.3,9,14.29,5.84.29.12,5,7.36,7.87,5.35Z" transform="translate(-130.85 -46.56)"/><path class="cls-4" d="M304,90a.67.67,0,0,1-.18-1.14,48.06,48.06,0,0,1,15.47-8.66l.55-.18.4-.11c.47-.14,1-.26,1.45-.37l.27-.08h0c5.66-1.18,13-.57,22,4.63,15,8.69,25.35,24.76,30.78,35.08,1.77,3.37,2,6.71.84,8.59h0l-.12.18c-.76,1.1-5.19,7-12.18,6.8a.71.71,0,0,1-.64-.48l-4.66-14a.56.56,0,0,0-.17-.26L333.24,95.47a.76.76,0,0,0-.5-.21,17.24,17.24,0,0,0-10.38,3.32c-2,1.45-5.35.13-7.95-3.17h0a15.32,15.32,0,0,1-1.88-3.12.68.68,0,0,0-.61-.4h-3.42a.65.65,0,0,1-.27,0Z" transform="translate(-130.85 -46.56)"/><path class="cls-3" d="M363.74,135.83h-.42a1.74,1.74,0,0,1-1.58-1.18l-4.63-13.92L332.6,96.29h-.06A16.3,16.3,0,0,0,323,99.41c-2.52,1.82-6.36.43-9.36-3.37a15.65,15.65,0,0,1-1.92-3.13h-3.19a1.55,1.55,0,0,1-.67-.14L303.62,91a1.69,1.69,0,0,1-1-1.33,1.67,1.67,0,0,1,.59-1.55A49.15,49.15,0,0,1,319,79.24l.55-.17.32-.09c.59-.17,1.09-.3,1.61-.42l.56-.13h0c7-1.38,14.56.23,22.47,4.8,14.87,8.58,25.16,24,31.18,35.49,1.85,3.52,2.18,7.26.85,9.55l-.05.08-.12.18C375.53,129.81,371,135.83,363.74,135.83Zm-.12-2.06h.12c6.23,0,10.2-5.29,10.95-6.36l.09-.14c.82-1.37.87-4.25-.88-7.58C368,108.48,358,93.36,343.52,85c-7.56-4.37-14.73-5.89-21.29-4.52l-.27.06h0c-.48.11-.94.23-1.39.36l-.4.11-.51.16A46.78,46.78,0,0,0,305,89.31l3.6,1.54h3.35a1.72,1.72,0,0,1,1.55,1,14.43,14.43,0,0,0,1.75,2.9c2.21,2.8,5,4.08,6.55,3a18.43,18.43,0,0,1,11-3.51,1.82,1.82,0,0,1,1.21.51l24.65,24.58a1.7,1.7,0,0,1,.42.66Z" transform="translate(-130.85 -46.56)"/><path class="cls-5" d="M333.89,80a40.26,40.26,0,0,1,9.83,4.16c14.66,8.46,24.8,23.9,30.33,34.24l-12.13,7.7-3.1-2.55-1.07-3.21a.65.65,0,0,0-.17-.26L332.93,95.47a.78.78,0,0,0-.5-.21,17,17,0,0,0-6.57,1.23l-8.54-7Z" transform="translate(-130.85 -46.56)"/><path class="cls-3" d="M361.84,127.34l-3.91-3.21-1.13-3.41L332.29,96.29a15.69,15.69,0,0,0-6.05,1.16l-.57.22-10.15-8.33,18.22-10.47.41.1a41.77,41.77,0,0,1,10.09,4.27C358.81,91.65,369,106.72,375,117.88l.45.85Zm-2.14-4.42,2.3,1.88L372.69,118c-5.9-10.83-15.69-25-29.48-33a40,40,0,0,0-9.18-4l-14.9,8.57,6.92,5.68a18.08,18.08,0,0,1,6.39-1.09,1.77,1.77,0,0,1,1.21.51l24.66,24.58a1.7,1.7,0,0,1,.41.66Z" transform="translate(-130.85 -46.56)"/><path class="cls-4" d="M335.46,110.31a8.57,8.57,0,0,1,3.34-.17h.07v0c3.2.47,6.91,2.45,10.79,6.62a31.21,31.21,0,0,1,7.71,14.45c1.18,5.33.63,9.48-1.09,12.13h0S352.56,151,340.5,152a.92.92,0,0,1-.89-.49l-14.69-29.09-1.8-4.22a.88.88,0,0,1,.15-.93C324.51,115.85,328.92,111.29,335.46,110.31Z" transform="translate(-130.85 -46.56)"/><path class="cls-3" d="M340.43,153.06a2,2,0,0,1-1.74-1.06L324,122.91l-1.82-4.28a1.91,1.91,0,0,1,.31-2c1.26-1.45,5.89-6.25,12.76-7.31a9.39,9.39,0,0,1,3.61-.19h.63l.06.13c3.58.68,7.33,3,10.87,6.85a32.25,32.25,0,0,1,8,14.93c1.17,5.29.73,9.87-1.23,12.91l0,0c-1,2-5.57,8.23-16.54,9.15ZM324.1,117.9l1.76,4.14,14.63,29c11.21-1,14.73-7.79,14.88-8.08,1.72-2.68,2.06-6.71,1-11.46a30.19,30.19,0,0,0-7.47-14c-3.39-3.64-6.91-5.82-10.18-6.31l-.13,0a7.39,7.39,0,0,0-2.88.16l-.11,0C329.51,112.25,325.33,116.5,324.1,117.9Z" transform="translate(-130.85 -46.56)"/><path class="cls-5" d="M329.73,119a61.12,61.12,0,0,1,13.88-7.13,25.13,25.13,0,0,1,6.06,4.92,31.21,31.21,0,0,1,7.71,14.45c-2.6,3.75-13.72,10.46-13.76,10.46s-3.73-6.86-3.73-6.86S323.4,123.54,329.73,119Z" transform="translate(-130.85 -46.56)"/><path class="cls-3" d="M343.62,142.72c-.65,0-.65,0-4.52-7.18-1.92-1.34-11.78-8.47-11.84-13.85a4.19,4.19,0,0,1,1.87-3.54h0a62.46,62.46,0,0,1,14.15-7.26l.43-.15.4.22a26.49,26.49,0,0,1,6.31,5.11,32.33,32.33,0,0,1,8,14.94l.09.44-.25.37C356,135.09,344.72,142.72,343.62,142.72Zm-13.28-22.89a2.1,2.1,0,0,0-1,1.84c0,3.86,8.06,10.2,11.15,12.31l.2.14.12.22c1,1.84,2.45,4.54,3.21,5.92,2.62-1.61,9.92-6.33,12.27-9.26a30.16,30.16,0,0,0-7.36-13.52,24.64,24.64,0,0,0-5.4-4.49,59.64,59.64,0,0,0-13.17,6.84Z" transform="translate(-130.85 -46.56)"/><path class="cls-4" d="M380.31,122.37c-2.54.51-6-1.87-8.06-5.66-5.6-10.08-18.13-29.27-37.5-40.45s-31.7-6.41-37.23-2.74c-2.09,1.38-5.51-.16-8.06-3.59h0c-3.25-4.37-3.76-9.91-1.09-11.66,7.17-4.69,22.57-10.3,46.38,3.45s39.35,37.23,46.59,50.22c2.69,4.81,2.21,9.79-1,10.44Z" transform="translate(-130.85 -46.56)"/><path class="cls-3" d="M379.62,123.47c-2.83,0-6.18-2.48-8.27-6.26-5.68-10.24-18.05-29-37.11-40.06-18.76-10.83-30.7-6.39-36.15-2.77-2.57,1.69-6.54.08-9.45-3.84-2.27-3.05-3.4-6.87-2.89-9.74a4.93,4.93,0,0,1,2.05-3.4c7.28-4.76,23.12-10.64,47.47,3.42,24.08,13.9,39.76,37.67,47,50.61,1.91,3.43,2.4,7.07,1.28,9.5a4.18,4.18,0,0,1-3,2.45l-.21-1,.2,1A4.33,4.33,0,0,1,379.62,123.47ZM312.19,68.26c6.18,0,13.87,1.79,23.08,7.11,19.49,11.25,32.1,30.42,37.88,40.84,1.83,3.31,4.89,5.57,7,5.15h.08a2.11,2.11,0,0,0,1.46-1.28c.83-1.79.34-4.86-1.21-7.64-7.1-12.75-22.55-36.17-46.2-49.83-23.4-13.51-38.43-8-45.31-3.47a3,3,0,0,0-1.16,2c-.41,2.34.57,5.54,2.51,8.15,2.17,2.92,5.1,4.39,6.67,3.35A27.19,27.19,0,0,1,312.19,68.26Z" transform="translate(-130.85 -46.56)"/><path class="cls-4" d="M305.13,100.87h0c-3.39-4.3-4.08-10-1.45-11.9,5.54-4,16-8,31.08.64s25.36,24.75,30.78,35.08c2.6,4.95,1.84,9.83-1.6,10.14h0c-2.6.23-5.91-2.32-7.88-6.08-3.78-7.23-11-18.64-21.3-24.59S317,101.22,313.07,104C311.06,105.5,307.73,104.18,305.13,100.87Z" transform="translate(-130.85 -46.56)"/><path class="cls-3" d="M363.6,135.86c-3,0-6.38-2.66-8.46-6.64-3.39-6.48-10.61-18.23-20.9-24.18-9.55-5.51-16.45-3.13-20.56-.16-2.52,1.81-6.37.43-9.36-3.37l0,0c-2.34-3-3.59-6.82-3.17-9.79a5.09,5.09,0,0,1,1.95-3.56c5.2-3.72,16.29-8.6,32.2.59,14.86,8.58,25.15,24,31.17,35.49,1.84,3.49,2.19,7.11.92,9.43a4.09,4.09,0,0,1-3.34,2.21A3,3,0,0,1,363.6,135.86ZM323.26,99.7a23.88,23.88,0,0,1,12,3.56c10.21,5.89,17.43,16.85,21.69,25,1.75,3.35,4.72,5.72,6.88,5.53a2.06,2.06,0,0,0,1.72-1.15c.76-1.39.76-4.24-.94-7.48-5.89-11.22-15.95-26.33-30.38-34.67-14.17-8.18-24.11-4.89-30-.7A3.2,3.2,0,0,0,303.16,92c-.34,2.4.77,5.72,2.77,8.25v0c2.2,2.79,5,4.07,6.53,3A18.38,18.38,0,0,1,323.26,99.7Z" transform="translate(-130.85 -46.56)"/><path class="cls-4" d="M348.72,142c0,9.05-6.35,12.71-14.18,8.19s-14.19-15.52-14.19-24.57,6.36-12.71,14.19-8.19S348.72,133,348.72,142Z" transform="translate(-130.85 -46.56)"/><path class="cls-3" d="M340.88,153.16a13.85,13.85,0,0,1-6.86-2.08c-8.1-4.68-14.69-16.1-14.69-25.46,0-4.76,1.65-8.33,4.66-10.07s6.94-1.39,11.06,1c8.11,4.68,14.7,16.1,14.7,25.46,0,4.76-1.65,8.34-4.67,10.08A8.34,8.34,0,0,1,340.88,153.16Zm-12.67-36.64a6.33,6.33,0,0,0-3.19.81c-2.34,1.36-3.64,4.3-3.64,8.29,0,8.71,6.14,19.33,13.67,23.68,3.46,2,6.66,2.35,9,1s3.64-4.3,3.64-8.29c0-8.7-6.13-19.32-13.67-23.68A11.92,11.92,0,0,0,328.21,116.52Z" transform="translate(-130.85 -46.56)"/><path class="cls-3" d="M348.72,142s6.7-2.82,9.29-8.19l-.63,5.95-1.09,3.6-2.47,3.15-3.69,2.72-3.34,1.5,1.93-4.89Z" transform="translate(-130.85 -46.56)"/><polygon class="cls-3" points="236.23 80.21 244.9 74.83 245.51 78.8 244.81 81.25 242.65 83.81 236.86 87.25 235.14 87.25 236.23 83.59 236.23 80.21"/><polygon class="cls-3" points="251.66 68.04 260.94 62.55 261.51 65.94 261.18 68.04 259.36 70.7 254.79 74.03 251.66 75.22 252.23 71.17 251.66 68.04"/><g class="cls-6"><rect class="cls-3" x="148.01" y="370.61" width="241.67" height="0.91" transform="translate(-280.25 137.33) rotate(-29.97)"/><rect class="cls-3" x="150.49" y="371.93" width="241.67" height="0.91" transform="translate(-280.58 138.74) rotate(-29.97)"/><rect class="cls-3" x="152.73" y="373.34" width="241.67" height="0.91" transform="translate(-281 140.08) rotate(-29.97)"/><rect class="cls-3" x="155.26" y="374.63" width="241.67" height="0.91" transform="translate(-281.3 141.49) rotate(-29.97)"/><rect class="cls-3" x="157.34" y="376.08" width="241.67" height="0.91" transform="translate(-281.74 142.72) rotate(-29.97)"/><rect class="cls-3" x="159.81" y="377.4" width="241.67" height="0.91" transform="translate(-282.07 144.13) rotate(-29.97)"/><rect class="cls-3" x="162.06" y="378.81" width="241.67" height="0.91" transform="translate(-282.47 145.44) rotate(-29.97)"/><rect class="cls-3" x="164.59" y="380.1" width="241.67" height="0.91" transform="translate(-282.76 146.84) rotate(-29.96)"/><rect class="cls-3" x="166.83" y="381.5" width="241.67" height="0.91" transform="translate(-283.18 148.19) rotate(-29.97)"/><rect class="cls-3" x="169.35" y="382.82" width="241.67" height="0.91" transform="translate(-283.5 149.62) rotate(-29.97)"/><rect class="cls-3" x="171.59" y="384.23" width="241.67" height="0.91" transform="translate(-283.9 150.93) rotate(-29.97)"/><rect class="cls-3" x="174.12" y="385.52" width="241.67" height="0.91" transform="translate(-284.21 152.36) rotate(-29.97)"/><rect class="cls-3" x="176.2" y="386.97" width="241.67" height="0.91" transform="translate(-284.66 153.6) rotate(-29.97)"/><rect class="cls-3" x="178.68" y="388.29" width="241.67" height="0.91" transform="translate(-284.99 155.01) rotate(-29.97)"/><rect class="cls-3" x="180.92" y="389.7" width="241.67" height="0.91" transform="translate(-285.37 156.28) rotate(-29.96)"/><rect class="cls-3" x="183.45" y="390.99" width="241.67" height="0.91" transform="translate(-285.69 157.75) rotate(-29.97)"/><rect class="cls-3" x="185.7" y="392.4" width="241.67" height="0.91" transform="translate(-286.1 159.06) rotate(-29.97)"/><rect class="cls-3" x="114.92" y="351.63" width="241.67" height="0.91" transform="translate(-275.2 118.26) rotate(-29.97)"/><rect class="cls-3" x="117.44" y="352.92" width="241.67" height="0.91" transform="translate(-275.51 119.69) rotate(-29.97)"/><rect class="cls-3" x="119.52" y="354.37" width="241.67" height="0.91" transform="translate(-275.95 120.92) rotate(-29.97)"/><rect class="cls-3" x="122" y="355.69" width="241.67" height="0.91" transform="translate(-276.28 122.34) rotate(-29.97)"/><rect class="cls-3" x="124.24" y="357.1" width="241.67" height="0.91" transform="translate(-276.68 123.65) rotate(-29.97)"/><rect class="cls-3" x="126.77" y="358.39" width="241.67" height="0.91" transform="translate(-277.02 125.14) rotate(-29.97)"/><rect class="cls-3" x="129.02" y="359.8" width="241.67" height="0.91" transform="translate(-277.39 126.4) rotate(-29.97)"/><rect class="cls-3" x="131.53" y="361.11" width="241.67" height="0.91" transform="translate(-277.71 127.83) rotate(-29.97)"/><rect class="cls-3" x="133.78" y="362.52" width="241.67" height="0.91" transform="translate(-278.11 129.13) rotate(-29.97)"/><rect class="cls-3" x="136.3" y="363.81" width="241.67" height="0.91" transform="translate(-278.42 130.57) rotate(-29.97)"/><rect class="cls-3" x="138.39" y="365.26" width="241.68" height="0.91" transform="translate(-278.87 131.81) rotate(-29.97)"/><rect class="cls-3" x="140.86" y="366.58" width="241.67" height="0.91" transform="translate(-279.2 133.22) rotate(-29.97)"/><rect class="cls-3" x="143.11" y="367.99" width="241.67" height="0.91" transform="translate(-279.6 134.53) rotate(-29.97)"/><rect class="cls-3" x="145.63" y="369.28" width="241.67" height="0.91" transform="translate(-279.91 135.96) rotate(-29.97)"/><rect class="cls-3" x="147.88" y="370.69" width="241.67" height="0.91" transform="translate(-280.31 137.27) rotate(-29.97)"/><rect class="cls-3" x="218.73" y="411.43" width="241.67" height="0.91" transform="translate(-291.17 178.07) rotate(-29.96)"/><rect class="cls-3" x="221.2" y="412.75" width="241.67" height="0.91" transform="translate(-291.52 179.52) rotate(-29.97)"/><rect class="cls-3" x="223.45" y="414.15" width="241.67" height="0.91" transform="translate(-291.92 180.83) rotate(-29.97)"/><rect class="cls-3" x="225.97" y="415.44" width="241.67" height="0.91" transform="translate(-292.23 182.26) rotate(-29.97)"/><rect class="cls-3" x="228.05" y="416.9" width="241.67" height="0.91" transform="translate(-292.66 183.46) rotate(-29.96)"/><rect class="cls-3" x="230.53" y="418.21" width="241.67" height="0.91" transform="translate(-293 184.91) rotate(-29.97)"/><rect class="cls-3" x="232.78" y="419.62" width="241.67" height="0.91" transform="translate(-293.4 186.22) rotate(-29.97)"/><rect class="cls-3" x="235.3" y="420.91" width="241.67" height="0.91" transform="translate(-293.71 187.65) rotate(-29.97)"/><rect class="cls-3" x="237.55" y="422.32" width="241.67" height="0.91" transform="translate(-294.1 188.92) rotate(-29.96)"/><rect class="cls-3" x="240.07" y="423.64" width="241.67" height="0.91" transform="translate(-294.44 190.4) rotate(-29.97)"/><rect class="cls-3" x="242.31" y="425.04" width="241.67" height="0.91" transform="translate(-294.84 191.71) rotate(-29.97)"/><rect class="cls-3" x="244.84" y="426.34" width="241.67" height="0.91" transform="translate(-295.13 193.1) rotate(-29.96)"/><rect class="cls-3" x="246.92" y="427.79" width="241.67" height="0.91" transform="translate(-295.59 194.38) rotate(-29.97)"/><rect class="cls-3" x="249.39" y="429.11" width="241.67" height="0.91" transform="translate(-295.92 195.79) rotate(-29.97)"/><rect class="cls-3" x="251.64" y="430.51" width="241.67" height="0.91" transform="translate(-296.32 197.11) rotate(-29.97)"/><rect class="cls-3" x="254.16" y="431.8" width="241.67" height="0.91" transform="translate(-296.62 198.49) rotate(-29.96)"/><rect class="cls-3" x="256.41" y="433.21" width="241.67" height="0.91" transform="translate(-297.03 199.84) rotate(-29.97)"/><rect class="cls-3" x="188.16" y="393.74" width="241.67" height="0.91" transform="translate(-286.44 160.47) rotate(-29.97)"/><rect class="cls-3" x="190.24" y="395.19" width="241.67" height="0.91" transform="translate(-286.89 161.71) rotate(-29.97)"/><rect class="cls-3" x="192.71" y="396.5" width="241.67" height="0.91" transform="translate(-287.21 163.12) rotate(-29.97)"/><rect class="cls-3" x="194.96" y="397.91" width="241.67" height="0.91" transform="translate(-287.62 164.43) rotate(-29.97)"/><rect class="cls-3" x="197.48" y="399.2" width="241.67" height="0.91" transform="translate(-287.92 165.86) rotate(-29.97)"/><rect class="cls-3" x="199.73" y="400.61" width="241.67" height="0.91" transform="translate(-288.33 167.17) rotate(-29.97)"/><rect class="cls-3" x="202.25" y="401.93" width="241.67" height="0.91" transform="translate(-288.65 168.61) rotate(-29.97)"/><rect class="cls-3" x="204.49" y="403.33" width="241.67" height="0.91" transform="translate(-289.05 169.92) rotate(-29.97)"/><rect class="cls-3" x="207.02" y="404.63" width="241.67" height="0.91" transform="translate(-289.36 171.36) rotate(-29.97)"/><rect class="cls-3" x="209.1" y="406.08" width="241.67" height="0.91" transform="translate(-289.8 172.58) rotate(-29.97)"/><rect class="cls-3" x="211.58" y="407.4" width="241.67" height="0.91" transform="translate(-290.16 174.07) rotate(-29.98)"/><rect class="cls-3" x="213.82" y="408.8" width="241.67" height="0.91" transform="translate(-290.53 175.31) rotate(-29.97)"/><rect class="cls-3" x="216.35" y="410.09" width="241.67" height="0.91" transform="translate(-290.84 176.74) rotate(-29.97)"/><rect class="cls-3" x="218.59" y="411.5" width="241.67" height="0.91" transform="translate(-291.24 178.05) rotate(-29.97)"/></g><path class="cls-4" d="M390.94,233,235.46,143.22a3.85,3.85,0,0,0-3.64-.4h0l0,0,0,0a50.08,50.08,0,0,0-9.58,5.64l7.46,7.28V267.4c0,4.29,2.62,9.29,5.84,11.15l151,87.19-5.26,2.6,3.81,6a28.44,28.44,0,0,0,10-5.84c1.1-.78,1.78-2.36,1.78-4.56V244.14C396.77,239.84,394.16,234.85,390.94,233Z" transform="translate(-130.85 -46.56)"/><path class="cls-3" d="M384.68,375.22l-4.6-7.2,4.73-2.33L235.06,279.23c-3.49-2-6.23-7.21-6.23-11.83V156.11L221,148.44l.7-.55a49.93,49.93,0,0,1,9.74-5.75,4.62,4.62,0,0,1,4.44.4L391.33,232.3c3.49,2,6.23,7.22,6.23,11.84V363.9c0,2.39-.75,4.24-2.12,5.2a28.66,28.66,0,0,1-10.2,6Zm-2.32-6.56,3,4.71a29.71,29.71,0,0,0,9.1-5.5c1-.7,1.51-2.13,1.51-4V244.14c0-4-2.44-8.74-5.44-10.47L235.06,143.9a3.08,3.08,0,0,0-2.9-.37,51.77,51.77,0,0,0-8.79,5.05l7,6.87v112c0,4,2.44,8.73,5.44,10.47l152.3,87.93Z" transform="translate(-130.85 -46.56)"/><polygon class="cls-3" points="98.83 120.03 98.83 161.26 194.65 217.46 254.24 183.01 121.99 106.66 98.83 120.03"/><path class="cls-3" d="M325.5,264.94l-.4-.23-96.2-56.43V166.14l23.94-13.83.4.23,133.43,77Zm-95-57.57,95,55.75,58-33.54L252.84,154.13l-22.37,12.92Z" transform="translate(-130.85 -46.56)"/><polygon class="cls-3" points="96.83 107.39 98.7 109.22 98.7 112.83 115.24 102.83 107.2 98.19 97.59 103.64 96.83 107.39"/><path class="cls-3" d="M228.77,160.79v-4.68l-2-1.89.93-4.52,10.31-5.85,9.58,5.53Zm-.23-7.1,1.8,1.76V158l14.2-8.59-6.49-3.74-8.91,5.05Z" transform="translate(-130.85 -46.56)"/><path class="cls-4" d="M350.6,367.67a5.35,5.35,0,0,0-2.63-3.48l-6-3.48c-6.15-3.56-11.19-12.28-11.19-19.38V301.24a.14.14,0,0,0-.07-.12l-6.08-3.52a.14.14,0,0,0-.2.17,16.52,16.52,0,0,1,.74,4.67v29a8.65,8.65,0,0,1-1,4.38l-.62-4.75a.14.14,0,0,0-.16-.12l-12.62,1.47a.13.13,0,0,1-.13,0,20.72,20.72,0,0,1-4.5-11.93v-29a9.16,9.16,0,0,1,.79-3.93.13.13,0,0,0-.05-.17l-6.14-3.54a.14.14,0,0,0-.21.12v39.76c0,7.2-5.1,10.14-11.33,6.54l-6.29-3.63c-.66-.38-1.12-.47-1.54-.2l-.13.06a56.4,56.4,0,0,0-11.78,6.86.15.15,0,0,0,0,.22l4.75,4.23,0,0,58.17,32.31,0,0,5.69,6.68a.13.13,0,0,0,.15.05c.84-.31,7.87-3,12-7.07A2.17,2.17,0,0,0,350.6,367.67Z" transform="translate(-130.85 -46.56)"/><path class="cls-3" d="M338.15,377.64a.9.9,0,0,1-.7-.33l-5.62-6.59-58.21-32.36-5-4.49,0-.48a.91.91,0,0,1,.37-.71,56.2,56.2,0,0,1,12-7l.07,0a2.2,2.2,0,0,1,2.29.23l6.29,3.63c2.76,1.59,5.32,1.87,7.21.78s2.93-3.45,2.93-6.64V283.92a.94.94,0,0,1,1.39-.81l6.14,3.55a.92.92,0,0,1,.38,1.19,8.21,8.21,0,0,0-.72,3.59v29A19.69,19.69,0,0,0,311,331.64l12.26-1.43a.93.93,0,0,1,1,.79l.08.66a1.09,1.09,0,0,0,0-.18v-29a15.64,15.64,0,0,0-.71-4.45.9.9,0,0,1,.3-1,.92.92,0,0,1,1-.08l6.08,3.51a.93.93,0,0,1,.47.81v40.09c0,6.87,4.84,15.26,10.79,18.69l6,3.49a6.1,6.1,0,0,1,3,4h0a2.87,2.87,0,0,1-.63,2.85c-4.24,4.17-11.46,6.92-12.27,7.23A.86.86,0,0,1,338.15,377.64ZM274.6,337.12l58.23,32.35.14.15,5.39,6.32c1.76-.69,7.69-3.18,11.29-6.72a1.56,1.56,0,0,0,.18-1.39h0a4.59,4.59,0,0,0-2.26-3l-6-3.48C335.15,357.7,330,348.7,330,341.33V301.61l-4.41-2.55a16.21,16.21,0,0,1,.38,3.38v29a9.32,9.32,0,0,1-1.14,4.78l-1.17,2-.83-6.38-12,1.39a.92.92,0,0,1-.84-.35,21.34,21.34,0,0,1-4.67-12.41v-29a10.2,10.2,0,0,1,.63-3.71L301.25,285v38.64c0,3.78-1.32,6.62-3.72,8s-5.52,1.11-8.79-.77l-6.29-3.64c-.56-.32-.69-.25-.74-.21l-.19.1a55.43,55.43,0,0,0-11,6.31Z" transform="translate(-130.85 -46.56)"/><path class="cls-7" d="M350.6,367.83c-.15-.74,0-.84-.49-1.43a37,37,0,0,1-12,6.69l-3,.39,3,3.48a.13.13,0,0,0,.15.05c.84-.32,7.87-3,12-7.07A2.18,2.18,0,0,0,350.6,367.83Z" transform="translate(-130.85 -46.56)"/><path class="cls-3" d="M338.15,377.8a.9.9,0,0,1-.7-.33l-3.9-4.58,4.43-.58h0a37.29,37.29,0,0,0,11.63-6.51l.63-.53.5.65a2.3,2.3,0,0,1,.56,1.32l.07.43a2.85,2.85,0,0,1-.63,2.84c-4.24,4.18-11.46,6.93-12.27,7.23A.87.87,0,0,1,338.15,377.8Zm-1.53-3.73,1.74,2c1.76-.69,7.69-3.18,11.29-6.72a1.56,1.56,0,0,0,.18-1.39h0q0-.17-.06-.3a37.48,37.48,0,0,1-11.47,6.16Z" transform="translate(-130.85 -46.56)"/><path class="cls-5" d="M332,370s0,0,0,0l1.54,1.8,13.8-7.89-5.77-3.33a17.37,17.37,0,0,1-2.55-1.83c-5.74,3.28-11.32,6.34-13.59,7.59Z" transform="translate(-130.85 -46.56)"/><path class="cls-3" d="M333.44,372.86l-1.88-2.21-7.69-4.27,1.26-.69c2.16-1.18,7.81-4.28,13.58-7.57l.48-.27.42.35a16.71,16.71,0,0,0,2.44,1.75l6.95,4Zm-6.3-6.47,5.52,3.13,1.13,1.32,12-6.88-4.58-2.65a16.44,16.44,0,0,1-2.24-1.55C334.3,362.44,329.73,365,327.14,366.39Z" transform="translate(-130.85 -46.56)"/><path class="cls-5" d="M289.13,330.24l-6.29-3.63c-.66-.38-1.12-.47-1.54-.21l-.13.07a56.06,56.06,0,0,0-11.78,6.85.15.15,0,0,0,0,.22l4.75,4.24,0,0,.62.92Z" transform="translate(-130.85 -46.56)"/><path class="cls-3" d="M274.52,339.78l-1-1.45-5-4.45,0-.48a1,1,0,0,1,.37-.71,55.9,55.9,0,0,1,12-6.95l.07,0a2.18,2.18,0,0,1,2.29.23l7.46,4.3Zm.07-2.65.1.05.32.48,12.56-7.41-5.12-3c-.56-.32-.69-.25-.74-.22l-.19.1a56,56,0,0,0-11,6.31Z" transform="translate(-130.85 -46.56)"/><path class="cls-3" d="M330.74,341.33V325.81c-2.59-.89-4.53-1.53-4.75-1.53a6.81,6.81,0,0,0-.86.21v7a8.55,8.55,0,0,1-1,4.38l-.62-4.75a.14.14,0,0,0-.16-.12l-12.62,1.47a.13.13,0,0,1-.13,0,22.18,22.18,0,0,1-1.77-2.68l-.56.19,1.38,27.1,6.66,4,.18.24,5.43,3,.78-1s6.71-3.67,13.46-7.84C332.91,351.32,330.74,346,330.74,341.33Z" transform="translate(-130.85 -46.56)"/><path class="cls-3" d="M322.09,365.31l-6.15-3.42-.19-.25-6.89-4.16-1.43-28.12,1.73-.57.32.55a23.27,23.27,0,0,0,1.49,2.3l12.26-1.43a.93.93,0,0,1,1,.79l.08.66a1.09,1.09,0,0,0,0-.18V323.9l.57-.16a4.15,4.15,0,0,1,1.07-.25c.21,0,.42,0,5,1.57l.53.18v16.09c0,4.28,2,9.51,5.22,13.64l.54.69-.75.47c-6.15,3.79-12.34,7.21-13.34,7.77Zm-5.1-4.64,4.69,2.61.47-.61.15-.07c.06,0,6.28-3.45,12.68-7.36-3.16-4.33-5-9.47-5-13.91v-15c-2.79-.95-3.69-1.22-4-1.29h-.07v6.39a9.32,9.32,0,0,1-1.14,4.78l-1.17,2-.83-6.38-12,1.39a.92.92,0,0,1-.84-.35c-.28-.36-.56-.74-.83-1.14l1.27,24.81Z" transform="translate(-130.85 -46.56)"/><path class="cls-4" d="M336.52,371.33l-6.5-3.75c-6.14-3.55-11.12-12.17-11.12-19.26V308.07l-6.45-3.73a16.71,16.71,0,0,1,.84,5v29c0,6.08-4.26,8.54-9.53,5.5s-9.53-10.43-9.53-16.51v-29a8.91,8.91,0,0,1,.85-4l-6.46-3.73v40.25c0,7.09-5,10-11.11,6.42L271,333.5c-1.28-.74-2.32-.14-2.32,1.35a5.13,5.13,0,0,0,2.32,4l65.52,37.83c1.29.74,2.33.14,2.33-1.34A5.12,5.12,0,0,0,336.52,371.33Z" transform="translate(-130.85 -46.56)"/><path class="cls-3" d="M337.57,377.8a2.89,2.89,0,0,1-1.44-.42l-65.52-37.83a5.94,5.94,0,0,1-2.72-4.7,2.19,2.19,0,0,1,3.51-2l6.5,3.76c2.71,1.56,5.23,1.84,7.07.78s2.87-3.38,2.87-6.52V289.23l8.28,4.78-.34.66a8.21,8.21,0,0,0-.76,3.68v29c0,5.82,4.1,12.92,9.14,15.83,2.29,1.32,4.4,1.56,5.95.67s2.4-2.84,2.4-5.49v-29a16.08,16.08,0,0,0-.81-4.78l-.62-1.94,8.61,5v40.7c0,6.83,4.81,15.16,10.72,18.58l6.51,3.75a5.93,5.93,0,0,1,2.71,4.71,2.4,2.4,0,0,1-1.07,2.18A2,2,0,0,1,337.57,377.8ZM270,334a.48.48,0,0,0-.22,0c-.18.11-.28.41-.28.83a4.34,4.34,0,0,0,1.93,3.34L336.92,376a1,1,0,0,0,.85.16,1,1,0,0,0,.29-.82,4.35,4.35,0,0,0-1.93-3.35l-6.5-3.75c-6.35-3.66-11.52-12.61-11.52-19.94v-39.8L313.7,306a16.21,16.21,0,0,1,.38,3.38v29c0,3.23-1.13,5.67-3.18,6.85s-4.73.95-7.53-.67c-5.47-3.16-9.93-10.87-9.93-17.19v-29a10.45,10.45,0,0,1,.63-3.71L289.41,292v38.89c0,3.72-1.29,6.52-3.65,7.88s-5.42,1.09-8.65-.78l-6.5-3.75A1.39,1.39,0,0,0,270,334Z" transform="translate(-130.85 -46.56)"/><path class="cls-5" d="M294.21,298.44v29c0,6.08,4.26,13.47,9.53,16.51s9.53.58,9.53-5.5v-29a16.62,16.62,0,0,0-.85-5l3.39,1.95V295.27H294.69A9.83,9.83,0,0,0,294.21,298.44Z" transform="translate(-130.85 -46.56)"/><path class="cls-3" d="M308,346.09a9.46,9.46,0,0,1-4.66-1.42c-5.47-3.15-9.92-10.87-9.92-17.19v-29A10.55,10.55,0,0,1,294,295l.18-.53h22.46v13.27l-2.91-1.68a16.21,16.21,0,0,1,.38,3.38v29c0,3.23-1.13,5.67-3.19,6.85A5.64,5.64,0,0,1,308,346.09Zm-12.72-50a9.35,9.35,0,0,0-.29,2.38v29c0,5.82,4.1,12.92,9.14,15.83,2.29,1.32,4.4,1.56,6,.67s2.39-2.84,2.39-5.49v-29a15.7,15.7,0,0,0-.81-4.77l-.62-1.94,4,2.29v-9Z" transform="translate(-130.85 -46.56)"/><path class="cls-3" d="M308.24,295.27H294.69a9.83,9.83,0,0,0-.48,3.17v29c0,4.52,2.35,9.76,5.73,13.4,3.39.28,5.77-2.24,5.77-6.78v-29a16.62,16.62,0,0,0-.85-5l3.38,1.95Z" transform="translate(-130.85 -46.56)"/><path class="cls-3" d="M300.44,341.69l-.57,0-.3,0-.21-.22c-3.61-3.9-5.94-9.37-5.94-13.94v-29A10.55,10.55,0,0,1,294,295l.18-.53H309v8.88l-2.92-1.68a15.6,15.6,0,0,1,.39,3.38v29a8.08,8.08,0,0,1-2.23,6.14A5.53,5.53,0,0,1,300.44,341.69Zm-.14-1.58a3.94,3.94,0,0,0,2.9-1,6.6,6.6,0,0,0,1.72-5v-29a15.81,15.81,0,0,0-.81-4.78l-.62-1.93,4,2.28v-4.57H295.28a9.35,9.35,0,0,0-.29,2.38v29C295,331.58,297.07,336.51,300.3,340.11Z" transform="translate(-130.85 -46.56)"/><path class="cls-4" d="M297.44,296.87v29c0,6.08,4.27,13.47,9.54,16.51a8.24,8.24,0,0,0,4.67,1.28,7.76,7.76,0,0,0,1.62-5.21v-29a16.62,16.62,0,0,0-.85-5l3.39,1.95v-3l-.15-.52.15.09v-7.68H297.56A11.44,11.44,0,0,0,297.44,296.87Z" transform="translate(-130.85 -46.56)"/><path class="cls-3" d="M311.23,344.5a9.47,9.47,0,0,1-4.65-1.4c-5.47-3.16-9.92-10.87-9.92-17.19v-29a12.08,12.08,0,0,1,.12-1.71l.1-.68h19.71v13.27l-2.91-1.68a16.21,16.21,0,0,1,.38,3.38v29a8.52,8.52,0,0,1-1.82,5.73l-.22.24-.32,0Zm-13-48.44c0,.27,0,.53,0,.81v29c0,5.82,4.1,12.92,9.14,15.83a8.09,8.09,0,0,0,3.89,1.19,7.34,7.34,0,0,0,1.22-4.44v-29a15.7,15.7,0,0,0-.81-4.77l-.62-1.94,4,2.29,0-1.63a2.45,2.45,0,0,0-.08-.29l-.63-1.94.74.42v-5.53Z" transform="translate(-130.85 -46.56)"/><path class="cls-3" d="M353.29,259.76l-1.78,86.16,34.18,19.73,11.08-6.36V244.51a14.8,14.8,0,0,0-2.69-8.1l-19.19,11Z" transform="translate(-130.85 -46.56)"/><path class="cls-3" d="M385.68,366.56l-35-20.19v-.47l1.79-86.61,22-12.53,19.82-11.4.41.6a15.61,15.61,0,0,1,2.83,8.55V359.75Zm-33.37-21.09,33.38,19.27,10.29-5.9V244.51a13.8,13.8,0,0,0-2.15-7l-18.55,10.66-21.21,12.1Z" transform="translate(-130.85 -46.56)"/><path class="cls-5" d="M381.5,373.86,226,284.1c-3.22-1.86-5.83-6.86-5.83-11.15V153.18c0-4.3,2.61-6.27,5.83-4.41L381.5,238.53c3.22,1.87,5.84,6.86,5.84,11.16V369.45C387.34,373.75,384.72,375.72,381.5,373.86Z" transform="translate(-130.85 -46.56)"/><path class="cls-3" d="M383.82,375.35a5.44,5.44,0,0,1-2.71-.81L225.63,284.78c-3.49-2-6.23-7.22-6.23-11.83V153.18c0-2.55.88-4.52,2.41-5.4a4.5,4.5,0,0,1,4.61.31L381.9,237.85c3.49,2,6.23,7.22,6.23,11.84V369.45c0,2.55-.88,4.52-2.42,5.4A3.73,3.73,0,0,1,383.82,375.35ZM223.71,148.85a2.27,2.27,0,0,0-1.11.29c-1,.6-1.62,2.07-1.62,4V273c0,4,2.44,8.73,5.44,10.47L381.9,373.18a3.07,3.07,0,0,0,3,.31c1-.6,1.62-2.07,1.62-4V249.69c0-4-2.44-8.74-5.44-10.47L225.63,149.45A4.06,4.06,0,0,0,223.71,148.85Z" transform="translate(-130.85 -46.56)"/><path class="cls-4" d="M381,361.14,226.55,272a4,4,0,0,1-1.67-3.18V155.65c0-1.22.75-1.79,1.67-1.26L381,243.55a4,4,0,0,1,1.66,3.19V359.88C382.64,361.11,381.9,361.67,381,361.14Z" transform="translate(-130.85 -46.56)"/><path class="cls-4" d="M381.64,362.13a2.11,2.11,0,0,1-1.06-.31L226.16,272.66a4.77,4.77,0,0,1-2.07-3.86V155.65a2.26,2.26,0,0,1,1-2,1.85,1.85,0,0,1,1.88.09l154.43,89.16a4.79,4.79,0,0,1,2.06,3.87V359.88a2.22,2.22,0,0,1-1,2A1.58,1.58,0,0,1,381.64,362.13Zm-.27-1.67a.53.53,0,0,0,.3.09c.05,0,.19-.21.19-.67V246.74a3.26,3.26,0,0,0-1.28-2.51L226.16,155.08c-.17-.1-.28-.11-.31-.09s-.18.21-.18.66V268.8a3.22,3.22,0,0,0,1.27,2.5Z" transform="translate(-130.85 -46.56)"/><path class="cls-3" d="M382.43,360.24,228,271.08a4,4,0,0,1-1.67-3.18V154.76a3.15,3.15,0,0,1,0-.46c-.83-.34-1.47.21-1.47,1.35V268.79a4,4,0,0,0,1.67,3.19L381,361.14c.79.46,1.46.09,1.62-.81A1.63,1.63,0,0,1,382.43,360.24Z" transform="translate(-130.85 -46.56)"/><path class="cls-3" d="M381.66,362.12a2.19,2.19,0,0,1-1.06-.3L226.18,272.66a4.8,4.8,0,0,1-2.07-3.87V155.65a2.28,2.28,0,0,1,.88-2,1.74,1.74,0,0,1,1.68-.11l.59.25-.11.62a1.58,1.58,0,0,0,0,.32V267.9a3.22,3.22,0,0,0,1.27,2.5l154.43,89.16v0l-.24.72.36-.71.58.25-.11.62a1.93,1.93,0,0,1-1,1.5A1.65,1.65,0,0,1,381.66,362.12Zm-156-93.07a3.21,3.21,0,0,0,1.26,2.24l.07,0A5,5,0,0,1,225.7,269.05Z" transform="translate(-130.85 -46.56)"/><path class="cls-3" d="M309.35,327l-11.18-6.46a2.17,2.17,0,0,1-.9-1.72h0c0-.67.41-1,.9-.69l11.18,6.46a2.16,2.16,0,0,1,.9,1.72h0C310.25,327,309.85,327.29,309.35,327Z" transform="translate(-130.85 -46.56)"/><path class="cls-3" d="M309.71,327.9a1.52,1.52,0,0,1-.75-.21h0l-11.18-6.45a3,3,0,0,1-1.3-2.41,1.57,1.57,0,0,1,.71-1.42,1.35,1.35,0,0,1,1.38,0l11.18,6.46a3,3,0,0,1,1.29,2.4,1.58,1.58,0,0,1-.7,1.42A1.28,1.28,0,0,1,309.71,327.9ZM298.07,319a1.37,1.37,0,0,0,.5.88l10.88,6.29a1.39,1.39,0,0,0-.49-.88Z" transform="translate(-130.85 -46.56)"/><rect class="cls-4" x="388.14" y="243.75" width="7.78" height="1.21" transform="translate(-200.51 182.26) rotate(-30.01)"/><rect class="cls-4" x="388.14" y="356.19" width="7.78" height="1.21" transform="translate(-256.77 197.46) rotate(-30.02)"/><rect class="cls-4" x="297.28" y="335.81" width="2.52" height="1.21" transform="translate(-258.75 146.84) rotate(-29.87)"/><rect class="cls-4" x="225.65" y="267.56" width="7.78" height="1.21" transform="translate(-234.23 104.28) rotate(-30.03)"/><rect class="cls-4" x="371.71" y="352.76" width="7.78" height="1.21" transform="translate(-257.26 188.78) rotate(-30.02)"/><path class="cls-3" d="M393.21,337l-2.37,1.37c-.41.24-.75,0-.75-.57v-6.3a1.86,1.86,0,0,1,.75-1.45l2.37-1.36c.42-.24.76,0,.76.57v6.29A1.81,1.81,0,0,1,393.21,337Z" transform="translate(-130.85 -46.56)"/><path class="cls-4" d="M390.54,339.11a1,1,0,0,1-.49-.14,1.25,1.25,0,0,1-.57-1.14v-6.29a2.43,2.43,0,0,1,1.06-2l2.37-1.37a1.09,1.09,0,0,1,1.1,0,1.27,1.27,0,0,1,.57,1.14v6.29a2.43,2.43,0,0,1-1.06,2h0l-2.36,1.36A1.19,1.19,0,0,1,390.54,339.11Zm2.82-9.77-2.21,1.28a1.24,1.24,0,0,0-.46.92v6.25l2.22-1.27a1.24,1.24,0,0,0,.45-.93Z" transform="translate(-130.85 -46.56)"/><path class="cls-3" d="M393.21,324.6,390.84,326c-.41.24-.75,0-.75-.58V319.1a1.85,1.85,0,0,1,.75-1.45l2.37-1.36c.42-.24.76,0,.76.57v6.29A1.81,1.81,0,0,1,393.21,324.6Z" transform="translate(-130.85 -46.56)"/><path class="cls-4" d="M390.54,326.66a1,1,0,0,1-.49-.13,1.24,1.24,0,0,1-.57-1.13v-6.3a2.43,2.43,0,0,1,1.06-2l2.37-1.37a1.09,1.09,0,0,1,1.1,0,1.27,1.27,0,0,1,.57,1.14v6.29a2.42,2.42,0,0,1-1.07,2l-2.36,1.36A1.18,1.18,0,0,1,390.54,326.66Zm2.82-9.76-2.21,1.28a1.24,1.24,0,0,0-.46.92v6.25l2.22-1.27a1.24,1.24,0,0,0,.45-.93Z" transform="translate(-130.85 -46.56)"/><rect class="cls-4" x="322.95" y="353.63" width="8.87" height="1.21" transform="translate(-262.51 159.55) rotate(-29.37)"/><path class="cls-4" d="M270.08,252.42c0-5.63-3.95-12.48-8.82-15.29a10.9,10.9,0,0,0-1.52-.72,14.44,14.44,0,0,0,.26-2.81c0-8.1-5.69-18-12.71-22a11.39,11.39,0,0,0-5.76-1.72c-1.37-11.55-9.37-24.43-19.07-30-5.36-3.09-10.1-3.43-13.59-1.38l-.11.06-12.51,7.83,3.88,6.56-.37-.25c-3.67-2.11-7-2.21-9.28-.68h0L178,199.73,183,209l6.62,1.19c2.31,4.92,6,9.38,10.17,11.79l54.58,31.51-6.69,4.16,7.16,8.37L267.7,258l.3-.24C269.48,256.79,270.08,255.11,270.08,252.42Z" transform="translate(-130.85 -46.56)"/><path class="cls-3" d="M254.65,267.08l-8.19-9.59,6.35-3.94-53.44-30.86c-4.08-2.35-7.82-6.63-10.32-11.77l-6.6-1.19L177,199.45l13.7-8.56,0,0a8.92,8.92,0,0,1,7.34,0l-2.89-4.88,13.32-8.32c3.81-2.24,8.92-1.75,14.35,1.39,9.66,5.58,17.72,18.08,19.38,29.94a12.67,12.67,0,0,1,5.45,1.81c7.23,4.17,13.1,14.35,13.1,22.69a15.66,15.66,0,0,1-.16,2.32,9.08,9.08,0,0,1,1,.53c5.09,2.93,9.22,10.1,9.22,16,0,3-.75,4.89-2.44,6l-.24.2Zm-5.81-9.22L255,265l12.54-7.89c1.27-.83,1.79-2.23,1.79-4.72,0-5.37-3.79-11.92-8.44-14.61a9,9,0,0,0-1.4-.66l-.63-.24.13-.65a13.14,13.14,0,0,0,.25-2.66c0-7.84-5.52-17.41-12.31-21.32a10.6,10.6,0,0,0-5.27-1.62h-.8l-.08-.7c-1.36-11.42-9.39-24.08-18.68-29.45-4.93-2.84-9.47-3.33-12.8-1.38l-.14.07-11.81,7.4,5.09,8.62-2.69-1.65a1.1,1.1,0,0,1-.21-.14l-.14-.09c-3.28-1.89-6.28-2.15-8.46-.71l-.65.43,0,0-11.16,7,4.41,8.31,6.64,1.2.17.37c2.33,4.94,6,9.22,9.86,11.44l55.71,32.17Z" transform="translate(-130.85 -46.56)"/><path class="cls-5" d="M261.48,237.48a9.37,9.37,0,0,0-1.52-.71c0-.15-.53-.19-.53-.19l-12.82,8-4.5,2.09,9.33,5.39,2.23-1.89,12.81-8A16.74,16.74,0,0,0,261.48,237.48Z" transform="translate(-130.85 -46.56)"/><path class="cls-3" d="M251.52,253l-11.11-6.42,5.86-2.74,13-8.09h.25a1.51,1.51,0,0,1,1,.33,10.29,10.29,0,0,1,1.42.68h0a17.54,17.54,0,0,1,5.23,4.9l.5.68-13.53,8.47Zm-7.71-6.27,7.54,4.35,1.81-1.53L265.33,242a15.45,15.45,0,0,0-4.24-3.78h0a9.61,9.61,0,0,0-1.41-.67l-.15-.05L247,245.25Z" transform="translate(-130.85 -46.56)"/><path class="cls-5" d="M247.06,211.55a11.36,11.36,0,0,0-5.76-1.72c0-.1-.49-.11-.49-.11L214,226.21l13.95,8.24,4.45-3.82L254,218A24,24,0,0,0,247.06,211.55Z" transform="translate(-130.85 -46.56)"/><path class="cls-3" d="M228,235.42l-15.55-9.2,28.16-17.29h.23a2.13,2.13,0,0,1,.68.12,12.23,12.23,0,0,1,6,1.82h0a24.67,24.67,0,0,1,7.18,6.62l.53.71-22.35,13.07Zm-12.5-9.22,12.33,7.29L232,230l20.88-12.21a22.43,22.43,0,0,0-6.17-5.5,10.41,10.41,0,0,0-5.36-1.62h-.47Z" transform="translate(-130.85 -46.56)"/><path class="cls-5" d="M182.52,208.18l9.66,2,5.71-6.3,31.33-18.71a32.15,32.15,0,0,0-6.76-5.32c-5.36-3.09-10.12-3.41-13.62-1.36l-.08,0-12.51,7.83,3.88,6.56-.37-.25c-3.67-2.11-7-2.21-9.28-.68h0L178,199.72Z" transform="translate(-130.85 -46.56)"/><path class="cls-3" d="M192.46,211,182,208.87l-5-9.43,13.7-8.56,0,0a8.92,8.92,0,0,1,7.34,0l-2.89-4.88,13.29-8.31c3.83-2.24,8.95-1.76,14.38,1.38a32.88,32.88,0,0,1,6.93,5.45l.71.71L198.4,204.48Zm-9.41-3.55,8.85,1.82,5.59-6.11L227.94,185a31.13,31.13,0,0,0-5.87-4.48c-4.93-2.84-9.48-3.33-12.83-1.36l-.11,0-11.81,7.4,5.09,8.62-2.69-1.65a1.1,1.1,0,0,1-.21-.14l-.14-.09c-3.28-1.9-6.28-2.15-8.46-.71l-.65.43,0,0-11.16,7Z" transform="translate(-130.85 -46.56)"/><path class="cls-3" d="M241,209.76A43,43,0,0,0,234.25,192l-21.42,12.88L223.57,220l4.65-2.18Z" transform="translate(-130.85 -46.56)"/><path class="cls-3" d="M223.31,220.94,211.7,204.59l22.8-13.7.41.64a43.54,43.54,0,0,1,6.91,18.14l.06.49-13.25,8.28ZM214,205.06,223.83,219l4-1.89,12.31-7.7A42.08,42.08,0,0,0,234,193Z" transform="translate(-130.85 -46.56)"/><path class="cls-3" d="M259.46,233.41a24.31,24.31,0,0,0-2.29-9.72l-24.11,14.1,9.52,7.5,3.8-1.06,12.83-8A14.4,14.4,0,0,0,259.46,233.41Z" transform="translate(-130.85 -46.56)"/><path class="cls-3" d="M242.41,246.16l-10.74-8.47,25.86-15.13.36.8a25.16,25.16,0,0,1,2.36,10,15.62,15.62,0,0,1-.27,3l-.07.33L246.59,245Zm-7.95-8.27,8.3,6.54,3.3-.93,12.43-7.76a13.33,13.33,0,0,0,.19-2.33,22.86,22.86,0,0,0-1.88-8.59Z" transform="translate(-130.85 -46.56)"/><path class="cls-3" d="M254.81,266.05,267.7,258l.3-.24c1.48-1,2.08-2.65,2.08-5.34a16,16,0,0,0-1.11-5.59l-12.9,7.79-6.16,1.66-1.4.86-.22,1.28Z" transform="translate(-130.85 -46.56)"/><path class="cls-3" d="M254.65,267.08l-7.2-8.43.35-2,1.9-1.15,6.06-1.62,13.62-8.22.33.89a16.89,16.89,0,0,1,1.16,5.86c0,3-.75,4.89-2.44,6l-.24.2Zm-5.52-8.89L255,265l12.54-7.89c1.27-.83,1.79-2.23,1.79-4.72a14.68,14.68,0,0,0-.75-4.41l-12.28,7.37-6,1.63-1,.62Z" transform="translate(-130.85 -46.56)"/><path class="cls-4" d="M186.94,200.67a20.66,20.66,0,0,1,3.73,2.8s0,0,0,0a29.1,29.1,0,0,1-.36-4.79c.16-12.24,8.7-16.95,19.3-10.82,9.7,5.59,17.71,18.48,19.08,30,2.84,0,6.28,1.45,9.88,4.87a27.89,27.89,0,0,1,8,13.89,18.8,18.8,0,0,1,.35,7.78,10.39,10.39,0,0,1,1.52.72c4.82,2.78,8.74,9.49,8.83,15.08.09,5.77-3.92,8.13-8.92,5.25L186.94,230c-6.95-4-12.6-13.72-12.71-21.78S179.9,196.61,186.94,200.67Z" transform="translate(-130.85 -46.56)"/><path class="cls-4" d="M252.36,267.49a9,9,0,0,1-4.42-1.34l-61.4-35.45c-7.23-4.18-13-14-13.09-22.45-.06-4.2,1.44-7.51,4.11-9.07s6.15-1.28,9.77.81a19.74,19.74,0,0,1,2.34,1.59c-.09-1-.13-2-.12-2.92.08-6.16,2.23-10.76,6.06-12.94s9-1.69,14.42,1.44c9.66,5.58,17.72,18.09,19.37,30,3.1.2,6.44,1.94,9.73,5.07a28.43,28.43,0,0,1,8.2,14.29,20.29,20.29,0,0,1,.47,7.46,11.15,11.15,0,0,1,1,.53c5.07,2.92,9.12,9.84,9.22,15.75.05,3.08-1,5.41-2.94,6.56A5.38,5.38,0,0,1,252.36,267.49Zm-71-67.73a5.84,5.84,0,0,0-3,.78c-2.17,1.27-3.39,4.07-3.34,7.69.1,7.78,5.63,17.24,12.31,21.1l61.4,35.45c2.16,1.25,4.14,1.47,5.58.63s2.2-2.68,2.16-5.17c-.09-5.32-3.87-11.79-8.43-14.42a10,10,0,0,0-1.4-.66l-.63-.24.13-.65a18,18,0,0,0-.35-7.45,26.92,26.92,0,0,0-7.74-13.5c-3.19-3-6.5-4.64-9.33-4.65H228l-.08-.71c-1.36-11.42-9.4-24.08-18.69-29.44-4.92-2.84-9.48-3.35-12.85-1.44s-5.19,6-5.27,11.59a28.48,28.48,0,0,0,.35,4.66l.09.55-1,.54-.43-.36a19.86,19.86,0,0,0-3.61-2.72h0A10.53,10.53,0,0,0,181.36,199.76Z" transform="translate(-130.85 -46.56)"/><path class="cls-4" d="M422.89,300.57a11.19,11.19,0,0,0-5.06-8.77,6.74,6.74,0,0,0-.87-.41,8.9,8.9,0,0,0,.15-1.61,16.14,16.14,0,0,0-7.29-12.63,6.58,6.58,0,0,0-3.31-1c-.79-6.62-5.38-14-10.94-17.23-3.07-1.77-5.79-2-7.8-.79l-.06,0-7.18,4.49,2.23,3.76-.21-.14c-2.11-1.21-4-1.27-5.33-.39h0l-7.13,4.46,2.83,5.33,3.79.68a15.54,15.54,0,0,0,5.84,6.77l31.31,18.07L410,303.59l4.11,4.8,7.39-4.62.18-.13C422.55,303.08,422.89,302.12,422.89,300.57Z" transform="translate(-130.85 -46.56)"/><path class="cls-3" d="M414,309.42l-5.14-6,3.5-2.17-30.17-17.42a16,16,0,0,1-6-6.74l-3.78-.68-3.35-6.32,8.45-5.28,0,.06a5.19,5.19,0,0,1,3.3-.13l-1.36-2.31,7.93-5c2.29-1.34,5.34-1.06,8.56.8,5.56,3.21,10.2,10.34,11.24,17.16a7.9,7.9,0,0,1,3,1.06,17,17,0,0,1,7.68,13.31,10.28,10.28,0,0,1-.06,1.13c.13.07.27.13.39.21a11.91,11.91,0,0,1,5.46,9.45,4.17,4.17,0,0,1-1.55,3.72l-.11.1Zm-2.75-5.65,3.07,3.6L421.2,303c.48-.31.9-.81.9-2.45a10.48,10.48,0,0,0-4.67-8.09,5,5,0,0,0-.75-.35l-.63-.24.13-.65a7.46,7.46,0,0,0,.14-1.46,15.29,15.29,0,0,0-6.9-11.95,6,6,0,0,0-2.86-.88h-.75l-.08-.7c-.77-6.46-5.3-13.61-10.55-16.64-2.72-1.57-5.21-1.85-7-.8l-6.57,4.11,3.44,5.82L382.21,267c-1.82-1.06-3.42-1.2-4.55-.45l-.7.46,0,0-5.81,3.64,2.3,4.34,3.82.69.17.37a14.86,14.86,0,0,0,5.52,6.41l32.45,18.74Z" transform="translate(-130.85 -46.56)"/><path class="cls-5" d="M418,292a6.74,6.74,0,0,0-.87-.41c0-.08-.31-.1-.31-.1l-7.36,4.59-2.58,1.2,5.36,3.09,1.27-1.08,7.35-4.6A9.69,9.69,0,0,0,418,292Z" transform="translate(-130.85 -46.56)"/><path class="cls-3" d="M412.28,301.33l-7.14-4.12,3.95-1.84,7.49-4.69.25,0a1.3,1.3,0,0,1,.71.23,6,6,0,0,1,.81.39h0a10.44,10.44,0,0,1,3.11,2.9l.5.68L413.89,300Zm-3.73-4,3.56,2.06.85-.72,6.7-4.21a8.21,8.21,0,0,0-2.1-1.79,4.4,4.4,0,0,0-.69-.34l-7,4.4Z" transform="translate(-130.85 -46.56)"/><path class="cls-5" d="M409.68,277.13a6.52,6.52,0,0,0-3.3-1c0-.06-.28-.06-.28-.06l-15.4,9.46,8,4.72,2.55-2.19,12.42-7.27A13.67,13.67,0,0,0,409.68,277.13Z" transform="translate(-130.85 -46.56)"/><path class="cls-3" d="M398.78,291.23l-9.61-5.68,16.72-10.27h.23a1.8,1.8,0,0,1,.44.06,7.49,7.49,0,0,1,3.52,1.1,14.44,14.44,0,0,1,4.22,3.88l.53.71-13.12,7.68Zm-6.56-5.71,6.39,3.78,2.24-1.91,11.64-6.81a12.17,12.17,0,0,0-3.2-2.77h0a5.82,5.82,0,0,0-2.86-.88h-.22Z" transform="translate(-130.85 -46.56)"/><path class="cls-5" d="M372.66,275.19l5.54,1.14,3.28-3.61,18-10.74a18.66,18.66,0,0,0-3.88-3.05c-3.07-1.78-5.81-2-7.81-.78l-.05,0-7.18,4.49,2.23,3.76-.21-.13c-2.11-1.22-4-1.27-5.33-.4h0l-7.13,4.45Z" transform="translate(-130.85 -46.56)"/><path class="cls-3" d="M378.48,277.19l-6.34-1.3-3.09-5.83,8.4-5.25,0,.06a5.14,5.14,0,0,1,3.35-.15l-1.36-2.32,7.82-4.9c2.39-1.4,5.45-1.12,8.67.75a18.91,18.91,0,0,1,4.05,3.18l.71.71L382,273.33Zm-5.3-2.7,4.74,1,3.15-3.43,17.09-10.21a17.44,17.44,0,0,0-3-2.22c-2.72-1.57-5.21-1.85-7-.79l-6.55,4.1,3.44,5.82L382.21,267c-1.82-1.06-3.42-1.21-4.55-.46L377,267v0l-5.86,3.66Z" transform="translate(-130.85 -46.56)"/><path class="cls-3" d="M406.23,276.1a24.77,24.77,0,0,0-3.89-10.22l-12.29,7.39,6.16,8.67,2.66-1.25Z" transform="translate(-130.85 -46.56)"/><path class="cls-3" d="M396,282.94l-7-9.91,13.67-8.21.42.64A25.45,25.45,0,0,1,407,276l.06.49-7.78,4.86Zm-4.77-9.44,5.29,7.45,2.07-1,6.84-4.28a23.78,23.78,0,0,0-3.3-8.74Z" transform="translate(-130.85 -46.56)"/><path class="cls-3" d="M416.8,289.67a13.9,13.9,0,0,0-1.32-5.58l-13.83,8.09,5.47,4.31,2.17-.61,7.36-4.6A8.08,8.08,0,0,0,416.8,289.67Z" transform="translate(-130.85 -46.56)"/><path class="cls-3" d="M406.94,297.35l-6.68-5.27L415.84,283l.36.8a14.63,14.63,0,0,1,1.39,5.9,9.09,9.09,0,0,1-.17,1.77l-.06.33-7.85,4.86Zm-3.89-5.07,4.24,3.34,1.68-.47,7-4.35a6.75,6.75,0,0,0,.08-1.13,12.49,12.49,0,0,0-.91-4.45Z" transform="translate(-130.85 -46.56)"/><path class="cls-3" d="M414.13,308.39l7.39-4.62.18-.13c.85-.56,1.19-1.52,1.19-3.07a9.28,9.28,0,0,0-.63-3.2l-7.41,4.46-3.53.95-.8.5-.13.74Z" transform="translate(-130.85 -46.56)"/><path class="cls-3" d="M414,309.42l-4.42-5.18.25-1.44,1.31-.78,3.43-.92,8.12-4.89.33.88a10.05,10.05,0,0,1,.69,3.48,4.17,4.17,0,0,1-1.55,3.72l-.11.1Zm-2.74-5.63,3.06,3.58L421.2,303c.48-.31.9-.81.9-2.45a7.46,7.46,0,0,0-.29-2l-6.75,4-3.43.92Z" transform="translate(-130.85 -46.56)"/><path class="cls-4" d="M375.19,270.89a11.47,11.47,0,0,1,2.14,1.6h0a16.31,16.31,0,0,1-.21-2.75c.09-7,5-9.72,11.07-6.21,5.57,3.21,10.16,10.6,10.94,17.23,1.63,0,3.61.83,5.67,2.79a16,16,0,0,1,4.58,8,10.82,10.82,0,0,1,.2,4.46,6.74,6.74,0,0,1,.87.41,11.23,11.23,0,0,1,5.06,8.66c.06,3.31-2.25,4.66-5.11,3l-35.23-20.34a16.13,16.13,0,0,1-7.29-12.49C367.84,270.57,371.16,268.56,375.19,270.89Z" transform="translate(-130.85 -46.56)"/><path class="cls-3" d="M412.73,309.56a5.51,5.51,0,0,1-2.71-.82L374.8,288.4a16.81,16.81,0,0,1-7.68-13.16c0-2.54.88-4.54,2.52-5.5s3.76-.8,5.95.46h0c.26.16.52.32.78.5,0-.33,0-.65,0-1,0-3.66,1.35-6.4,3.65-7.71s5.39-1,8.61.83c5.55,3.2,10.19,10.33,11.24,17.16a9.9,9.9,0,0,1,5.52,3,16.75,16.75,0,0,1,4.8,8.37,12.11,12.11,0,0,1,.3,4.15l.39.21a12,12,0,0,1,5.46,9.33,4.33,4.33,0,0,1-1.85,4A3.36,3.36,0,0,1,412.73,309.56ZM372,270.7a3,3,0,0,0-1.55.4c-1.14.66-1.77,2.16-1.75,4.12a15.36,15.36,0,0,0,6.9,11.82l35.22,20.34a2.36,2.36,0,0,0,3.94-2.32,10.42,10.42,0,0,0-4.67-8,4.72,4.72,0,0,0-.76-.36l-.62-.23.13-.66a10,10,0,0,0-.2-4.13,15.07,15.07,0,0,0-4.35-7.58c-1.75-1.66-3.55-2.57-5.07-2.57h-.75l-.09-.7c-.76-6.46-5.3-13.61-10.55-16.64-2.72-1.57-5.22-1.86-7-.82s-2.81,3.28-2.85,6.36a16.25,16.25,0,0,0,.19,2.62l.09.56-1,.53-.41-.41a11.09,11.09,0,0,0-2-1.48A5.72,5.72,0,0,0,372,270.7Z" transform="translate(-130.85 -46.56)"/><g class="cls-8"><rect class="cls-3" x="163.62" y="324.83" width="62.48" height="0.91" transform="translate(-267.3 94.3) rotate(-29.97)"/><rect class="cls-3" x="166.1" y="326.15" width="62.48" height="0.91" transform="translate(-267.61 95.67) rotate(-29.97)"/><rect class="cls-3" x="168.34" y="327.55" width="62.48" height="0.91" transform="translate(-268.01 96.98) rotate(-29.97)"/><rect class="cls-3" x="170.87" y="328.84" width="62.48" height="0.91" transform="translate(-268.34 98.46) rotate(-29.97)"/><rect class="cls-3" x="172.95" y="330.29" width="62.48" height="0.91" transform="translate(-268.56 99.27) rotate(-29.9)"/><rect class="cls-3" x="175.43" y="331.61" width="62.48" height="0.91" transform="translate(-268.89 100.68) rotate(-29.9)"/><rect class="cls-3" x="177.67" y="333.02" width="62.48" height="0.91" transform="translate(-269.29 101.99) rotate(-29.9)"/><rect class="cls-3" x="180.2" y="334.31" width="62.48" height="0.91" transform="translate(-269.8 103.8) rotate(-29.97)"/><rect class="cls-3" x="182.44" y="335.72" width="62.48" height="0.91" transform="translate(-270.2 105.11) rotate(-29.97)"/><rect class="cls-3" x="184.96" y="337.04" width="62.48" height="0.91" transform="translate(-270.32 106.15) rotate(-29.9)"/><rect class="cls-3" x="187.21" y="338.44" width="62.48" height="0.91" transform="translate(-270.82 107.66) rotate(-29.94)"/><rect class="cls-3" x="189.73" y="339.74" width="62.48" height="0.91" transform="translate(-271.23 109.28) rotate(-29.97)"/><rect class="cls-3" x="191.81" y="341.19" width="62.48" height="0.91" transform="translate(-271.68 110.52) rotate(-29.97)"/><rect class="cls-3" x="194.29" y="342.5" width="62.48" height="0.91" transform="translate(-272.01 111.93) rotate(-29.97)"/><rect class="cls-3" x="196.54" y="343.91" width="62.48" height="0.91" transform="translate(-272.28 112.99) rotate(-29.93)"/><rect class="cls-3" x="199.06" y="345.2" width="62.48" height="0.91" transform="translate(-272.52 114.27) rotate(-29.9)"/><rect class="cls-3" x="201.31" y="346.61" width="62.48" height="0.91" transform="translate(-272.92 115.58) rotate(-29.9)"/><rect class="cls-3" x="154" y="319.48" width="62.48" height="0.91" transform="translate(-265.69 88.38) rotate(-29.9)"/><rect class="cls-3" x="156.47" y="320.8" width="62.48" height="0.91" transform="translate(-266.12 89.97) rotate(-29.94)"/><rect class="cls-3" x="158.72" y="322.2" width="62.48" height="0.91" transform="matrix(0.87, -0.5, 0.5, 0.87, -266.52, 91.27)"/><rect class="cls-3" x="161.24" y="323.49" width="62.48" height="0.91" transform="translate(-266.71 92.5) rotate(-29.9)"/><rect class="cls-3" x="163.49" y="324.9" width="62.48" height="0.91" transform="translate(-267.33 94.2) rotate(-29.97)"/></g><path class="cls-4" d="M246,318.76l-11.55-1.06h0l-20-11.55c-3.34-1.92-8.38-2.13-11.27-.46l-17.59,10.15h-.42l-14.4,2.43a.13.13,0,0,0-.11.13v7.72c0,1.42.82,2.62,2.76,3.74l29,16.72c3.34,1.93,8.38,2.14,11.27.47l30.58-17.66a3.4,3.4,0,0,0,1.94-2.65V318.9A.14.14,0,0,0,246,318.76Z" transform="translate(-130.85 -46.56)"/><path class="cls-3" d="M208.65,349a13.78,13.78,0,0,1-6.75-1.7l-29-16.73c-2.12-1.22-3.15-2.67-3.15-4.42l0-7.72a.92.92,0,0,1,.76-.91L185,315h.28l17.4-10c3.15-1.82,8.44-1.62,12,.46l19.87,11.47L246,318a.92.92,0,0,1,.83.92v7.82a4.24,4.24,0,0,1-2.33,3.34L214,347.71A10.78,10.78,0,0,1,208.65,349Zm-37.28-30,0,7.17c0,.79.27,1.85,2.37,3.06l29,16.72c3.12,1.8,7.82,2,10.48.47l30.59-17.66a2.68,2.68,0,0,0,1.55-2v-7.18l-11.13-1-.2-.1-20-11.54c-3.11-1.8-7.81-2-10.48-.47l-17.78,10.27-.57,0Z" transform="translate(-130.85 -46.56)"/><path class="cls-3" d="M208.32,348.14a10.22,10.22,0,0,0,5.24-1.11L242,330.64V318.4l-7.54-.7h0l-14.75-8.52H208.32Z" transform="translate(-130.85 -46.56)"/><path class="cls-3" d="M208.67,348.93h-.37l-.76,0V308.39h12.29l14.8,8.54,8.11.75V331.1L214,347.71A10.73,10.73,0,0,1,208.67,348.93Zm.44-39v37.39a8.76,8.76,0,0,0,4-1l28-16.16V319.11l-7-.64-.19-.09L219.4,310Z" transform="translate(-130.85 -46.56)"/><path class="cls-4" d="M214.37,298.47l29,16.73c3.34,1.92,3.7,4.84.81,6.5l-30.58,17.66c-2.89,1.67-7.93,1.46-11.27-.47l-29-16.72c-3.34-1.92-3.7-4.84-.81-6.5L203.1,298C206,296.34,211,296.55,214.37,298.47Z" transform="translate(-130.85 -46.56)"/><path class="cls-3" d="M208.65,341.28a13.81,13.81,0,0,1-6.75-1.7l-29-16.73c-2-1.15-3.15-2.74-3.15-4.36a4.12,4.12,0,0,1,2.34-3.51l30.59-17.65c3.15-1.82,8.44-1.62,12,.46l29,16.73c2,1.15,3.15,2.74,3.15,4.36a4.12,4.12,0,0,1-2.34,3.51L214,340A10.78,10.78,0,0,1,208.65,341.28ZM208,297.66a9.21,9.21,0,0,0-4.5,1l-30.58,17.66a2.66,2.66,0,0,0-1.56,2.14c0,1,.87,2.13,2.37,3l29,16.72c3.12,1.8,7.82,2,10.48.47L243.75,321a2.65,2.65,0,0,0,1.55-2.14c0-1-.86-2.13-2.36-3l-29-16.72A12.29,12.29,0,0,0,208,297.66Z" transform="translate(-130.85 -46.56)"/><polygon class="cls-4" points="71.92 268.91 74.4 274.95 76.53 273.72 81.18 276.4 84.89 274.25 80.25 271.57 82.37 270.34 71.92 268.91"/><path class="cls-5" d="M212,323.67,207.38,321l-2.42,1.4-3.15-7.65,13.25,1.82-2.75,1.59,4.65,2.68Zm-4.65-4.09,4.65,2.69,2.5-1.45-4.64-2.68,1.5-.87-7.66-1,1.82,4.42Z" transform="translate(-130.85 -46.56)"/><rect class="cls-3" x="43.16" y="276.46" width="1.57" height="7.67"/><rect class="cls-3" x="71.13" y="292.51" width="1.57" height="7.67"/><path class="cls-4" d="M219.2,342.05a.91.91,0,0,1-.48-.13,1.18,1.18,0,0,1-.54-1.08v-1.47a2.23,2.23,0,0,1,1-1.84l4-2.31a1,1,0,0,1,1.06,0,1.18,1.18,0,0,1,.55,1.08v1.47a2.27,2.27,0,0,1-1,1.85l-4,2.31A1.16,1.16,0,0,1,219.2,342.05Zm4.36-5.66-3.78,2.18a1.1,1.1,0,0,0-.39.8v1.34l3.78-2.18a1.1,1.1,0,0,0,.39-.8Z" transform="translate(-130.85 -46.56)"/><path class="cls-4" d="M228.59,336.68a1,1,0,0,1-.48-.13,1.19,1.19,0,0,1-.54-1.09V334a2.25,2.25,0,0,1,1-1.85l4-2.31a1,1,0,0,1,1.06,0,1.19,1.19,0,0,1,.54,1.09v1.46a2.25,2.25,0,0,1-1,1.85l-4,2.31A1.17,1.17,0,0,1,228.59,336.68ZM233,331l-3.78,2.19a1.06,1.06,0,0,0-.39.8v1.34l3.78-2.19a1.06,1.06,0,0,0,.39-.8Z" transform="translate(-130.85 -46.56)"/><rect class="cls-4" x="79.67" y="294.47" width="1.21" height="6.01"/><rect class="cls-4" x="108.55" y="278.12" width="1.21" height="6.01"/><g class="cls-9"><rect class="cls-3" x="148.68" y="268.99" width="62.48" height="0.91" transform="translate(-241.23 79) rotate(-29.9)"/><rect class="cls-3" x="151.15" y="270.31" width="62.48" height="0.91" transform="translate(-241.54 80.37) rotate(-29.9)"/><rect class="cls-3" x="153.4" y="271.72" width="62.48" height="0.91" transform="translate(-242.12 82.05) rotate(-29.97)"/><rect class="cls-3" x="155.92" y="273.01" width="62.48" height="0.91" transform="translate(-242.43 83.48) rotate(-29.97)"/><rect class="cls-3" x="158" y="274.46" width="62.48" height="0.91" transform="translate(-242.89 84.76) rotate(-29.97)"/><rect class="cls-3" x="160.48" y="275.78" width="62.48" height="0.91" transform="translate(-243.04 85.79) rotate(-29.9)"/><rect class="cls-3" x="162.73" y="277.19" width="62.48" height="0.91" transform="translate(-243.44 87.1) rotate(-29.9)"/><rect class="cls-3" x="165.25" y="278.48" width="62.48" height="0.91" transform="translate(-243.83 88.7) rotate(-29.93)"/><rect class="cls-3" x="167.5" y="279.89" width="62.48" height="0.91" transform="translate(-244.16 89.84) rotate(-29.9)"/><rect class="cls-3" x="170.01" y="281.2" width="62.48" height="0.91" transform="translate(-244.46 91.24) rotate(-29.9)"/><rect class="cls-3" x="172.26" y="282.61" width="62.48" height="0.91" transform="translate(-244.96 92.75) rotate(-29.94)"/><rect class="cls-3" x="174.79" y="283.9" width="62.48" height="0.91" transform="translate(-245.26 94.18) rotate(-29.93)"/><rect class="cls-3" x="176.87" y="285.35" width="62.48" height="0.91" transform="translate(-245.79 95.59) rotate(-29.97)"/><rect class="cls-3" x="179.34" y="286.67" width="62.48" height="0.91" transform="translate(-246.12 97.01) rotate(-29.97)"/><rect class="cls-3" x="181.59" y="288.08" width="62.48" height="0.91" transform="translate(-246.52 98.32) rotate(-29.97)"/><rect class="cls-3" x="184.11" y="289.37" width="62.48" height="0.91" transform="translate(-246.75 99.57) rotate(-29.94)"/><rect class="cls-3" x="186.36" y="290.78" width="62.48" height="0.91" transform="translate(-247.07 100.69) rotate(-29.9)"/><rect class="cls-3" x="139.05" y="263.64" width="62.48" height="0.91" transform="translate(-240 73.8) rotate(-29.97)"/><rect class="cls-3" x="141.53" y="264.96" width="62.48" height="0.91" transform="translate(-240.25 75.06) rotate(-29.94)"/><rect class="cls-3" x="143.77" y="266.37" width="62.48" height="0.91" transform="translate(-240.57 76.21) rotate(-29.9)"/><rect class="cls-3" x="146.3" y="267.66" width="62.48" height="0.91" transform="translate(-240.88 77.64) rotate(-29.9)"/><rect class="cls-3" x="148.54" y="269.07" width="62.48" height="0.91" transform="translate(-241.36 79.11) rotate(-29.94)"/></g><path class="cls-4" d="M203.25,268.14l-8.06-.74h-2c-2.33-1.35-3.23-1.08-5.24.09l-1.86,1.08h-.3l-10,1.69a.09.09,0,0,0-.08.09v5.39c0,1,.57,1.83,1.92,2.61l5.59,3.2c2.33,1.34,5.85,1.49,7.87.32L202,275.54a2.4,2.4,0,0,0,1.36-1.85v-5.46A.09.09,0,0,0,203.25,268.14Z" transform="translate(-130.85 -46.56)"/><path class="cls-3" d="M187.63,283.43a9.87,9.87,0,0,1-4.83-1.22l-5.59-3.2c-1.56-.9-2.32-2-2.32-3.29v-6.06l.75-.2,10.11-1.7h.15l1.66-1c2.1-1.22,3.32-1.61,5.85-.2l2,0,7.91.73a.87.87,0,0,1,.79.87v5.46a3.18,3.18,0,0,1-1.74,2.53l-10.93,6.32A7.76,7.76,0,0,1,187.63,283.43Zm-11.15-12.51v4.8c0,.49.17,1.14,1.53,1.93l5.58,3.19c2.08,1.2,5.32,1.35,7.08.33l10.93-6.31a1.69,1.69,0,0,0,1-1.22v-4.77l-7.52-.7h-2l-.18-.1c-2.06-1.19-2.67-.95-4.46.09l-2.05,1.19h-.44Z" transform="translate(-130.85 -46.56)"/><path class="cls-3" d="M187.4,282.63a7.17,7.17,0,0,0,3.66-.78l8.64-5.06v-8.54l-4.51-.85h0l-.21,1.88-7.54-1.07Z" transform="translate(-130.85 -46.56)"/><path class="cls-3" d="M187.64,283.42h-.26l-.76,0V267.29l7.63,1.09.26-2.3,1,.57,5,.94v9.65l-9,5.29A7.67,7.67,0,0,1,187.64,283.42Zm.55-14.32v12.73a5.71,5.71,0,0,0,2.47-.66l8.25-4.83V268.9l-3.07-.58-.22,1.84Z" transform="translate(-130.85 -46.56)"/><path class="cls-4" d="M195.83,262.45l5.59,3.2c2.32,1.34,2.58,3.38.56,4.54l-10.92,6.31c-2,1.17-5.54,1-7.87-.32L177.6,273c-2.32-1.35-2.58-3.38-.56-4.54L188,262.13C190,261,193.5,261.11,195.83,262.45Z" transform="translate(-130.85 -46.56)"/><path class="cls-3" d="M187.63,278.08a9.87,9.87,0,0,1-4.83-1.22l-5.59-3.2a4,4,0,0,1-2.32-3.25,3.08,3.08,0,0,1,1.76-2.65l10.92-6.32c2.27-1.31,6.07-1.16,8.65.33l5.59,3.2a4,4,0,0,1,2.32,3.25,3.08,3.08,0,0,1-1.75,2.65l-10.93,6.31A7.76,7.76,0,0,1,187.63,278.08Zm3.74-15.95a6.12,6.12,0,0,0-3,.68l-10.93,6.31a1.62,1.62,0,0,0-1,1.29c0,.63.57,1.33,1.53,1.88l5.58,3.2c2.08,1.2,5.32,1.35,7.08.33l10.93-6.31a1.67,1.67,0,0,0,1-1.29c0-.63-.58-1.33-1.54-1.89l-5.58-3.2A8.46,8.46,0,0,0,191.37,262.13Z" transform="translate(-130.85 -46.56)"/><rect class="cls-3" x="51.51" y="229.44" width="1.57" height="5.35"/><path class="cls-5" d="M189.51,271.6A5.22,5.22,0,0,1,187,271a2.07,2.07,0,0,1,0-3.82,5.51,5.51,0,0,1,5,0h0a2.07,2.07,0,0,1,0,3.82A5.18,5.18,0,0,1,189.51,271.6Zm0-3.46a3.51,3.51,0,0,0-1.73.4c-.36.2-.48.41-.48.54s.12.34.48.54a3.91,3.91,0,0,0,3.45,0c.36-.2.49-.41.49-.54s-.13-.34-.49-.54h0A3.5,3.5,0,0,0,189.51,268.14Z" transform="translate(-130.85 -46.56)"/><g class="cls-10"><rect class="cls-3" x="346.08" y="190.53" width="62.48" height="0.91" transform="translate(-175.79 167.71) rotate(-30)"/><rect class="cls-3" x="348.56" y="191.85" width="62.48" height="0.91" transform="translate(-176.12 169.12) rotate(-30)"/><rect class="cls-3" x="350.81" y="193.26" width="62.48" height="0.91" transform="translate(-176.52 170.47) rotate(-30.01)"/><rect class="cls-3" x="353.33" y="194.55" width="62.48" height="0.91" transform="translate(-176.83 171.87) rotate(-30)"/><rect class="cls-3" x="355.41" y="196" width="62.48" height="0.91" transform="translate(-177.27 173.1) rotate(-30)"/><rect class="cls-3" x="357.89" y="197.32" width="62.48" height="0.91" transform="translate(-177.6 174.52) rotate(-30)"/><rect class="cls-3" x="360.14" y="198.73" width="62.48" height="0.91" transform="matrix(0.87, -0.5, 0.5, 0.87, -178, 175.83)"/><rect class="cls-3" x="362.66" y="200.02" width="62.48" height="0.91" transform="translate(-178.31 177.26) rotate(-30)"/><rect class="cls-3" x="364.91" y="201.42" width="62.48" height="0.91" transform="translate(-178.72 178.58) rotate(-30)"/><rect class="cls-3" x="367.42" y="202.74" width="62.48" height="0.91" transform="matrix(0.87, -0.5, 0.5, 0.87, -179.04, 180.01)"/><rect class="cls-3" x="369.67" y="204.15" width="62.48" height="0.91" transform="translate(-179.44 181.32) rotate(-30)"/><rect class="cls-3" x="372.19" y="205.44" width="62.48" height="0.91" transform="translate(-179.75 182.76) rotate(-30)"/><rect class="cls-3" x="374.28" y="206.89" width="62.48" height="0.91" transform="translate(-180.19 183.99) rotate(-30)"/><rect class="cls-3" x="376.75" y="208.21" width="62.48" height="0.91" transform="translate(-180.52 185.41) rotate(-30)"/><rect class="cls-3" x="379" y="209.62" width="62.48" height="0.91" transform="matrix(0.87, -0.5, 0.5, 0.87, -180.92, 186.72)"/><rect class="cls-3" x="381.52" y="210.91" width="62.48" height="0.91" transform="translate(-181.23 188.16) rotate(-30)"/><rect class="cls-3" x="383.77" y="212.32" width="62.48" height="0.91" transform="translate(-181.63 189.47) rotate(-30)"/><rect class="cls-3" x="336.46" y="185.18" width="62.48" height="0.91" transform="translate(-174.4 162.18) rotate(-30)"/><rect class="cls-3" x="338.94" y="186.5" width="62.48" height="0.91" transform="matrix(0.87, -0.5, 0.5, 0.87, -174.73, 163.59)"/><rect class="cls-3" x="341.18" y="187.91" width="62.48" height="0.91" transform="translate(-175.13 164.91) rotate(-30)"/><rect class="cls-3" x="343.71" y="189.2" width="62.48" height="0.91" transform="translate(-175.44 166.43) rotate(-30.02)"/><rect class="cls-3" x="345.95" y="190.61" width="62.48" height="0.91" transform="translate(-175.85 167.65) rotate(-30)"/></g><path class="cls-4" d="M400.66,189.67l-8.06-.74h-2c-2.33-1.34-3.23-1.07-5.25.09l-1.86,1.08h-.29l-10,1.69a.1.1,0,0,0-.08.1v5.38c0,1,.57,1.83,1.92,2.62l5.59,3.19c2.33,1.35,5.85,1.49,7.87.33l10.92-6.31a2.38,2.38,0,0,0,1.35-1.85v-5.46A.11.11,0,0,0,400.66,189.67Z" transform="translate(-130.85 -46.56)"/><path class="cls-3" d="M385,205a10,10,0,0,1-4.83-1.22l-5.59-3.2c-1.56-.9-2.32-2-2.32-3.3V191.2l.73-.2,10.13-1.71h.14l1.67-1c2.1-1.21,3.32-1.61,5.85-.2l2,0,7.91.73a.88.88,0,0,1,.79.88v5.46a3.18,3.18,0,0,1-1.74,2.53l-10.93,6.31A7.76,7.76,0,0,1,385,205Zm-11.15-12.52v4.81c0,.48.17,1.14,1.53,1.92l5.58,3.2c2.08,1.2,5.31,1.35,7.08.33L399,196.4a1.71,1.71,0,0,0,1-1.23V190.4l-7.52-.69h-2l-.18-.11c-2.06-1.18-2.67-.94-4.46.1l-2.06,1.19-.44,0Z" transform="translate(-130.85 -46.56)"/><path class="cls-3" d="M384.81,204.16a7.07,7.07,0,0,0,3.66-.77l8.64-5.06v-8.55l-4.51-.85h0l-.22,1.88-7.53-1.07Z" transform="translate(-130.85 -46.56)"/><path class="cls-3" d="M385.05,205h-.26l-.77,0V188.82l7.64,1.09.26-2.3.95.58,5,.94v9.65l-9,5.29A7.78,7.78,0,0,1,385.05,205Zm.55-14.32v12.72a5.71,5.71,0,0,0,2.47-.65l8.25-4.84v-7.44l-3.07-.57L393,191.7Z" transform="translate(-130.85 -46.56)"/><path class="cls-4" d="M393.24,184l5.59,3.2c2.32,1.34,2.58,3.37.56,4.54L388.47,198c-2,1.16-5.54,1-7.87-.33l-5.59-3.2c-2.32-1.34-2.58-3.37-.56-4.54l10.92-6.31C387.39,182.5,390.91,182.64,393.24,184Z" transform="translate(-130.85 -46.56)"/><path class="cls-3" d="M385,199.61a9.85,9.85,0,0,1-4.83-1.22l-5.59-3.19a4,4,0,0,1-2.32-3.26,3.1,3.1,0,0,1,1.75-2.65L385,183c2.27-1.31,6.07-1.17,8.65.32l5.59,3.2a4,4,0,0,1,2.32,3.25,3.11,3.11,0,0,1-1.75,2.66l-10.93,6.31A7.76,7.76,0,0,1,385,199.61Zm3.74-15.94a6.23,6.23,0,0,0-3,.67l-10.93,6.31a1.65,1.65,0,0,0-1,1.29c0,.63.57,1.34,1.53,1.89L381,197c2.08,1.19,5.32,1.34,7.08.33L399,191a1.62,1.62,0,0,0,1-1.29c0-.62-.57-1.33-1.53-1.88l-5.59-3.2A8.39,8.39,0,0,0,388.78,183.67Z" transform="translate(-130.85 -46.56)"/><rect class="cls-3" x="248.92" y="150.97" width="1.58" height="5.35"/><path class="cls-5" d="M386.92,193.13a5.11,5.11,0,0,1-2.52-.61,2.06,2.06,0,0,1,0-3.81,5.45,5.45,0,0,1,5,0,2.06,2.06,0,0,1,0,3.81A5.07,5.07,0,0,1,386.92,193.13Zm0-3.46a3.62,3.62,0,0,0-1.73.4c-.36.21-.48.42-.48.54s.12.34.48.55a3.94,3.94,0,0,0,3.45,0c.36-.21.49-.42.49-.55s-.13-.33-.49-.54A3.61,3.61,0,0,0,386.92,189.67Z" transform="translate(-130.85 -46.56)"/><path class="cls-5" d="M360.09,185.85c-9.13,5.27-16.54,18.1-16.54,28.65v89.6l-63.82-37V177.5c0-10.55,7.41-23.38,16.54-28.65Z" transform="translate(-130.85 -46.56)"/><path class="cls-3" d="M344.34,305.47,279,267.55V177.5c0-10.79,7.59-23.94,16.93-29.33l.4-.23,65.39,37.91-1.18.68c-8.91,5.14-16.15,17.69-16.15,28Zm-63.82-38.82,62.24,36.09V214.5c0-10.34,7-22.87,15.8-28.63l-62.28-36.11c-8.73,5.28-15.76,17.61-15.76,27.74Z" transform="translate(-130.85 -46.56)"/><path class="cls-4" d="M310,231.64l-19-11a6.71,6.71,0,0,1-2.81-5.36V188c0-2.07,1.26-3,2.81-2.12l19,11a6.71,6.71,0,0,1,2.81,5.37v27.3C312.78,231.58,311.53,232.53,310,231.64Z" transform="translate(-130.85 -46.56)"/><path class="cls-3" d="M311.09,232.77a3,3,0,0,1-1.51-.45l-19.05-11a7.52,7.52,0,0,1-3.2-6.05V188A3.23,3.23,0,0,1,288.7,185a2.54,2.54,0,0,1,2.62.14l19.05,11a7.5,7.5,0,0,1,3.2,6.05v27.3a3.26,3.26,0,0,1-1.36,2.95A2.21,2.21,0,0,1,311.09,232.77Zm-21.28-46.46a.67.67,0,0,0-.33.08,1.82,1.82,0,0,0-.57,1.59v27.3a5.94,5.94,0,0,0,2.41,4.68l19.05,11a1.16,1.16,0,0,0,1.05.15,1.84,1.84,0,0,0,.58-1.59v-27.3a6,6,0,0,0-2.42-4.69l-19.05-11A1.53,1.53,0,0,0,289.81,186.31Z" transform="translate(-130.85 -46.56)"/><path class="cls-5" d="M307.89,225.73,293,217.14a2.34,2.34,0,0,1-1-1.86V192.5c0-.72.44-1.05,1-.73l14.88,8.58a2.33,2.33,0,0,1,1,1.86V225C308.86,225.71,308.43,226,307.89,225.73Z" transform="translate(-130.85 -46.56)"/><path class="cls-3" d="M308.28,226.63a1.51,1.51,0,0,1-.78-.22l-14.88-8.59a3.11,3.11,0,0,1-1.37-2.54V192.5A1.64,1.64,0,0,1,292,191a1.44,1.44,0,0,1,1.43.05l14.87,8.59a3.11,3.11,0,0,1,1.37,2.54V225a1.62,1.62,0,0,1-.73,1.47A1.23,1.23,0,0,1,308.28,226.63Zm-15.45-34.06v22.71a1.6,1.6,0,0,0,.58,1.18l14.66,8.47V202.21a1.63,1.63,0,0,0-.57-1.18Z" transform="translate(-130.85 -46.56)"/><path class="cls-4" d="M330.68,253.89,290,230.41a4.53,4.53,0,0,1-1.89-3.61h0c0-1.39.85-2,1.89-1.43l40.67,23.49a4.49,4.49,0,0,1,1.89,3.6h0C332.57,253.86,331.73,254.5,330.68,253.89Z" transform="translate(-130.85 -46.56)"/><path class="cls-3" d="M331.44,254.91a2.31,2.31,0,0,1-1.15-.34l-40.67-23.48a5.32,5.32,0,0,1-2.29-4.29,2.42,2.42,0,0,1,1.05-2.21,2,2,0,0,1,2,.1l40.68,23.48a5.32,5.32,0,0,1,2.28,4.29,2.45,2.45,0,0,1-1.05,2.22A1.74,1.74,0,0,1,331.44,254.91Zm-.36-1.7c.19.11.36.15.45.1a1.07,1.07,0,0,0,.26-.85,3.78,3.78,0,0,0-1.5-2.92l-40.67-23.49c-.2-.11-.37-.15-.45-.1s-.26.37-.26.85a3.8,3.8,0,0,0,1.49,2.93Z" transform="translate(-130.85 -46.56)"/><path class="cls-4" d="M323.86,259.64,290,240a4.55,4.55,0,0,1-1.89-3.61h0c0-1.4.85-2,1.89-1.43l33.85,19.69a4.51,4.51,0,0,1,1.88,3.61h0C325.74,259.61,324.9,260.25,323.86,259.64Z" transform="translate(-130.85 -46.56)"/><path class="cls-3" d="M324.61,260.66a2.24,2.24,0,0,1-1.15-.34h0l-33.85-19.68a5.35,5.35,0,0,1-2.28-4.29,2.42,2.42,0,0,1,1.05-2.21,2,2,0,0,1,2,.09l33.85,19.7a5.3,5.3,0,0,1,2.28,4.29,2.42,2.42,0,0,1-1,2.2A1.71,1.71,0,0,1,324.61,260.66Zm-.36-1.7c.19.11.37.15.45.1a1.06,1.06,0,0,0,.26-.84,3.78,3.78,0,0,0-1.5-2.93L289.61,235.6a.51.51,0,0,0-.44-.1c-.13.07-.26.37-.26.85a3.78,3.78,0,0,0,1.49,2.92L324.25,259Z" transform="translate(-130.85 -46.56)"/><path class="cls-4" d="M327.63,213.11l-8.54-4.82a4.52,4.52,0,0,1-1.89-3.61h0c0-1.39.84-2,1.89-1.43l8.54,4.82a4.51,4.51,0,0,1,1.89,3.61h0C329.52,213.07,328.68,213.71,327.63,213.11Z" transform="translate(-130.85 -46.56)"/><path class="cls-3" d="M328.39,214.12a2.29,2.29,0,0,1-1.15-.33L318.7,209a5.29,5.29,0,0,1-2.29-4.29,2.42,2.42,0,0,1,1-2.21,2,2,0,0,1,2,.1l8.54,4.81a5.33,5.33,0,0,1,2.29,4.3,2.43,2.43,0,0,1-1.05,2.21A1.74,1.74,0,0,1,328.39,214.12Zm-10.05-10.31-.1,0c-.12.07-.25.37-.25.85a3.73,3.73,0,0,0,1.49,2.92l8.55,4.82c.19.12.36.15.44.1s.26-.36.26-.84a3.77,3.77,0,0,0-1.49-2.93l-8.54-4.81A.72.72,0,0,0,318.34,203.81Z" transform="translate(-130.85 -46.56)"/><path class="cls-4" d="M330.51,224.43l-11.42-6.6a4.51,4.51,0,0,1-1.89-3.61h0c0-1.39.84-2,1.89-1.43l11.42,6.6A4.51,4.51,0,0,1,332.4,223h0C332.4,224.39,331.56,225,330.51,224.43Z" transform="translate(-130.85 -46.56)"/><path class="cls-3" d="M331.27,225.44a2.29,2.29,0,0,1-1.15-.33l-11.43-6.6a5.3,5.3,0,0,1-2.28-4.29,2.43,2.43,0,0,1,1-2.21,2,2,0,0,1,2,.1l11.43,6.6a5.31,5.31,0,0,1,2.28,4.29,2.42,2.42,0,0,1-1.05,2.21A1.64,1.64,0,0,1,331.27,225.44Zm-.36-1.69c.19.11.36.15.45.1s.25-.37.25-.85a3.77,3.77,0,0,0-1.49-2.93l-11.43-6.59c-.19-.11-.36-.15-.45-.1s-.25.36-.25.84a3.77,3.77,0,0,0,1.49,2.93Z" transform="translate(-130.85 -46.56)"/><path class="cls-4" d="M330.51,234l-11.42-6.6a4.51,4.51,0,0,1-1.89-3.61h0c0-1.39.84-2,1.89-1.43l11.42,6.6a4.51,4.51,0,0,1,1.89,3.61h0C332.4,233.94,331.56,234.58,330.51,234Z" transform="translate(-130.85 -46.56)"/><path class="cls-3" d="M331.27,235a2.29,2.29,0,0,1-1.15-.33l-11.43-6.6a5.31,5.31,0,0,1-2.28-4.29,2.42,2.42,0,0,1,1-2.21,2,2,0,0,1,2,.1l11.43,6.6a5.3,5.3,0,0,1,2.28,4.29,2.43,2.43,0,0,1-1.05,2.21A1.74,1.74,0,0,1,331.27,235Zm-.36-1.7c.19.11.36.15.45.1s.25-.36.25-.84a3.77,3.77,0,0,0-1.49-2.93L318.69,223a.57.57,0,0,0-.45-.1c-.12.07-.25.37-.25.85a3.77,3.77,0,0,0,1.49,2.93Z" transform="translate(-130.85 -46.56)"/><path class="cls-4" d="M330.51,243.52l-11.42-6.6a4.49,4.49,0,0,1-1.89-3.61h0c0-1.39.84-2,1.89-1.42l11.42,6.59a4.52,4.52,0,0,1,1.89,3.61h0C332.4,243.48,331.56,244.12,330.51,243.52Z" transform="translate(-130.85 -46.56)"/><path class="cls-3" d="M331.27,244.53a2.29,2.29,0,0,1-1.15-.33l-11.43-6.59a5.33,5.33,0,0,1-2.28-4.3,2.43,2.43,0,0,1,1-2.21,2,2,0,0,1,2,.1l11.43,6.6a5.32,5.32,0,0,1,2.28,4.29,2.42,2.42,0,0,1-1.05,2.21A1.64,1.64,0,0,1,331.27,244.53Zm-.36-1.69c.19.11.36.15.45.1s.25-.37.25-.85a3.75,3.75,0,0,0-1.49-2.92l-11.43-6.6c-.19-.11-.36-.15-.45-.1s-.25.37-.25.84a3.77,3.77,0,0,0,1.49,2.93Z" transform="translate(-130.85 -46.56)"/><path class="cls-4" d="M311.84,262.28,290,249.5a4.53,4.53,0,0,1-1.89-3.61h0c0-1.39.85-2,1.89-1.43l21.83,12.78a4.53,4.53,0,0,1,1.89,3.61h0C313.73,262.24,312.88,262.88,311.84,262.28Z" transform="translate(-130.85 -46.56)"/><path class="cls-3" d="M312.59,263.29a2.32,2.32,0,0,1-1.15-.33h0l-21.83-12.77a5.34,5.34,0,0,1-2.28-4.29,2.43,2.43,0,0,1,1.05-2.21,2,2,0,0,1,2,.1l21.84,12.78a5.34,5.34,0,0,1,2.28,4.29,2.45,2.45,0,0,1-1,2.21A1.81,1.81,0,0,1,312.59,263.29Zm-.36-1.7c.19.11.37.15.45.1s.26-.36.26-.84a3.78,3.78,0,0,0-1.5-2.93l-21.83-12.78c-.19-.11-.36-.14-.44-.09s-.26.36-.26.84a3.8,3.8,0,0,0,1.49,2.93Z" transform="translate(-130.85 -46.56)"/><path class="cls-4" d="M301.44,265.64,290,259.05a4.55,4.55,0,0,1-1.89-3.61h0c0-1.39.85-2,1.89-1.43l11.43,6.6a4.52,4.52,0,0,1,1.89,3.61h0C303.33,265.61,302.48,266.25,301.44,265.64Z" transform="translate(-130.85 -46.56)"/><path class="cls-3" d="M302.19,266.66a2.32,2.32,0,0,1-1.15-.33l-11.42-6.6a5.33,5.33,0,0,1-2.29-4.29,2.42,2.42,0,0,1,1.05-2.21,2,2,0,0,1,2,.1l11.43,6.59a5.33,5.33,0,0,1,2.28,4.3,2.44,2.44,0,0,1-1,2.21A1.81,1.81,0,0,1,302.19,266.66Zm-.36-1.7c.19.11.37.15.45.1a1.06,1.06,0,0,0,.26-.84,3.78,3.78,0,0,0-1.5-2.93l-11.42-6.6c-.2-.11-.37-.15-.45-.1s-.26.37-.26.85a3.78,3.78,0,0,0,1.49,2.92Z" transform="translate(-130.85 -46.56)"/><rect class="cls-3" x="345.88" y="175.51" width="1.58" height="19.06" transform="translate(-116.8 347.74) rotate(-60.27)"/><rect class="cls-3" x="331.69" y="173.54" width="1.58" height="6.81" transform="translate(-116.93 331.31) rotate(-60.26)"/><rect class="cls-3" x="308.32" y="142.68" width="1.58" height="41.84" transform="translate(-117.1 304.32) rotate(-60.27)"/><rect class="cls-3" x="307.78" y="174.56" width="1.58" height="5.77" transform="translate(-130.56 308.82) rotate(-59.9)"/><rect class="cls-3" x="292.68" y="157.29" width="1.58" height="22.8" transform="translate(-130.52 291.4) rotate(-59.9)"/><rect class="cls-5" x="144.45" y="97.48" width="1.21" height="6.16"/><rect class="cls-5" x="141.98" y="99.95" width="6.16" height="1.21"/><path class="cls-5" d="M362.89,335.25,322.2,311.76s0,0,0,0V277.38h0l10.17-6.75h0l30.52,17.62s0,0,0,0v47Z" transform="translate(-130.85 -46.56)"/><path class="cls-3" d="M362.85,336.17l-.37-.24-41.07-23.71V276.89l.44-.23,10-6.65.4-.4.55.35,30.87,17.83v47.93ZM323,311.3l39.14,22.6V288.7l-29.72-17.16L323,277.79Z" transform="translate(-130.85 -46.56)"/><path class="cls-4" d="M322.22,277.39l10.13,5.85h0V270.66a0,0,0,0,0,0,0l-10.13,6.73S322.2,277.38,322.22,277.39Z" transform="translate(-130.85 -46.56)"/><path class="cls-3" d="M332.4,284.14l-.4-.2-10.58-6.11v-.93l.4-.23,10.49-7,.83.47v13.49Zm-8.72-6.82,7.9,4.56v-9.8Z" transform="translate(-130.85 -46.56)"/><path class="cls-4" d="M351.64,306.22c0,5.8-4.07,8.16-9.1,5.25s-9.09-10-9.09-15.75,4.07-8.16,9.09-5.26S351.64,300.42,351.64,306.22Z" transform="translate(-130.85 -46.56)"/><path class="cls-3" d="M346.61,313.51a9,9,0,0,1-4.46-1.35c-5.23-3-9.49-10.4-9.49-16.44,0-3.1,1.08-5.44,3.06-6.57s4.53-.92,7.22.63c5.23,3,9.49,10.4,9.49,16.44,0,3.1-1.09,5.44-3.06,6.57A5.44,5.44,0,0,1,346.61,313.51ZM338.48,290a3.89,3.89,0,0,0-2,.5c-1.46.85-2.27,2.69-2.27,5.21,0,5.54,3.91,12.3,8.71,15.07,2.17,1.26,4.18,1.49,5.64.64s2.27-2.69,2.27-5.21c0-5.54-3.9-12.3-8.7-15.07A7.46,7.46,0,0,0,338.48,290Z" transform="translate(-130.85 -46.56)"/><path class="cls-5" d="M345.48,292.73l-2.92,8.21s0,0,0,.05l9.06,5.23C351.64,301.61,349.06,296.21,345.48,292.73Z" transform="translate(-130.85 -46.56)"/><path class="cls-3" d="M352.43,307.59l-10.81-6.25.19-.67,3.34-9.36.88.86c3.83,3.71,6.4,9.36,6.4,14.05Zm-8.92-7,7.26,4.19a20.06,20.06,0,0,0-5-10.62Z" transform="translate(-130.85 -46.56)"/><path class="cls-4" d="M349.78,311.5a7.05,7.05,0,0,0,1.86-5.28l-9-5.18s-.05,0,0,.07Z" transform="translate(-130.85 -46.56)"/><path class="cls-3" d="M349.65,312.7l-8-11.67.85-1,.58.32,9.37,5.41v.45a7.77,7.77,0,0,1-2.11,5.85Zm-4.49-9.31,4.69,6.82a6.86,6.86,0,0,0,1-3.54Z" transform="translate(-130.85 -46.56)"/><path class="cls-4" d="M483.75,340.75l.93,20.64s0,0,0,0l-14.89-22.58h0l-1.69-8.76h0l52.71-43.23s0,0,0,0l-16.2,40.43h0l-20.86,13.48Z" transform="translate(-130.85 -46.56)"/><path class="cls-3" d="M484.4,362.35l-.37-.48-15-22.75,0-.16-1.79-9.28.44-.3,53.12-43.56,1,.69-.18.56-16.27,40.62-.25.23-20.48,13.24.93,20.76Zm-13.88-23.84,13.25,20.1L483,340.33l.36-.24L504,326.73l15-37.4-50,41Z" transform="translate(-130.85 -46.56)"/><path class="cls-5" d="M520.77,286.85l-51,52h0L443,334.88s0,0,0,0l77.79-48S520.78,286.84,520.77,286.85Z" transform="translate(-130.85 -46.56)"/><path class="cls-3" d="M469.77,339.6l-27.46-4-.25-1.08.48-.3,78.39-48.4.9,1.08-.5.52-51.22,52.2Zm-24.59-5.19L469.49,338l46.24-47.12Z" transform="translate(-130.85 -46.56)"/><rect class="cls-3" x="479.06" y="346.34" width="1.57" height="4.35" transform="translate(-243.19 269.92) rotate(-32.89)"/><rect class="cls-3" x="473.99" y="335.68" width="1.57" height="9.98" transform="translate(-239.75 265.91) rotate(-32.89)"/><rect class="cls-3" x="477.36" y="331.9" width="1.57" height="8.18" transform="matrix(0.83, -0.55, 0.55, 0.83, -236.87, 272.98)"/><rect class="cls-3" x="519.36" y="325.82" width="5.66" height="1.57" transform="translate(33.16 781.11) rotate(-86.47)"/><rect class="cls-3" x="517.7" y="315.68" width="10.24" height="1.57" transform="translate(43.87 772.22) rotate(-86.47)"/><path class="cls-4" d="M484.7,361.41l23.46-28.24s0,0,0,0l-24.39,7.6h0l.93,20.64S484.7,361.42,484.7,361.41Z" transform="translate(-130.85 -46.56)"/><path class="cls-3" d="M485,362.33,483.9,362v-.59l-1-21.25.63-.17,24.89-7.75.68.93-.35.48Zm-.45-21,.82,18,20.5-24.68Z" transform="translate(-130.85 -46.56)"/><path class="cls-5" d="M520.83,286.82,516.72,346h0l-32.94-5.27s0,0,0,0l37-53.91Z" transform="translate(-130.85 -46.56)"/><path class="cls-3" d="M516.71,346.81h-.13l-33.38-5.34-.34-.86.29-.36,37.34-54.35,1.12.35v.64l-4.16,59.92Zm-31.6-6.64L516,345.11l3.85-55.5Z" transform="translate(-130.85 -46.56)"/><rect class="cls-3" x="515.51" y="301.58" width="1.58" height="6.68" transform="translate(-10.01 709.08) rotate(-79.3)"/><rect class="cls-3" x="516.99" y="307.22" width="1.58" height="3.06" transform="translate(1.45 725.69) rotate(-81.06)"/><rect class="cls-3" x="493.47" y="342.4" width="1.57" height="7.33" transform="translate(-144.05 -26.9) rotate(-2.25)"/><rect class="cls-3" x="490.2" y="343.59" width="1.58" height="3.07" transform="translate(-144.53 -26.24) rotate(-2.34)"/><rect class="cls-3" x="490.43" y="348.1" width="1.58" height="5.26" transform="translate(-144.78 -26.18) rotate(-2.34)"/></svg>