<svg xmlns="http://www.w3.org/2000/svg" viewBox="0 0 391.81 246.46"><defs><style>.cls-1{isolation:isolate;}.cls-2{fill:#fff;}.cls-3{fill:#ffd200;}.cls-4,.cls-5{fill:#150035;}.cls-5{opacity:0.14;}.cls-6{fill:#ff6634;}.cls-7{fill:#311d3b;}.cls-11,.cls-8{fill:#ff916e;}.cls-8{opacity:0.29;mix-blend-mode:multiply;}.cls-9{fill:#e6e6e6;}.cls-10{fill:#d66b49;}.cls-12,.cls-14{fill:none;stroke-miterlimit:10;}.cls-12{stroke:#8a3a21;}.cls-13{fill:#9100d9;}.cls-14{stroke:#311d3b;}.cls-15{fill:#4d4d4d;}</style></defs><title>background-contato</title><g class="cls-1"><g id="Camada_1" data-name="Camada 1"><polygon class="cls-2" points="391.81 200.09 235.53 152.3 0 246.46 130.06 245.79 391.81 245.79 391.81 200.09"/><circle class="cls-2" cx="579.18" cy="198.09" r="23.67" transform="translate(20.97 569.34) rotate(-76.45)"/><polygon class="cls-2" points="326.82 60.27 318.62 71.62 337.53 67.17 326.82 60.27"/><path class="cls-3" d="M587.84,192.58H569.77a1.29,1.29,0,0,1-1.28-1.28h0a1.28,1.28,0,0,1,1.28-1.28h18.07a1.28,1.28,0,0,1,1.28,1.28h0A1.29,1.29,0,0,1,587.84,192.58Z" transform="translate(-229.94 -145.41)"/><path class="cls-3" d="M587.84,199.38H569.77a1.29,1.29,0,0,1-1.28-1.29h0a1.29,1.29,0,0,1,1.28-1.28h18.07a1.29,1.29,0,0,1,1.28,1.28h0A1.29,1.29,0,0,1,587.84,199.38Z" transform="translate(-229.94 -145.41)"/><path class="cls-3" d="M587.84,206.17H569.77a1.28,1.28,0,0,1-1.28-1.28h0a1.29,1.29,0,0,1,1.28-1.28h18.07a1.29,1.29,0,0,1,1.28,1.28h0A1.28,1.28,0,0,1,587.84,206.17Z" transform="translate(-229.94 -145.41)"/><rect class="cls-3" x="216.74" width="74.73" height="19.37" rx="9.69"/><polygon class="cls-3" points="262.53 19.37 277.13 33.97 277.13 17.86 262.53 19.37"/><path class="cls-2" d="M511.38,153.15H455.6a.87.87,0,0,1-.88-.88h0a.88.88,0,0,1,.88-.89h55.78a.89.89,0,0,1,.89.89h0A.88.88,0,0,1,511.38,153.15Z" transform="translate(-229.94 -145.41)"/><path class="cls-2" d="M511.38,158.22H455.6a.88.88,0,0,1-.88-.89h0a.87.87,0,0,1,.88-.88h55.78a.88.88,0,0,1,.89.88h0A.89.89,0,0,1,511.38,158.22Z" transform="translate(-229.94 -145.41)"/><rect class="cls-3" x="322.77" y="137.96" width="37.85" height="17.05" rx="8.52"/><polygon class="cls-3" points="322.77 146.48 322.77 128.55 332.57 143.44 322.77 146.48"/><path class="cls-2" d="M566.58,290.88a1,1,0,1,1-1-1A1,1,0,0,1,566.58,290.88Z" transform="translate(-229.94 -145.41)"/><path class="cls-2" d="M573.24,290.88a1,1,0,1,1-1-1A1,1,0,0,1,573.24,290.88Z" transform="translate(-229.94 -145.41)"/><path class="cls-2" d="M579.91,290.88a1,1,0,1,1-1-1A1,1,0,0,1,579.91,290.88Z" transform="translate(-229.94 -145.41)"/><polygon class="cls-4" points="244.9 207.03 182.36 185.99 165.55 148.66 228.09 169.71 244.9 207.03"/><polygon class="cls-4" points="228.53 170.57 165.99 148.66 168.64 147.55 230.68 169.28 228.53 170.57"/><polygon class="cls-4" points="230.74 169.3 246.28 205.52 244.9 207.03 228.09 169.71 230.74 169.3"/><polygon class="cls-4" points="244.9 207.03 275.46 195.12 275.47 192.8 244.9 204.77 244.9 207.03"/><polygon class="cls-4" points="275.47 192.8 245.8 204.42 234.97 179.17 275.47 192.8"/><polyline class="cls-5" points="274.6 195.46 274.6 196.88 204.05 225.52 147.16 199.92 182.36 185.99 244.9 207.03 275.46 195.12"/><path class="cls-6" d="M523.33,331l-12.14,4.18a.78.78,0,0,0-.53.73,1.29,1.29,0,0,0,1.58,1.23l12.2-4.21A2.76,2.76,0,0,0,523.33,331Z" transform="translate(-229.94 -145.41)"/><path class="cls-7" d="M526.35,330l-3,1a2.76,2.76,0,0,1,1.11,1.93l3-1a.76.76,0,0,0,.53-.73A1.28,1.28,0,0,0,526.35,330Z" transform="translate(-229.94 -145.41)"/><polygon class="cls-2" points="270.13 208.23 258.35 202.79 277.37 195.44 289.16 200.87 270.13 208.23"/><polygon class="cls-4" points="288.47 201.14 289.77 201.56 270.08 208.91 257.81 203.28 258.73 202.97 270.13 208.23 288.47 201.14"/><path class="cls-4" d="M527.4,331.94s.79.15.79.73l-15.83,5.24s-.89-.55-.12-.74C512.63,337.07,527.4,331.94,527.4,331.94Z" transform="translate(-229.94 -145.41)"/><polygon class="cls-3" points="199.66 134.93 188.05 136.51 188.05 124.2 199.66 122.62 199.66 134.93"/><polygon class="cls-4" points="188.05 124.2 188.05 136.51 198.36 135.1 198.36 136.02 186.71 137.9 188.05 124.2"/><path class="cls-2" d="M424.14,270.8a.32.32,0,1,1-.32-.31A.32.32,0,0,1,424.14,270.8Z" transform="translate(-229.94 -145.41)"/><polygon class="cls-2" points="219 134.25 207.4 135.83 207.4 123.52 219 121.94 219 134.25"/><polygon class="cls-4" points="207.4 123.52 206.68 137 217.96 135.03 217.96 134.39 207.64 135.83 207.4 123.52"/><circle class="cls-4" cx="213.55" cy="124.67" r="0.35"/><path class="cls-8" d="M470,319.94a6.89,6.89,0,0,0,3-3.38l0-.05a16.3,16.3,0,0,0-2.81.72A4.45,4.45,0,0,0,470,319.94Z" transform="translate(-229.94 -145.41)"/><path class="cls-9" d="M529.94,245.53l-23.89-5.37-14.86,16c-1.62,1.74-5.5,5.26-5.5,18.53s2.89,30.08,2.89,30.08l35.59,10.88Z" transform="translate(-229.94 -145.41)"/><ellipse class="cls-3" cx="261.25" cy="65.22" rx="6.79" ry="7.61"/><ellipse class="cls-6" cx="262.62" cy="65.22" rx="6.02" ry="7.37"/><path class="cls-10" d="M521.93,211.36v25l-24,24s9.17-11.55,9.59-20.17.6-10.57.6-10.57Z" transform="translate(-229.94 -145.41)"/><path class="cls-11" d="M271.22,47.71H281a11,11,0,0,1,11,11v9.6a15.88,15.88,0,0,1-15.88,15.88h0A15.88,15.88,0,0,1,260.23,68.3V58.7a11,11,0,0,1,11-11Z"/><circle class="cls-7" cx="268.02" cy="62.71" r="1.03"/><circle class="cls-7" cx="279.24" cy="62.71" r="1.03"/><polyline class="cls-12" points="271.91 55.29 272.88 72.12 274.41 72.12"/><path class="cls-7" d="M500,218.24c1.35,1.2,2.8,2.21,4.33,2.16a7.71,7.71,0,0,0,4.41-2.16,5.37,5.37,0,0,1-1.66,2.21,4.6,4.6,0,0,1-2.72,1.05,4.19,4.19,0,0,1-2.75-1A5.22,5.22,0,0,1,500,218.24Z" transform="translate(-229.94 -145.41)"/><ellipse class="cls-6" cx="279.24" cy="66.27" rx="1.03" ry="0.61"/><ellipse class="cls-6" cx="268.02" cy="66.27" rx="1.03" ry="0.61"/><path class="cls-13" d="M522.17,236.79l-.24-.44S522,236.5,522.17,236.79Z" transform="translate(-229.94 -145.41)"/><path class="cls-3" d="M541.56,304.85V265.62c0-8.79-3.24-12.92-10.65-19.25-5.77-4.93-8.07-8.41-8.74-9.58,1,1.88,4.67,9.46,2.39,13.69-2.62,4.86-8.22,10.28-10.9,23.48s1.74,25.48,1.74,25.48l-20.27,7.26a4.34,4.34,0,0,1,3.07,1.79,13.9,13.9,0,0,1,4.16,13.18c10.71-3,27.56-7.85,32.66-9.34C542.68,310.09,541.56,304.85,541.56,304.85Z" transform="translate(-229.94 -145.41)"/><path class="cls-2" d="M498.2,308.49a4.34,4.34,0,0,0-3.07-1.79l-9.44,3.39s2.43.18,6,3.73,1.5,10.47,1.5,10.47l9.19-2.62A13.9,13.9,0,0,0,498.2,308.49Z" transform="translate(-229.94 -145.41)"/><polygon class="cls-2" points="291.99 90.43 299.2 99.39 276.31 106.62 291.99 90.43"/><path class="cls-4" d="M494.34,195.5s2.78,7.28,13.51,8.79,12.67,0,14.08,2.8v28.76a27.9,27.9,0,0,0,8.67,11.45c6.36,4.92,8.45,7.38,9.2,9.24l.74,1.86s8.51,1.75,10.32-6.87-10.2-12.47-12.47-17.61,4.16-12.74,2.34-24.77-11.82-17.29-18.8-16c0,0-3.65-7.27-14.68-6.37S494.34,195.5,494.34,195.5Z" transform="translate(-229.94 -145.41)"/><path class="cls-7" d="M495.85,198s-5.14,4.79-5.68,8.59c0,0-1-7.71,4.17-11.05Z" transform="translate(-229.94 -145.41)"/><path class="cls-7" d="M498.57,202.75s-2-.74-3,.73A14,14,0,0,1,498.57,202.75Z" transform="translate(-229.94 -145.41)"/><path class="cls-3" d="M498,190.21s6.65-5.49,15.21,1.69,9.15,12.81,9.15,12.81l3.65.36s-2.55-16-16-18.39C510,186.68,502.2,185.82,498,190.21Z" transform="translate(-229.94 -145.41)"/><ellipse class="cls-3" cx="293.22" cy="65.22" rx="6.79" ry="7.61"/><ellipse class="cls-6" cx="294.58" cy="65.22" rx="6.02" ry="7.37"/><path class="cls-14" d="M522.7,218.22l-3.93,13.21a5.06,5.06,0,0,1-4.85,3.62h-8.53" transform="translate(-229.94 -145.41)"/><path class="cls-7" d="M505.15,236.35h-2.88a1.11,1.11,0,0,1-1.11-1.1h0a1.11,1.11,0,0,1,1.11-1.11h2.88a1.11,1.11,0,0,1,1.11,1.11h0A1.11,1.11,0,0,1,505.15,236.35Z" transform="translate(-229.94 -145.41)"/><path class="cls-2" d="M507.68,237.67s.39,5.91-1.63,9.56-5.13,8.94-5.13,8.94l1-15Z" transform="translate(-229.94 -145.41)"/><path class="cls-15" d="M485.69,310.09a8.47,8.47,0,0,1,6.76,4.69,12.34,12.34,0,0,1,.72,9.51s-5.85-.07-8.23-7.1S485.69,310.09,485.69,310.09Z" transform="translate(-229.94 -145.41)"/><path class="cls-11" d="M486.77,310.38s-5.54,2.24-8.68,1.38-4.92-1.54-7.2-.19-5.47,5.05-3.81,4.62,5.1-3.2,5.1-3.2-3,4.86-2.21,6.95a6.89,6.89,0,0,0,3-3.38l1-2.4s-.62,9.1.18,9.16,1.85-5.13,1.73-6.47l-.13-1.34s5.68,3.88,9.94,3.26a11.08,11.08,0,0,0,6.76-4A8.24,8.24,0,0,0,486.77,310.38Z" transform="translate(-229.94 -145.41)"/><path class="cls-6" d="M500.58,219s.83,1,3.19.94a14.26,14.26,0,0,0,4.37-.94S504.29,223,500.58,219Z" transform="translate(-229.94 -145.41)"/><polygon class="cls-15" points="307.16 166.14 307.16 174.2 293.69 170.08 307.16 166.14"/><path class="cls-3" d="M488.09,302.2l-2-17.72-16.66,6a4.27,4.27,0,0,1,3.08,1.79,13.9,13.9,0,0,1,4.16,13.17Z" transform="translate(-229.94 -145.41)"/><path class="cls-2" d="M472.52,292.24a4.27,4.27,0,0,0-3.08-1.79L460,293.83s2.43.19,6,3.74,1.5,10.46,1.5,10.46l9.19-2.62A13.9,13.9,0,0,0,472.52,292.24Z" transform="translate(-229.94 -145.41)"/><path class="cls-15" d="M460,293.83a8.44,8.44,0,0,1,6.75,4.69,12.37,12.37,0,0,1,.73,9.51s-5.86-.07-8.24-7.1S460,293.83,460,293.83Z" transform="translate(-229.94 -145.41)"/><path class="cls-11" d="M461.09,294.12s-5.55,2.24-8.68,1.38-4.92-1.54-7.2-.18-5.47,5-3.81,4.61,5.1-3.2,5.1-3.2-3,4.86-2.21,6.95a6.83,6.83,0,0,0,3-3.38l1-2.4s-.62,9.1.18,9.16,1.84-5.13,1.72-6.47l-.12-1.34s5.68,3.88,9.94,3.26a11,11,0,0,0,6.75-4A8.21,8.21,0,0,0,461.09,294.12Z" transform="translate(-229.94 -145.41)"/><path class="cls-8" d="M539.16,255.34a7.12,7.12,0,0,1,.64,1.2l.06.17A14.72,14.72,0,0,0,539.16,255.34Z" transform="translate(-229.94 -145.41)"/><path class="cls-8" d="M473.84,316.4c-.12,2.7-.23,6.88.31,6.92.8.06,1.85-5.13,1.73-6.47l-.05-.53A16.31,16.31,0,0,0,473.84,316.4Z" transform="translate(-229.94 -145.41)"/></g></g></svg>