<svg xmlns="http://www.w3.org/2000/svg" width="375" height="390"><defs><clipPath id="prefix__clip-path"><path id="prefix__Retângulo_4863" d="M0 0h375v390H0z" data-name="Retângulo 4863" transform="translate(213.5 232.966)" stroke="#707070" opacity=".45" fill="#fff"/></clipPath><style>.prefix__cls-6{fill:#fff}.prefix__cls-3{fill:#f9df00}.prefix__cls-4{fill:#565655}.prefix__cls-5{fill:#e3b80b}.prefix__cls-7{fill:#dbdbdb}.prefix__cls-9{fill:#555752}</style></defs><g id="prefix__ilustra-home-01" transform="translate(-213.5 -232.966)"><g id="prefix__Grupo_4545" data-name="Grupo 4545" transform="translate(216.677 239.178)"><g id="prefix__Grupo_4415" data-name="Grupo 4415" transform="translate(90.646 150.159)"><path id="prefix__Retângulo_4850" d="M0 0h187.344v164.396H0z" class="prefix__cls-3" data-name="Retângulo 4850" transform="translate(2.181 2.181)"/><path id="prefix__Caminho_6327" d="M581.789 2568.524H390.084v-168.757h191.705zm-187.344-4.361h182.983v-160.035H394.445z" class="prefix__cls-4" data-name="Caminho 6327" transform="translate(-390.084 -2399.767)"/></g><g id="prefix__Grupo_4416" data-name="Grupo 4416" transform="translate(92.827 150.548)"><path id="prefix__Caminho_6328" d="M571.249 2487.926l-21.749-14.493-127.68-.346-26.634 24.451 4.083-94.522 171.982.792v84.119" class="prefix__cls-5" data-name="Caminho 6328" transform="translate(-395.184 -2403.015)"/></g><g id="prefix__Grupo_4444" data-name="Grupo 4444" transform="translate(294.704 136.735)"><g id="prefix__Grupo_4430" data-name="Grupo 4430" transform="translate(40.302 53.13)"><g id="prefix__Grupo_4417" data-name="Grupo 4417"><path id="prefix__Caminho_6329" d="M971.674 2584.713a7.245 7.245 0 01-.855-.4 8.4 8.4 0 01-2.53-2.215 9.261 9.261 0 01-.982-1.548 5.484 5.484 0 01-.383-1.584 59.279 59.279 0 01-1.077-9.162c-.189-5.617.206-11.262.114-16.893-.135-8.338-1.328-16.355-1.848-24.606s-.233-17.509 2.121-23.647c2.238-5.834 5.811-7.462 9.115-7.367 3.935.112 7.968 2.336 11.128 7.967 3.615 6.441 5.773 16.882 6.41 27.581a152.678 152.678 0 01-1.3 30.307c-1.206 8.048-4.625 13.008-7.57 16.917a13.278 13.278 0 01-6.1 4.7 12.244 12.244 0 01-3.2.421 6.869 6.869 0 01-3.043-.471z" class="prefix__cls-6" data-name="Caminho 6329" transform="translate(-962.9 -2496.293)"/><path id="prefix__Caminho_6330" d="M972.882 2584.86a7.949 7.949 0 01-2.9-.552 8.114 8.114 0 01-.973-.46 9.446 9.446 0 01-2.831-2.474 10.327 10.327 0 01-1.086-1.714 4.516 4.516 0 01-.4-1.437c-.02-.128-.039-.261-.066-.4a59.582 59.582 0 01-1.095-9.313c-.1-3.093-.032-6.232.038-9.268.057-2.509.117-5.1.076-7.643-.083-5.048-.565-10.083-1.032-14.952-.3-3.134-.612-6.375-.815-9.607-.454-7.2-.443-17.215 2.185-24.065 2.6-6.777 6.9-8.1 10.066-8 3.342.1 8.13 1.643 11.963 8.472 3.46 6.165 5.842 16.373 6.535 28.006a153.7 153.7 0 01-1.31 30.512c-1.22 8.143-4.644 13.233-7.758 17.366a14.247 14.247 0 01-6.566 5.037 9.721 9.721 0 01-2.77.431c-.227.012-.454.025-.682.042a9.33 9.33 0 01-.579.019zm.868-87.914c-3.542 0-6.206 2.265-7.921 6.736-1.95 5.085-2.681 13.335-2.057 23.231.2 3.2.511 6.425.809 9.543.471 4.908.957 9.983 1.041 15.109.042 2.578-.018 5.192-.076 7.72-.069 3.008-.141 6.119-.039 9.156a57.694 57.694 0 001.061 9.01c.032.168.056.325.079.477a2.69 2.69 0 00.218.852 8.407 8.407 0 00.878 1.382 7.463 7.463 0 002.228 1.955 6.049 6.049 0 00.737.348 5.911 5.911 0 002.6.4c.242-.018.484-.032.724-.045a8.039 8.039 0 002.226-.324 12.285 12.285 0 005.636-4.358c2.968-3.939 6.23-8.784 7.382-16.469a151.638 151.638 0 001.291-30.1c-.676-11.344-2.966-21.242-6.285-27.156-2.675-4.766-6.235-7.346-10.294-7.462a6.158 6.158 0 00-.238-.004z" class="prefix__cls-7" data-name="Caminho 6330" transform="translate(-961.572 -2494.968)"/></g><g id="prefix__Grupo_4420" data-name="Grupo 4420" transform="translate(13.035 29.494)"><g id="prefix__Grupo_4418" data-name="Grupo 4418" transform="translate(.12)"><path id="prefix__Caminho_6331" d="M992.337 2563.945c2.189 24.016 2.058 38.961 2.058 75.744" class="prefix__cls-6" data-name="Caminho 6331" transform="translate(-992.337 -2563.945)"/></g><g id="prefix__Grupo_4419" data-name="Grupo 4419"><path id="prefix__Caminho_6332" d="M992.177 2563.945c.984 6.253 1.616 12.552 2.093 18.864s.829 12.637 1.084 18.96c.513 12.649.789 25.288 1.058 37.92h-4.354l.429-18.948c.158-6.314.3-12.626.38-18.935s.071-12.615-.079-18.922z" class="prefix__cls-7" data-name="Caminho 6332" transform="translate(-992.057 -2563.945)"/></g></g><g id="prefix__Grupo_4423" data-name="Grupo 4423" transform="translate(13.915 39.235)"><g id="prefix__Grupo_4421" data-name="Grupo 4421" transform="translate(.888)"><path id="prefix__Caminho_6333" d="M1000.3 2586.727a39.171 39.171 0 01-4.11 16.107" class="prefix__cls-6" data-name="Caminho 6333" transform="translate(-996.191 -2586.727)"/></g><g id="prefix__Grupo_4422" data-name="Grupo 4422"><path id="prefix__Caminho_6334" d="M999.112 2586.727a48.443 48.443 0 01-.728 8.391 36.153 36.153 0 01-1.01 4.142 42.717 42.717 0 01-1.483 4.011l-1.776-.874a36.016 36.016 0 003.308-7.515 47.931 47.931 0 001.689-8.155z" class="prefix__cls-7" data-name="Caminho 6334" transform="translate(-994.114 -2586.727)"/></g></g><g id="prefix__Grupo_4426" data-name="Grupo 4426" transform="translate(14.768 62.186)"><g id="prefix__Grupo_4424" data-name="Grupo 4424" transform="translate(.844)"><path id="prefix__Caminho_6335" d="M1003.2 2640.4a33.386 33.386 0 01-5.116 16.107" class="prefix__cls-6" data-name="Caminho 6335" transform="translate(-998.084 -2640.404)"/></g><g id="prefix__Grupo_4425" data-name="Grupo 4425"><path id="prefix__Caminho_6336" d="M1002.07 2640.4a39.641 39.641 0 01-1.065 8.527 31.274 31.274 0 01-1.334 4.151 39.937 39.937 0 01-1.874 3.946l-1.688-1.034a31.825 31.825 0 003.95-7.354 39.143 39.143 0 002.011-8.236z" class="prefix__cls-7" data-name="Caminho 6336" transform="translate(-996.11 -2640.404)"/></g></g><g id="prefix__Grupo_4429" data-name="Grupo 4429" transform="translate(9.175 51.777)"><g id="prefix__Grupo_4427" data-name="Grupo 4427"><path id="prefix__Caminho_6337" d="M983.03 2616.06c.777 6.2 2.649 12.055 5.628 15.382" class="prefix__cls-6" data-name="Caminho 6337" transform="translate(-983.03 -2616.06)"/></g><g id="prefix__Grupo_4428" data-name="Grupo 4428"><path id="prefix__Caminho_6338" d="M983.03 2616.06a43.587 43.587 0 002.234 7.944 20.108 20.108 0 004.13 6.779l-1.475 1.32a21.511 21.511 0 01-3.6-7.789 44.042 44.042 0 01-1.289-8.254z" class="prefix__cls-7" data-name="Caminho 6338" transform="translate(-983.03 -2616.06)"/></g></g></g><g id="prefix__Grupo_4431" data-name="Grupo 4431"><path id="prefix__Caminho_6339" d="M869.868 2475.586c.239-4.414.6-8.918.722-13.458q.8-30 1.594-59.99c.145-5.432.3-10.955 1.938-16.117s4.987-10.006 9.84-12.029c7.473-3.116 16.409 1.6 20.462 8.833s4.137 16.173 2.773 24.421-4.048 16.227-5.175 24.513c-2.612 19.2 7.945 35.729 6.143 54.619-1.268 13.3-14.731 34.381-29.22 23.186-9.445-9.816-9.745-21.541-9.077-33.978z" class="prefix__cls-6" data-name="Caminho 6339" transform="translate(-868.651 -2372.031)"/><path id="prefix__Caminho_6340" d="M886.016 2512.392a14.676 14.676 0 01-9.009-3.364l-.108-.1c-9.82-10.206-10.028-22.245-9.352-34.718.078-1.439.169-2.888.26-4.345.186-2.97.379-6.041.461-9.085l1.594-59.99c.144-5.432.293-11.051 1.984-16.388 1.926-6.082 5.718-10.691 10.4-12.644 8.269-3.45 17.705 2.123 21.706 9.262 3.6 6.43 4.574 14.863 2.886 25.067-.632 3.823-1.556 7.634-2.45 11.319a131.989 131.989 0 00-2.721 13.165c-1.324 9.733.853 18.991 2.958 27.944 2 8.525 4.077 17.34 3.19 26.636-.911 9.55-7.742 22.313-16.46 26.092a13.372 13.372 0 01-5.339 1.149zm-7.741-4.886c4.009 3.074 8.146 3.721 12.3 1.923 6.521-2.826 14.216-13.33 15.277-24.463.856-8.972-1.179-17.626-3.147-25.995-2.146-9.129-4.366-18.569-2.992-28.664a133.343 133.343 0 012.758-13.365c.885-3.65 1.8-7.425 2.421-11.176 1.613-9.749.718-17.749-2.66-23.776-3.587-6.4-11.957-11.434-19.218-8.4-4.146 1.729-7.527 5.889-9.277 11.415-1.606 5.072-1.752 10.548-1.893 15.844l-1.594 59.99c-.081 3.08-.276 6.169-.463 9.156-.091 1.451-.182 2.895-.26 4.329-.653 11.993-.471 23.56 8.748 33.182z" class="prefix__cls-7" data-name="Caminho 6340" transform="translate(-867.318 -2370.711)"/></g><g id="prefix__Grupo_4434" data-name="Grupo 4434" transform="translate(16.634 29.933)"><g id="prefix__Grupo_4432" data-name="Grupo 4432" transform="translate(1.19)"><path id="prefix__Caminho_6341" d="M912.375 2440.716c-2.2 24.4-4.4 48.929-2.858 73.386 1.078 17.134 1.171 37.348 2.02 56.916" class="prefix__cls-6" data-name="Caminho 6341" transform="translate(-909.003 -2440.716)"/></g><g id="prefix__Grupo_4433" data-name="Grupo 4433"><path id="prefix__Caminho_6342" d="M910.782 2440.716c-.5 10.872-1.258 21.718-1.72 32.565-.489 10.844-.69 21.7-.231 32.509l.2 4.052.266 4.047q.3 4.077.515 8.162a970.16 970.16 0 01.719 16.32c.424 10.872.664 21.736 1.2 32.57l-3.565.155c-.405-10.891-.638-21.77-.833-32.634a957.629 957.629 0 00-.438-16.277l-.354-8.123-.171-4.1-.1-4.1c-.187-10.925.233-21.832 1.046-32.692q1.26-16.283 3.466-32.454z" class="prefix__cls-7" data-name="Caminho 6342" transform="translate(-906.219 -2440.716)"/></g></g><g id="prefix__Grupo_4437" data-name="Grupo 4437" transform="translate(17.564 64.99)"><g id="prefix__Grupo_4435" data-name="Grupo 4435" transform="translate(.948)"><path id="prefix__Caminho_6343" d="M921.25 2522.7c-3.019 12.912-7.62 28.343-10.639 41.254" class="prefix__cls-6" data-name="Caminho 6343" transform="translate(-910.611 -2522.704)"/></g><g id="prefix__Grupo_4436" data-name="Grupo 4436"><path id="prefix__Caminho_6344" d="M919.981 2522.7c-2.943 13.9-6.759 27.619-9.691 41.476l-1.9-.443c3.59-13.79 8.017-27.277 11.591-41.033z" class="prefix__cls-7" data-name="Caminho 6344" transform="translate(-908.395 -2522.704)"/></g></g><g id="prefix__Grupo_4440" data-name="Grupo 4440" transform="translate(9.688 71.997)"><g id="prefix__Grupo_4438" data-name="Grupo 4438" transform="translate(.015)"><path id="prefix__Caminho_6345" d="M890.01 2539.092c0 23.056 5.739 42.954 8.757 55.866" class="prefix__cls-6" data-name="Caminho 6345" transform="translate(-890.01 -2539.092)"/></g><g id="prefix__Grupo_4439" data-name="Grupo 4439"><path id="prefix__Caminho_6346" d="M889.99 2539.093a166.687 166.687 0 003.079 28.113c.889 4.631 1.937 9.229 3.079 13.8s2.378 9.131 3.546 13.726l-1.895.443c-1-4.6-2.089-9.21-3.074-13.84s-1.883-9.286-2.616-13.966a167.223 167.223 0 01-2.119-28.276z" class="prefix__cls-7" data-name="Caminho 6346" transform="translate(-889.975 -2539.093)"/></g></g><g id="prefix__Grupo_4443" data-name="Grupo 4443" transform="translate(9.703 33.351)"><g id="prefix__Grupo_4441" data-name="Grupo 4441"><path id="prefix__Caminho_6347" d="M890.01 2448.71a143.469 143.469 0 009.344 25.525" class="prefix__cls-6" data-name="Caminho 6347" transform="translate(-890.01 -2448.71)"/></g><g id="prefix__Grupo_4442" data-name="Grupo 4442"><path id="prefix__Caminho_6348" d="M890.01 2448.71a143.11 143.11 0 009.929 25.245l-1.171.56a143.8 143.8 0 01-8.758-25.805z" class="prefix__cls-7" data-name="Caminho 6348" transform="translate(-890.01 -2448.71)"/></g></g></g><g id="prefix__Grupo_4458" data-name="Grupo 4458" transform="translate(0 178.99)"><g id="prefix__Grupo_4445" data-name="Grupo 4445"><path id="prefix__Caminho_6349" d="M209.03 2548.047c-.178-3.281-.447-6.63-.537-10.006l-1.185-44.6c-.107-4.039-.225-8.146-1.441-11.984s-3.708-7.439-7.316-8.944c-5.556-2.318-12.2 1.19-15.214 6.567s-3.076 12.026-2.062 18.158 3.009 12.065 3.848 18.227c1.942 14.272-5.908 26.565-4.568 40.611.943 9.888 10.953 25.563 21.726 17.24 7.019-7.303 7.25-16.016 6.749-25.269z" class="prefix__cls-6" data-name="Caminho 6349" transform="translate(-179.412 -2470.82)"/><path id="prefix__Caminho_6350" d="M194.712 2575.364a10.2 10.2 0 01-4.076-.876c-6.564-2.845-11.706-12.436-12.39-19.609-.663-6.953.883-13.528 2.378-19.886 1.559-6.635 3.173-13.5 2.194-20.686a97.936 97.936 0 00-2.018-9.763c-.666-2.744-1.354-5.582-1.825-8.434-1.265-7.645-.533-13.972 2.175-18.8 3.941-7.032 11.464-9.08 16.459-7 3.552 1.481 6.424 4.966 7.879 9.559 1.268 4 1.379 8.2 1.487 12.256l1.185 44.6c.061 2.263.2 4.547.342 6.757.068 1.08.136 2.154.193 3.222.505 9.331.348 18.342-7.024 26l-.108.1a11.159 11.159 0 01-6.851 2.56zm-1.168-103.883c-4.315 0-8.589 3.083-10.668 6.792-2.483 4.43-3.138 10.322-1.949 17.513.46 2.78 1.139 5.581 1.8 8.291a99.154 99.154 0 012.055 9.963c1.028 7.553-.628 14.6-2.229 21.406-1.458 6.2-2.966 12.616-2.334 19.246.781 8.189 6.425 15.908 11.207 17.981 2.988 1.3 5.973.829 8.872-1.386 6.771-7.079 6.9-15.615 6.424-24.471a373.724 373.724 0 00-.193-3.206c-.14-2.227-.284-4.529-.345-6.828l-1.185-44.6c-.1-3.921-.212-7.975-1.4-11.711-1.278-4.036-3.74-7.073-6.754-8.33a8.53 8.53 0 00-3.3-.661z" class="prefix__cls-7" data-name="Caminho 6350" transform="translate(-178.088 -2469.533)"/></g><g id="prefix__Grupo_4448" data-name="Grupo 4448" transform="translate(14.061 22.485)"><g id="prefix__Grupo_4446" data-name="Grupo 4446" transform="translate(.703)"><path id="prefix__Caminho_6351" d="M212.616 2522.12c1.634 18.145 3.27 36.381 2.125 54.565-.8 12.74-.871 27.77-1.5 42.32" class="prefix__cls-6" data-name="Caminho 6351" transform="translate(-212.616 -2522.12)"/></g><g id="prefix__Grupo_4447" data-name="Grupo 4447"><path id="prefix__Caminho_6352" d="M211.675 2522.12q1.621 12.028 2.582 24.135c.6 8.075.917 16.186.778 24.308a233.578 233.578 0 01-.2 6.091l-.263 6.04a716.505 716.505 0 00-.325 12.1c-.145 8.078-.319 16.166-.62 24.264l-2.651-.115c.4-8.056.574-16.133.89-24.217.15-4.043.316-8.088.534-12.134q.16-3.034.383-6.069c.139-2.005.264-4.012.346-6.022.341-8.041.192-16.109-.172-24.172-.346-8.06-.912-16.129-1.282-24.209z" class="prefix__cls-7" data-name="Caminho 6352" transform="translate(-210.972 -2522.12)"/></g></g><g id="prefix__Grupo_4451" data-name="Grupo 4451" transform="translate(8.85 48.552)"><g id="prefix__Grupo_4449" data-name="Grupo 4449"><path id="prefix__Caminho_6353" d="M198.785 2583.082c2.244 9.6 5.665 21.074 7.91 30.674" class="prefix__cls-6" data-name="Caminho 6353" transform="translate(-198.785 -2583.082)"/></g><g id="prefix__Grupo_4450" data-name="Grupo 4450"><path id="prefix__Caminho_6354" d="M198.785 2583.082c2.657 10.225 5.949 20.253 8.615 30.51l-1.409.329c-2.181-10.303-5.018-20.505-7.206-30.839z" class="prefix__cls-7" data-name="Caminho 6354" transform="translate(-198.785 -2583.082)"/></g></g><g id="prefix__Grupo_4454" data-name="Grupo 4454" transform="translate(16.093 53.762)"><g id="prefix__Grupo_4452" data-name="Grupo 4452" transform="translate(.705)"><path id="prefix__Caminho_6355" d="M223.886 2595.267c0 17.143-4.267 31.938-6.512 41.539" class="prefix__cls-6" data-name="Caminho 6355" transform="translate(-217.374 -2595.267)"/></g><g id="prefix__Grupo_4453" data-name="Grupo 4453"><path id="prefix__Caminho_6356" d="M222.942 2595.267a124.309 124.309 0 01-1.577 21.028c-.545 3.48-1.21 6.941-1.945 10.385l-2.285 10.291-1.409-.329 2.637-10.206c.85-3.4 1.629-6.821 2.29-10.264a123.936 123.936 0 002.289-20.905z" class="prefix__cls-7" data-name="Caminho 6356" transform="translate(-215.726 -2595.267)"/></g></g><g id="prefix__Grupo_4457" data-name="Grupo 4457" transform="translate(15.927 25.027)"><g id="prefix__Grupo_4455" data-name="Grupo 4455" transform="translate(.435)"><path id="prefix__Caminho_6357" d="M223.3 2528.064a106.707 106.707 0 01-6.947 18.979" class="prefix__cls-6" data-name="Caminho 6357" transform="translate(-216.355 -2528.064)"/></g><g id="prefix__Grupo_4456" data-name="Grupo 4456"><path id="prefix__Caminho_6358" d="M222.719 2528.064a106.893 106.893 0 01-6.512 19.187l-.87-.417a106.407 106.407 0 007.382-18.77z" class="prefix__cls-7" data-name="Caminho 6358" transform="translate(-215.337 -2528.064)"/></g></g></g><g id="prefix__Grupo_4473" data-name="Grupo 4473" transform="translate(32.523 135.87)"><g id="prefix__Grupo_4472" data-name="Grupo 4472"><g id="prefix__Grupo_4459" data-name="Grupo 4459"><path id="prefix__Caminho_6359" d="M285.223 2488.181a9.6 9.6 0 001.146-.542 11.265 11.265 0 003.391-2.968 12.469 12.469 0 001.316-2.075 7.344 7.344 0 00.513-2.122 79.413 79.413 0 001.444-12.28c.253-7.529-.276-15.094-.154-22.641.182-11.174 1.78-21.919 2.477-32.977s.313-23.467-2.843-31.694c-3-7.819-7.788-10-12.216-9.874-5.274.15-10.679 3.132-14.914 10.678-4.845 8.633-7.737 22.627-8.591 36.965a204.578 204.578 0 001.744 40.618c1.617 10.786 6.2 17.434 10.145 22.673a17.8 17.8 0 008.177 6.3 16.371 16.371 0 004.29.564 9.2 9.2 0 004.075-.625z" class="prefix__cls-6" data-name="Caminho 6359" transform="translate(-255.474 -2370.013)"/><path id="prefix__Caminho_6360" d="M280.5 2488.493q-.376 0-.751-.028c-.309-.023-.616-.04-.922-.057a12.753 12.753 0 01-3.618-.56 18.77 18.77 0 01-8.642-6.635c-4.148-5.506-8.709-12.287-10.333-23.122a205.585 205.585 0 01-1.753-40.824c.926-15.542 4.1-29.171 8.716-37.392 5.06-9.015 11.357-11.057 15.748-11.182 4.132-.123 9.754 1.61 13.168 10.509 3.5 9.124 3.512 22.5 2.906 32.111-.272 4.327-.689 8.667-1.091 12.865-.626 6.532-1.274 13.287-1.385 20.066-.055 3.412.025 6.894.1 10.261.093 4.062.19 8.263.051 12.4a79.467 79.467 0 01-1.462 12.431c-.037.195-.064.378-.091.553a5.711 5.711 0 01-.507 1.825 13.513 13.513 0 01-1.42 2.24 12.323 12.323 0 01-3.692 3.228 10.573 10.573 0 01-1.264.6 10.31 10.31 0 01-3.758.711zm-1.162-117.825h-.336c-5.565.159-10.433 3.676-14.079 10.173-4.472 7.968-7.558 21.287-8.466 36.54a203.584 203.584 0 001.734 40.413c1.556 10.377 5.955 16.913 9.958 22.224a16.8 16.8 0 007.711 5.957 11.056 11.056 0 003.076.452c.32.018.642.036.965.06a8.266 8.266 0 003.637-.555 8.649 8.649 0 001.027-.486 10.325 10.325 0 003.09-2.71 11.526 11.526 0 001.212-1.909 3.887 3.887 0 00.322-1.24c.031-.2.062-.407.1-.628a77.675 77.675 0 001.427-12.127c.137-4.078.041-8.25-.052-12.285-.078-3.387-.158-6.888-.1-10.339.112-6.857.763-13.652 1.393-20.222.4-4.182.815-8.506 1.086-12.8.839-13.311-.148-24.418-2.779-31.278-2.353-6.132-6.028-9.24-10.926-9.24z" class="prefix__cls-7" data-name="Caminho 6360" transform="translate(-254.15 -2368.688)"/></g><g id="prefix__Grupo_4462" data-name="Grupo 4462" transform="translate(19.338 39.192)"><g id="prefix__Grupo_4460" data-name="Grupo 4460" transform="translate(1.779)"><path id="prefix__Caminho_6361" d="M306.3 2460.347c-2.934 32.187-2.757 52.217-2.757 101.516" class="prefix__cls-6" data-name="Caminho 6361" transform="translate(-303.537 -2460.347)"/></g><g id="prefix__Grupo_4461" data-name="Grupo 4461"><path id="prefix__Caminho_6362" d="M303.915 2460.347c-.433 8.462-.914 16.909-1.2 25.363s-.389 16.91-.369 25.37.123 16.921.248 25.385l.349 25.4h-3.563c.225-16.931.422-33.868.93-50.812.254-8.471.627-16.944 1.19-25.4s1.31-16.905 2.415-25.306z" class="prefix__cls-7" data-name="Caminho 6362" transform="translate(-299.376 -2460.347)"/></g></g><g id="prefix__Grupo_4465" data-name="Grupo 4465" transform="translate(16.161 52.247)"><g id="prefix__Grupo_4463" data-name="Grupo 4463"><path id="prefix__Caminho_6363" d="M291.945 2490.88c.7 10.794 3.156 16.81 5.508 21.588" class="prefix__cls-6" data-name="Caminho 6363" transform="translate(-291.945 -2490.88)"/></g><g id="prefix__Grupo_4464" data-name="Grupo 4464"><path id="prefix__Caminho_6364" d="M291.945 2490.88a64.364 64.364 0 002.1 10.971 46.927 46.927 0 001.856 5.219 55.067 55.067 0 002.439 4.961l-1.776.874a56.786 56.786 0 01-2.054-5.315 48.182 48.182 0 01-1.427-5.5 64.864 64.864 0 01-1.138-11.21z" class="prefix__cls-7" data-name="Caminho 6364" transform="translate(-291.945 -2490.88)"/></g></g><g id="prefix__Grupo_4468" data-name="Grupo 4468" transform="translate(13.727 83.008)"><g id="prefix__Grupo_4466" data-name="Grupo 4466"><path id="prefix__Caminho_6365" d="M286.253 2562.82c.877 10.794 3.93 16.81 6.856 21.588" class="prefix__cls-6" data-name="Caminho 6365" transform="translate(-286.253 -2562.82)"/></g><g id="prefix__Grupo_4467" data-name="Grupo 4467"><path id="prefix__Caminho_6366" d="M286.253 2562.821a52.582 52.582 0 002.533 11.088 40.426 40.426 0 002.253 5.166 51.478 51.478 0 002.914 4.817l-1.688 1.034a53.208 53.208 0 01-2.57-5.22 41.713 41.713 0 01-1.855-5.505 53.086 53.086 0 01-1.587-11.38z" class="prefix__cls-7" data-name="Caminho 6366" transform="translate(-286.253 -2562.821)"/></g></g><g id="prefix__Grupo_4471" data-name="Grupo 4471" transform="translate(20.931 69.058)"><g id="prefix__Grupo_4469" data-name="Grupo 4469" transform="translate(.737)"><path id="prefix__Caminho_6367" d="M312.368 2530.194c-1.042 8.308-3.551 16.157-7.542 20.616" class="prefix__cls-6" data-name="Caminho 6367" transform="translate(-304.826 -2530.194)"/></g><g id="prefix__Grupo_4470" data-name="Grupo 4470"><path id="prefix__Caminho_6368" d="M311.381 2530.194a59.08 59.08 0 01-1.895 11.008 36.8 36.8 0 01-1.917 5.324 22.965 22.965 0 01-2.993 4.944l-1.475-1.32a21.243 21.243 0 003.145-4.3 35.583 35.583 0 002.3-4.958 58.558 58.558 0 002.835-10.698z" class="prefix__cls-7" data-name="Caminho 6368" transform="translate(-303.102 -2530.194)"/></g></g></g></g><g id="prefix__Grupo_4474" data-name="Grupo 4474" transform="translate(84.395 300.155)"><path id="prefix__Caminho_6369" d="M546.151 2752.9l29.233 15.581H375.465L404.7 2752.9" class="prefix__cls-5" data-name="Caminho 6369" transform="translate(-375.465 -2752.904)"/></g><g id="prefix__Grupo_4475" data-name="Grupo 4475" transform="translate(112.479 302.428)"><rect id="prefix__Retângulo_4851" width="147.385" height="10.576" class="prefix__cls-4" data-name="Retângulo 4851" rx="5.288"/></g><g id="prefix__Grupo_4477" data-name="Grupo 4477" transform="translate(300.023 278.572)"><g id="prefix__Grupo_4476" data-name="Grupo 4476"><path id="prefix__Retângulo_4852" d="M0 0h1.275v2.19H0z" class="prefix__cls-6" data-name="Retângulo 4852" transform="translate(.198 .198)"/><path id="prefix__Caminho_6370" d="M881.427 2705.013h-1.67v-2.586h1.67zm-1.275-.4h.879v-1.795h-.879z" data-name="Caminho 6370" transform="translate(-879.757 -2702.427)"/></g></g><g id="prefix__Grupo_4478" data-name="Grupo 4478" transform="translate(29.958 66.21)"><circle id="prefix__Elipse_251" cx="19.579" cy="19.579" r="19.579" class="prefix__cls-3" data-name="Elipse 251"/></g><g id="prefix__Grupo_4479" data-name="Grupo 4479" transform="translate(247.549 81.337)"><path id="prefix__Caminho_6371" d="M788.389 2265.875h-23.7c-1.532 0-3.221-.057-4.351-1.093-1.8-1.649-.946-4.881 1.032-6.312 2.944-2.128 6.836-.808 9.741-2.907 2.556-1.847 3.475-5.363 5.349-7.785 6.8-8.79 23.485-2 31.422 1.2 4.732 1.907 9.6 3.8 14.7 4.4 7.976.942 16.469-5.641 22.849 1.63 1.57 1.789 2.454 4.382 1.593 6.6a6.653 6.653 0 01-4.357 3.667 19.693 19.693 0 01-5.841.587z" class="prefix__cls-6" data-name="Caminho 6371" transform="translate(-758.36 -2242.468)"/><path id="prefix__Caminho_6372" d="M763.352 2265.552c-1.79 0-3.649-.106-5.009-1.353a4.191 4.191 0 01-1.3-3.414 6.106 6.106 0 012.419-4.429 10.69 10.69 0 015.368-1.647 8.965 8.965 0 004.374-1.26 12.235 12.235 0 003.2-4.38 22.526 22.526 0 011.947-3.209c7.219-9.335 24.256-2.467 32.443.833l.132.053c5.046 2.033 9.616 3.763 14.447 4.333a26.066 26.066 0 008.279-.876c5.264-1.121 10.708-2.281 15.2 2.836a7.66 7.66 0 011.771 7.612 7.547 7.547 0 01-4.987 4.255 20.742 20.742 0 01-6.134.631l-72.138.015zm22.22-22.432c-3.915 0-7.408 1.045-9.655 3.95a20.77 20.77 0 00-1.767 2.93 13.852 13.852 0 01-3.786 5.052 10.586 10.586 0 01-5.3 1.622 9.045 9.045 0 00-4.437 1.286 4.107 4.107 0 00-1.6 2.939 2.257 2.257 0 00.66 1.841c.837.768 2.214.833 3.671.833h.011l72.138-.015a18.949 18.949 0 005.549-.542 4.966 4.966 0 002.313-8.671c-3.726-4.246-8.161-3.3-13.3-2.206a27.6 27.6 0 01-8.923.906c-5.075-.6-9.775-2.376-14.955-4.464l-.132-.053c-4.983-2.006-13.423-5.408-20.487-5.408z" class="prefix__cls-7" data-name="Caminho 6372" transform="translate(-757.036 -2241.15)"/></g><g id="prefix__Grupo_4480" data-name="Grupo 4480" transform="translate(77.054)"><path id="prefix__Caminho_6373" d="M438.453 2073.5c3.528-2.966 3.766-9.836-.567-11.408-4.427-1.605-8.341 3.244-12.741 4.923-4.16 1.588-8.909.195-12.734-2.084s-7.1-5.4-10.913-7.691c-9.013-5.414-20.855-5.147-30.024-.242-12.014 6.427-16.53 18.594-.589 22.8 8.947 2.359 17.444-2 26.314-2.881 11.247-1.117 31.995 4.363 41.254-3.417z" class="prefix__cls-6" data-name="Caminho 6373" transform="translate(-359.62 -2052.254)"/><path id="prefix__Caminho_6374" d="M375.093 2080.141a22.518 22.518 0 01-5.786-.721c-8.406-2.217-10.6-6.323-10.956-9.378-.616-5.252 3.832-11.237 11.33-15.248 9.819-5.253 21.987-5.148 31 .265a60.979 60.979 0 015.5 3.879 58.659 58.659 0 005.41 3.81c2.5 1.489 7.363 3.729 11.875 2.01a23.42 23.42 0 004.163-2.333c2.89-1.88 5.88-3.824 9.268-2.595a5.945 5.945 0 013.757 4.766 9.212 9.212 0 01-2.89 8.329c-6.582 5.533-18.4 4.7-28.83 3.958a84.423 84.423 0 00-12.963-.317 68.306 68.306 0 00-8.914 1.7 52.087 52.087 0 01-11.964 1.875zm10.113-27.242a31.057 31.057 0 00-14.59 3.64c-6.672 3.569-10.81 8.9-10.3 13.273.411 3.5 3.694 6.165 9.495 7.695 5.633 1.484 11.051.2 16.788-1.163a69.667 69.667 0 019.176-1.747 85.651 85.651 0 0113.3.312c10.054.712 21.449 1.519 27.417-3.5a7.146 7.146 0 002.215-6.468 4.044 4.044 0 00-2.483-3.252c-2.462-.895-4.916.7-7.514 2.394a24.849 24.849 0 01-4.537 2.524c-5.286 2.018-10.785-.487-13.593-2.159a60.078 60.078 0 01-5.6-3.937 59.666 59.666 0 00-5.319-3.756 28.1 28.1 0 00-14.455-3.855z" class="prefix__cls-7" data-name="Caminho 6374" transform="translate(-358.296 -2050.926)"/></g><g id="prefix__Grupo_4481" data-name="Grupo 4481" transform="translate(39.093 82.838)"><path id="prefix__Caminho_6375" d="M289.458 2260.577H275.07a3.817 3.817 0 01-2.641-.663c-1.092-1-.575-2.963.626-3.832 1.787-1.292 4.15-.491 5.913-1.766 1.552-1.121 2.11-3.255 3.248-4.726 4.127-5.336 14.256-1.215 19.074.728a35.323 35.323 0 008.925 2.671c4.842.572 10-3.424 13.87.989a3.607 3.607 0 01-1.678 6.233 11.947 11.947 0 01-3.546.356z" class="prefix__cls-6" data-name="Caminho 6375" transform="translate(-270.841 -2245.98)"/><path id="prefix__Caminho_6376" d="M273.735 2260.25a4.6 4.6 0 01-3.3-.924 2.926 2.926 0 01-.913-2.381 4.051 4.051 0 011.629-2.981 6.881 6.881 0 013.442-1.072 5.08 5.08 0 002.472-.694 7.151 7.151 0 001.826-2.527 14 14 0 011.218-2c4.563-5.9 15.09-1.656 20.147.383l.08.032a34.165 34.165 0 008.67 2.6 15.475 15.475 0 004.9-.526c3.152-.671 6.723-1.431 9.6 1.845a5.039 5.039 0 011.145 5.019 4.965 4.965 0 01-3.275 2.813 12.886 12.886 0 01-3.838.4l-43.79.009zm13.494-13.621c-2.268 0-4.277.6-5.555 2.251a12.358 12.358 0 00-1.037 1.723 8.715 8.715 0 01-2.414 3.2 6.826 6.826 0 01-3.4 1.056 5.14 5.14 0 00-2.511.709 2.087 2.087 0 00-.813 1.492 1 1 0 00.275.808 3.053 3.053 0 001.96.4h.012l43.79-.01a11.2 11.2 0 003.254-.312 3.061 3.061 0 002.015-1.639 3.143 3.143 0 00-.788-3c-2.111-2.405-4.7-1.853-7.7-1.214a17.074 17.074 0 01-5.543.556 35.752 35.752 0 01-9.179-2.735l-.08-.032c-2.991-1.2-8.084-3.253-12.286-3.253z" class="prefix__cls-7" data-name="Caminho 6376" transform="translate(-269.516 -2244.66)"/></g><g id="prefix__Grupo_4482" data-name="Grupo 4482" transform="translate(292.544 241.248)"><path id="prefix__Caminho_6377" d="M862.266 2676.536h75.849a5.724 5.724 0 00-.9-1.53 3.339 3.339 0 00-5.546.3 3.053 3.053 0 00-1.239-3.3 2.034 2.034 0 00-2.7 1.3 3.616 3.616 0 00-1.207-4.114 2.353 2.353 0 00-3.245 1.565c-.542-2.018-1.152-7.9-2.893-8.716a2.582 2.582 0 00-3.044 1.32 8.429 8.429 0 00-1.311-4.914 2.487 2.487 0 00-3.95.051 4.976 4.976 0 00-1.433-4.249 3.014 3.014 0 00-4.534 1.01c.457-2.071-.751-4.472-2.43-4.829s-3.443 1.41-3.549 3.556c.185-2.355-1.441-4.684-3.314-4.745-1.411-.047-2.734 1.2-3.264 2.829a4.4 4.4 0 00-1.928-3.7 2.988 2.988 0 00-3.9 1.427c.475-1.614-.229-3.766-1.581-4.248-1.278-.455-2.681.742-3.053 2.3.109-4.2-1.662-8.445-4.528-10.612 1.456-4.528-1.939-10.266-5.789-9.784.3-4.056-2.691-7.987-5.911-7.761.333-2.433-1.673-4.673-3.625-4.545a3.356 3.356 0 00-.978.221z" class="prefix__cls-7" data-name="Caminho 6377" transform="translate(-862.266 -2615.137)"/></g><g id="prefix__Grupo_4483" data-name="Grupo 4483" transform="translate(10.323 241.248)"><path id="prefix__Caminho_6378" d="M265.825 2676.536h-63.594a6.042 6.042 0 01.755-1.53c1.275-1.816 3.614-1.832 4.65.3a3.354 3.354 0 011.039-3.3c.824-.5 1.87.1 2.266 1.3-.456-1.475.028-3.442 1.012-4.114s2.285.077 2.721 1.565c.454-2.018.966-7.9 2.425-8.716.8-.45 2.059.182 2.551 1.32a9.685 9.685 0 011.1-4.914 1.893 1.893 0 013.311.051 5.578 5.578 0 011.2-4.249c1.184-1.176 2.956-.706 3.8 1.01-.383-2.071.63-4.472 2.037-4.829s2.887 1.41 2.976 3.556c-.155-2.355 1.208-4.684 2.779-4.745 1.183-.047 2.292 1.2 2.736 2.829a4.679 4.679 0 011.617-3.7c1.129-.724 2.546-.042 3.265 1.427-.4-1.614.192-3.766 1.326-4.248 1.071-.455 2.248.742 2.56 2.3-.092-4.2 1.394-8.445 3.8-10.612-1.221-4.528 1.626-10.266 4.854-9.784-.254-4.056 2.256-7.987 4.956-7.761-.279-2.433 1.4-4.673 3.039-4.545a2.437 2.437 0 01.82.221z" class="prefix__cls-7" data-name="Caminho 6378" transform="translate(-202.231 -2615.137)"/></g><g id="prefix__Grupo_4484" data-name="Grupo 4484" transform="translate(71.919 112.53)"><path id="prefix__Caminho_6379" d="M350.469 2332.94v188.285h24.765v-161.587h170.42v161.586h23.652v-184.308l-106.59-18.584z" class="prefix__cls-3" data-name="Caminho 6379" transform="translate(-348.681 -2316.523)"/><path id="prefix__Caminho_6380" d="M568.7 2520.591h-27.228V2359H374.629v161.586h-28.342v-191.638l114.074-14.848 108.339 18.89zm-23.652-3.576h20.076V2336l-104.842-18.279-110.42 14.371v184.927h21.19v-161.59h173.996z" class="prefix__cls-4" data-name="Caminho 6380" transform="translate(-346.287 -2314.102)"/></g><g id="prefix__Grupo_4485" data-name="Grupo 4485" transform="translate(68.026 143.902)"><path id="prefix__Caminho_6381" d="M546.508 2391.639H364.5l-23.147 12.117v6.031h228.302v-6.031z" class="prefix__cls-6" data-name="Caminho 6381" transform="translate(-339.568 -2389.858)"/><path id="prefix__Caminho_6382" d="M569.051 2409.183H337.183v-8.891l24.491-12.82h182.887l24.49 12.82zm-228.305-3.562h224.742v-3.172l-21.8-11.414H362.55l-21.8 11.414z" class="prefix__cls-4" data-name="Caminho 6382" transform="translate(-337.183 -2387.473)"/></g><path id="prefix__Caminho_6383" d="M812.938 2187.838a6.918 6.918 0 0113.638 1.562 13.445 13.445 0 017.165-5.783 13.054 13.054 0 019.043.01 13.677 13.677 0 018.21 15.119" data-name="Caminho 6383" transform="translate(-541.486 -2126.277)" fill="none"/><path id="prefix__Caminho_6384" d="M850.674 2197.628l-1.935-.413a12.242 12.242 0 00-22.591-8.647l-1.808 3.152-.04-3.634a5.928 5.928 0 00-11.688-1.338l-1.923-.469a7.885 7.885 0 0115.138-.67 14.205 14.205 0 0124.847 12.019z" class="prefix__cls-7" data-name="Caminho 6384" transform="translate(-540.199 -2124.953)"/><g id="prefix__Grupo_4487" data-name="Grupo 4487" transform="translate(75.64 110.713)"><path id="prefix__Caminho_6385" d="M354.99 2339.479l107.485-13.125 107.4 13.125.083-16.5-114.039-13.125-100.929 18.125z" class="prefix__cls-5" data-name="Caminho 6385" transform="translate(-354.99 -2309.853)"/></g><g id="prefix__Grupo_4488" data-name="Grupo 4488" transform="translate(266.941 33.46)"><path id="prefix__Caminho_6387" d="M804.271 2142.461l-1.882-.614a9.089 9.089 0 014.67-5.211 9.275 9.275 0 016-.818 10.307 10.307 0 0115.4-4.9l-1.105 1.642a8.331 8.331 0 00-12.691 4.722l-.279 1.026-1-.352a7.434 7.434 0 00-9.11 4.5z" class="prefix__cls-7" data-name="Caminho 6387" transform="translate(-802.389 -2129.18)"/></g><g id="prefix__Grupo_4489" data-name="Grupo 4489" transform="translate(236.029 25.45)"><path id="prefix__Caminho_6389" d="M750.6 2121.925a7.93 7.93 0 00-8.972-6.757l-.638.124-.367-.535a6.1 6.1 0 00-9.056-.6l-1.47-1.325a7.744 7.744 0 016.261-2.369 7.872 7.872 0 015.51 2.664 9.61 9.61 0 016.839 1.973 9.489 9.489 0 013.865 6.649z" class="prefix__cls-7" data-name="Caminho 6389" transform="translate(-730.093 -2110.447)"/></g><g id="prefix__Grupo_4490" data-name="Grupo 4490" transform="translate(55.659 101.052)"><path id="prefix__Caminho_6390" d="M556.921 2303.961l-118.69-16.5a9.618 9.618 0 00-3.9 0l-118.689 16.5a8.563 8.563 0 00-7.3 9.661 8.563 8.563 0 009.66 7.3l118.28-16.447 118.281 16.447a8.563 8.563 0 009.66-7.3 8.563 8.563 0 00-7.302-9.661z" class="prefix__cls-4" data-name="Caminho 6390" transform="translate(-308.259 -2287.258)"/></g><g id="prefix__Grupo_4491" data-name="Grupo 4491" transform="translate(140.508 178.06)"><path id="prefix__Caminho_6391" d="M510.4 2525.814c0 11.891 7.736 21.531 17.278 21.531h46.656c9.543 0 17.279-9.64 17.279-21.531 0 0-6.247-50.224-7.669-53.352a10.5 10.5 0 00-5.225-1.4H523.79a10.575 10.575 0 00-5.909 1.823c-1.306 3.027-7.481 52.929-7.481 52.929z" class="prefix__cls-6" data-name="Caminho 6391" transform="translate(-508.818 -2469.477)"/><path id="prefix__Caminho_6392" d="M572.216 2546.808H525.56c-10.4 0-18.862-10.368-18.862-23.114l.012-.195c1.036-8.37 6.268-50.282 7.6-53.364l.185-.429.389-.26a12.2 12.2 0 016.79-2.09H576.6a12.174 12.174 0 016.01 1.61l.445.254.212.467c1.449 3.187 6.751 45.385 7.8 53.812l.012.2c-.001 12.74-8.462 23.109-18.863 23.109zm-62.351-23.018c.042 10.955 7.066 19.851 15.695 19.851h46.656c8.629 0 15.654-8.9 15.695-19.851-2.287-18.383-6.186-47.8-7.387-52.347a8.808 8.808 0 00-3.923-.919H521.67a8.98 8.98 0 00-4.578 1.272c-1.113 4.338-4.96 33.673-7.227 51.994z" class="prefix__cls-4" data-name="Caminho 6392" transform="translate(-506.698 -2467.357)"/></g><g id="prefix__Grupo_4492" data-name="Grupo 4492" transform="translate(146.955 170.391)"><path id="prefix__Caminho_6393" d="M588.5 2463.785a11 11 0 015.294 1.362c-3.006-6.341-8.7-10.623-15.236-10.623H542.3c-6.675 0-12.476 4.466-15.428 11.032a11.041 11.041 0 015.986-1.771z" class="prefix__cls-3" data-name="Caminho 6393" transform="translate(-524.695 -2452.342)"/><path id="prefix__Caminho_6394" d="M523.956 2464.817a2.181 2.181 0 01-1.989-3.074c3.416-7.6 10.089-12.319 17.416-12.319h36.26c7.142 0 13.735 4.548 17.206 11.87a2.18 2.18 0 01-3.015 2.847 8.77 8.77 0 00-4.248-1.095h-55.644a8.9 8.9 0 00-4.809 1.426 2.174 2.174 0 01-1.177.345zm15.427-11.032a13.909 13.909 0 00-10.35 4.933c.3-.021.6-.032.908-.032h55.644q.186 0 .373.006a13.944 13.944 0 00-10.315-4.906z" class="prefix__cls-4" data-name="Caminho 6394" transform="translate(-521.776 -2449.423)"/></g><g id="prefix__Grupo_4493" data-name="Grupo 4493" transform="translate(189.353 227.639)"><path id="prefix__Caminho_6395" d="M635.374 2612.2a14.443 14.443 0 1114.443-14.443 14.46 14.46 0 01-14.443 14.443zm0-24.525a10.082 10.082 0 1010.082 10.082 10.093 10.093 0 00-10.082-10.087z" class="prefix__cls-4" data-name="Caminho 6395" transform="translate(-620.931 -2583.309)"/></g><g id="prefix__Grupo_4494" data-name="Grupo 4494" transform="translate(124.445 235.563)"><rect id="prefix__Retângulo_4853" width="112.895" height="41.391" class="prefix__cls-3" data-name="Retângulo 4853" rx="20.696" transform="translate(2.181 2.181)"/><path id="prefix__Caminho_6396" d="M566.823 2647.594H488.7a19.587 19.587 0 01-19.564-19.564v-6.63a19.586 19.586 0 0119.564-19.564h78.127a19.586 19.586 0 0119.564 19.564v6.625a19.587 19.587 0 01-19.568 19.569zM488.7 2606.2a15.22 15.22 0 00-15.2 15.2v6.625a15.221 15.221 0 0015.2 15.2h78.127a15.221 15.221 0 0015.2-15.2v-6.625a15.22 15.22 0 00-15.2-15.2z" class="prefix__cls-4" data-name="Caminho 6396" transform="translate(-469.131 -2601.841)"/></g><g id="prefix__Grupo_4495" data-name="Grupo 4495" transform="translate(215.048 277.397)"><rect id="prefix__Retângulo_4854" width="22.534" height="27.484" class="prefix__cls-4" data-name="Retângulo 4854" rx="6.375"/></g><g id="prefix__Grupo_4496" data-name="Grupo 4496" transform="translate(128.072 277.482)"><rect id="prefix__Retângulo_4855" width="22.534" height="27.484" class="prefix__cls-4" data-name="Retângulo 4855" rx="6.375"/></g><g id="prefix__Grupo_4497" data-name="Grupo 4497" transform="translate(213 247.523)"><ellipse id="prefix__Elipse_252" cx="11.31" cy="12.889" class="prefix__cls-6" data-name="Elipse 252" rx="11.31" ry="12.889"/></g><g id="prefix__Grupo_4498" data-name="Grupo 4498" transform="translate(129.797 247.523)"><ellipse id="prefix__Elipse_253" cx="11.13" cy="12.889" class="prefix__cls-6" data-name="Elipse 253" rx="11.13" ry="12.889"/></g><g id="prefix__Grupo_4499" data-name="Grupo 4499" transform="translate(122.306 264.101)"><rect id="prefix__Retângulo_4856" width="117.618" height="22.637" class="prefix__cls-7" data-name="Retângulo 4856" rx="4.056" transform="translate(1.584 1.584)"/><path id="prefix__Caminho_6397" d="M580.319 2694.389h-111.6a4.6 4.6 0 01-4.594-4.595v-16.616a4.6 4.6 0 014.594-4.595h111.6a4.6 4.6 0 014.594 4.595v16.616a4.6 4.6 0 01-4.594 4.595zm-111.6-22.638a1.429 1.429 0 00-1.427 1.428v16.616a1.429 1.429 0 001.427 1.427h111.6a1.429 1.429 0 001.427-1.427v-16.616a1.429 1.429 0 00-1.427-1.428z" class="prefix__cls-4" data-name="Caminho 6397" transform="translate(-464.128 -2668.584)"/></g><g id="prefix__Grupo_4504" data-name="Grupo 4504" transform="translate(118.298 40.95)"><g id="prefix__Grupo_4500" data-name="Grupo 4500" transform="translate(0 18.369)"><path id="prefix__Caminho_6398" d="M463.854 2189.657l23.219 21.219-12.182 7.793-20.137-19.718z" class="prefix__cls-9" data-name="Caminho 6398" transform="translate(-454.753 -2189.657)"/></g><g id="prefix__Grupo_4501" data-name="Grupo 4501" transform="translate(38.822 .282)"><path id="prefix__Caminho_6399" d="M545.547 2149.034l7.253 33.65 13.78-1.678-7.252-33.65z" class="prefix__cls-9" data-name="Caminho 6399" transform="translate(-545.547 -2147.356)"/></g><g id="prefix__Grupo_4502" data-name="Grupo 4502" transform="translate(72.883)"><path id="prefix__Caminho_6400" d="M631.75 2146.7l-6.543 33.8 13.045 1.4 6.551-33.029z" class="prefix__cls-9" data-name="Caminho 6400" transform="translate(-625.207 -2146.697)"/></g><g id="prefix__Grupo_4503" data-name="Grupo 4503" transform="translate(99.765 17.177)"><path id="prefix__Caminho_6401" d="M688.075 2208.57l22.767-21.7 10.06 9.092-20.484 20.138z" class="prefix__cls-9" data-name="Caminho 6401" transform="translate(-688.075 -2186.868)"/></g></g><g id="prefix__Grupo_4505" data-name="Grupo 4505" transform="translate(155.856 262.996)"><rect id="prefix__Retângulo_4857" width="50.689" height="25.777" class="prefix__cls-6" data-name="Retângulo 4857" rx="8.147" transform="translate(1.584 1.583)"/><path id="prefix__Caminho_6402" d="M588.817 2694.944h-38.594a7.639 7.639 0 01-7.631-7.631v-13.682a7.64 7.64 0 017.631-7.631h38.595a7.639 7.639 0 017.63 7.631v13.682a7.639 7.639 0 01-7.631 7.631zm-38.595-25.777a4.469 4.469 0 00-4.464 4.464v13.682a4.469 4.469 0 004.464 4.464h38.595a4.469 4.469 0 004.464-4.464v-13.682a4.469 4.469 0 00-4.464-4.464z" class="prefix__cls-4" data-name="Caminho 6402" transform="translate(-542.592 -2666)"/></g><g id="prefix__Grupo_4506" data-name="Grupo 4506" transform="translate(154.741 246.281)"><rect id="prefix__Retângulo_4858" width="51.895" height="10.413" class="prefix__cls-7" data-name="Retângulo 4858" rx="5.207" transform="translate(1.584 1.583)"/><path id="prefix__Caminho_6403" d="M588.263 2640.488h-41.5a6.79 6.79 0 010-13.58h41.5a6.79 6.79 0 010 13.58zm-41.5-10.413a3.623 3.623 0 000 7.246h41.5a3.623 3.623 0 000-7.246z" class="prefix__cls-4" data-name="Caminho 6403" transform="translate(-539.983 -2626.908)"/></g><g id="prefix__Grupo_4544" data-name="Grupo 4544" transform="translate(217.077 147.949)"><g id="prefix__Grupo_4507" data-name="Grupo 4507" transform="translate(16.824 128.481)"><path id="prefix__Caminho_6404" d="M767.436 2733.714l-37.689-20.584 40.064-11.084L809 2717.88z" class="prefix__cls-3" data-name="Caminho 6404" transform="translate(-727.767 -2700.067)"/><path id="prefix__Caminho_6405" d="M764.786 2733.043a1.982 1.982 0 01-.948-.242l-37.689-20.584a1.979 1.979 0 01.421-3.645l40.065-11.083a1.976 1.976 0 011.269.072l39.189 15.834a1.979 1.979 0 01-.037 3.685l-41.564 15.834a1.973 1.973 0 01-.706.129zm-32.452-21.958l32.6 17.8 36-13.714-33.891-13.693z" class="prefix__cls-4" data-name="Caminho 6405" transform="translate(-725.117 -2697.417)"/></g><g id="prefix__Grupo_4543" data-name="Grupo 4543"><g id="prefix__Grupo_4508" data-name="Grupo 4508" transform="translate(22.213)"><path id="prefix__Caminho_6406" d="M737.72 2465.308v-62.028a6.343 6.343 0 016.343-6.344h71.253a6.343 6.343 0 016.343 6.344v84.253" class="prefix__cls-4" data-name="Caminho 6406" transform="translate(-737.72 -2396.936)"/></g><g id="prefix__Grupo_4509" data-name="Grupo 4509" transform="translate(22.213 68.372)"><path id="prefix__Caminho_6407" d="M821.659 2579.064v48.046a6.344 6.344 0 01-6.343 6.344h-71.253a6.344 6.344 0 01-6.343-6.344v-70.271" class="prefix__cls-4" data-name="Caminho 6407" transform="translate(-737.72 -2556.839)"/></g><g id="prefix__Grupo_4510" data-name="Grupo 4510" transform="translate(28.295 6.692)"><rect id="prefix__Retângulo_4859" width="71.775" height="131.603" class="prefix__cls-6" data-name="Retângulo 4859" rx="4.818"/></g><g id="prefix__Grupo_4511" data-name="Grupo 4511" transform="translate(1.233 65.856)"><path id="prefix__Caminho_6408" d="M697.1 2580.75c-8.178-10.409-2.773-27.468 13.747-24.911s17.239 21.951 6.332 24.661" class="prefix__cls-3" data-name="Caminho 6408" transform="translate(-691.337 -2553.604)"/><path id="prefix__Caminho_6409" d="M694.423 2580.082a1.975 1.975 0 01-1.558-.757c-4.818-6.132-5.577-14.491-1.888-20.8 3.408-5.827 9.786-8.483 17.494-7.292 10.14 1.57 14.983 9.006 15.283 15.679.284 6.317-3.243 11.485-8.777 12.86a1.979 1.979 0 11-.955-3.842c4.507-1.12 5.929-5.462 5.777-8.84-.211-4.691-3.463-10.633-11.934-11.944-6.106-.945-10.89.965-13.472 5.378-2.831 4.84-2.179 11.565 1.584 16.355a1.98 1.98 0 01-1.555 3.2z" class="prefix__cls-4" data-name="Caminho 6409" transform="translate(-688.654 -2550.956)"/></g><g id="prefix__Grupo_4512" data-name="Grupo 4512" transform="translate(39.062 105.425)"><rect id="prefix__Retângulo_4860" width="51.162" height="14.985" class="prefix__cls-3" data-name="Retângulo 4860" rx="3.501"/></g><g id="prefix__Grupo_4522" data-name="Grupo 4522" transform="translate(48.28 109.933)"><g id="prefix__Grupo_4513" data-name="Grupo 4513" transform="translate(0 .323)"><path id="prefix__Caminho_6410" d="M801.864 2657.305a.227.227 0 01.068.014.112.112 0 01.074.1.877.877 0 01.006.117c.006.166 0 .324.006.491a2.152 2.152 0 01-.023.379 1.613 1.613 0 01-.183.552 1.872 1.872 0 01-.286.4 1.65 1.65 0 01-.194.165 1.264 1.264 0 01-.479.207c-.115.028-.223.041-.337.062h-.04c-.04 0-.086-.007-.126-.007a1.1 1.1 0 01-.422-.062c-.1-.034-.217-.041-.326-.069a.908.908 0 01-.342-.131.7.7 0 01-.286-.317 4.25 4.25 0 01-.154-.331 1.018 1.018 0 01-.068-.373l-.034-.483a1.353 1.353 0 01-.006-.152l-.011-.517c-.006-.125-.017-.249-.017-.373a2.445 2.445 0 01.012-.29c.023-.179.046-.365.08-.538a2.9 2.9 0 01.257-.739.939.939 0 01.428-.407l.251-.1a.954.954 0 01.36-.076c.092-.014.183-.02.28-.028a1.661 1.661 0 01.519.055 1.958 1.958 0 00.189.055 1.5 1.5 0 01.582.276.357.357 0 01.092.1l.2.317a.751.751 0 01.08.3 2 2 0 010 .456l-.017.166c-.011.09-.045.124-.12.138l-.576.09c-.12.021-.234.034-.349.048s-.142-.021-.142-.153a1.731 1.731 0 00-.1-.545l-.023-.062a.173.173 0 00-.325-.007.72.72 0 00-.052.158 4.288 4.288 0 00-.085.608 8.287 8.287 0 00-.029.649 2.54 2.54 0 00.137.828.3.3 0 00.12.166.13.13 0 00.2-.049.413.413 0 00.068-.221l-.018-.5v-.1a.144.144 0 01.12-.166l.16-.028.446-.055a.982.982 0 01.148 0z" class="prefix__cls-4" data-name="Caminho 6410" transform="translate(-798.684 -2654.792)"/></g><g id="prefix__Grupo_4514" data-name="Grupo 4514" transform="translate(3.732 .091)"><path id="prefix__Caminho_6411" d="M807.414 2656.276a6.016 6.016 0 01.057-.967.861.861 0 01.291-.546 2.681 2.681 0 01.639-.4 2.591 2.591 0 01.743-.111.387.387 0 01.125.014 3.083 3.083 0 01.348.137.765.765 0 01.166.132 2.945 2.945 0 01.348.51 1.58 1.58 0 01.166.573c.034.29.085.573.125.863.034.269.063.538.091.808a1.522 1.522 0 01.006.165c.006.152.011.3.011.456a2.85 2.85 0 01-.051.621 3.009 3.009 0 01-.114.393.9.9 0 01-.211.311 1.636 1.636 0 01-.349.255 1.7 1.7 0 01-.531.207 1.908 1.908 0 01-.485.055.662.662 0 01-.16-.035 1.316 1.316 0 01-.451-.269 1.356 1.356 0 01-.251-.338 4.024 4.024 0 01-.342-.863 3.8 3.8 0 01-.1-.587c-.018-.145-.04-.3-.052-.449-.011-.124-.011-.249-.011-.373-.003-.182-.014-.375-.008-.562zm1.713-.1a.748.748 0 00-.091-.249.154.154 0 00-.274-.034.328.328 0 00-.08.166 3.216 3.216 0 00-.08.628 1.655 1.655 0 010 .166 3.136 3.136 0 00.012.469.307.307 0 00.205.276.233.233 0 00.28-.117 1.056 1.056 0 00.057-.145 1.067 1.067 0 00.051-.394 4.042 4.042 0 00-.08-.769z" class="prefix__cls-4" data-name="Caminho 6411" transform="translate(-807.412 -2654.249)"/></g><g id="prefix__Grupo_4515" data-name="Grupo 4515" transform="translate(7.262 .14)"><path id="prefix__Caminho_6412" d="M817 2656.97c0 .1.006.214.012.317.005.138.005.276.017.415a3.286 3.286 0 010 .331c-.006.193 0 .387.006.58 0 .076 0 .152.006.228l.017.366c.006.118-.028.18-.125.194l-.206.034a2.67 2.67 0 00-.308.1 2.974 2.974 0 01-.428.11c-.08.014-.131-.021-.137-.124l-.011-.276a10.65 10.65 0 00-.057-.843c-.011-.138-.023-.269-.028-.407a17.629 17.629 0 00-.023-.518l-.04-.642c-.006-.221-.011-.442-.023-.663 0-.131-.006-.262-.006-.393l.011-.739c0-.1.006-.193.006-.29 0-.021.006-.035.006-.056.012-.076.034-.117.1-.131a1.721 1.721 0 01.268-.048 1.814 1.814 0 00.331-.09 1.124 1.124 0 01.3-.055 3.268 3.268 0 01.519.028 1.643 1.643 0 01.189.014c.057 0 .091.041.114.1a.273.273 0 01.023.076 9.476 9.476 0 00.337 1c.086.221.148.448.223.676.017.055.04.111.062.166l.04.055a.112.112 0 00.04-.1v-.179c0-.076.006-.145.006-.222v-.075c0-.034-.006-.062-.006-.1v-.3c0-.09.012-.187.006-.276-.006-.159.005-.318.005-.476 0-.062.006-.125.012-.187.011-.1.045-.131.125-.131.16 0 .314 0 .469.007a2.593 2.593 0 01.325.034 1.351 1.351 0 01.165.014c.063.007.091.041.1.124 0 .021.006.041.006.055 0 .138-.006.276 0 .414l.017.677c0 .083 0 .173.006.262.005.131.017.262.017.393.006.166 0 .325 0 .484v.421c0 .3.006.6 0 .9 0 .124-.012.249-.017.379-.006.1-.012.214-.012.318-.006.158-.006.317-.006.469a.171.171 0 01-.1.166.7.7 0 01-.286.069c-.125.007-.257.021-.388.034-.171.014-.342.035-.52.042a1.48 1.48 0 01-.245-.014.134.134 0 01-.131-.11c-.029-.111-.063-.22-.086-.338-.1-.435-.205-.877-.326-1.3a19.86 19.86 0 00-.142-.532l-.143-.421a.171.171 0 00-.079-.117.737.737 0 00-.007.101z" class="prefix__cls-4" data-name="Caminho 6412" transform="translate(-815.668 -2654.364)"/></g><g id="prefix__Grupo_4516" data-name="Grupo 4516" transform="translate(11.496 .012)"><path id="prefix__Caminho_6413" d="M828.69 2655.64c0 .118-.04.173-.137.179-.12 0-.239-.006-.36-.013h-.293a1.161 1.161 0 00-.154.007.127.127 0 01-.12-.1l-.051-.152a.277.277 0 00-.251-.235.524.524 0 00-.177.014c-.109.021-.16.117-.132.249a.9.9 0 00.166.366 2.513 2.513 0 00.32.318l.16.145.12.083a1.812 1.812 0 01.314.235l.1.138a2.353 2.353 0 01.365.794 3.524 3.524 0 01.132.594 1.049 1.049 0 01-.068.518 1.415 1.415 0 01-.4.573 1.226 1.226 0 01-.611.3l-.319.055a.947.947 0 01-.44-.055 2.782 2.782 0 01-.656-.339 1.361 1.361 0 01-.457-.649 3.89 3.89 0 01-.171-.821c-.012-.09.017-.159.1-.173a1.066 1.066 0 01.257-.007 1.122 1.122 0 00.3 0 .715.715 0 01.394.069l.159.069a.128.128 0 01.091.145c0 .048-.006.1-.006.145a.988.988 0 00.006.131.148.148 0 00.24.1.212.212 0 00.08-.2.516.516 0 00-.1-.249 7.336 7.336 0 00-.537-.621 3.652 3.652 0 01-.371-.4 3.08 3.08 0 01-.422-.7 1.025 1.025 0 01-.074-.373c0-.1-.08-.428-.069-.518a1.732 1.732 0 01.16-.608.663.663 0 01.206-.262 2.178 2.178 0 01.731-.269 1.15 1.15 0 01.257-.041c.166-.007.331-.021.5-.021a2.141 2.141 0 01.531.173 1.105 1.105 0 01.417.262.076.076 0 01.029.035 1.338 1.338 0 01.234.635c.006.083 0 .166 0 .255z" class="prefix__cls-4" data-name="Caminho 6413" transform="translate(-825.57 -2654.066)"/></g><g id="prefix__Grupo_4517" data-name="Grupo 4517" transform="translate(15.036)"><path id="prefix__Caminho_6414" d="M837.105 2656.839a4.255 4.255 0 01-.086.759 1.729 1.729 0 00-.034.256 1.73 1.73 0 01-.109.442 4.176 4.176 0 01-.228.5 1.265 1.265 0 01-.32.359 1.386 1.386 0 01-.628.262c-.086.014-.171.028-.257.035a.879.879 0 01-.623-.138c-.074-.048-.154-.09-.228-.145a1.089 1.089 0 01-.394-.435 2 2 0 01-.086-.2 3.9 3.9 0 01-.166-.925c-.006-.089-.023-.18-.029-.27q-.025-.217-.034-.435c-.012-.186-.023-.379-.023-.573s-.012-.407-.012-.614c-.005-.159 0-.31 0-.463s.012-.29.012-.428v-.31a.417.417 0 010-.084c.011-.1.051-.145.131-.137s.148.007.217.007a2.929 2.929 0 00.491-.021c.091-.007.182-.014.279-.014.08-.007.12.042.126.145.006.076.006.159.006.235l-.012.414-.023.394-.017.421c0 .173-.006.346 0 .518.006.152.011.3.029.449a.3.3 0 00.257.276.153.153 0 00.154-.132 1.006 1.006 0 00.034-.186c.018-.166.029-.332.04-.5l.051-.691.018-.275c.005-.111.011-.214.011-.318a3.836 3.836 0 00-.04-.628.738.738 0 01-.006-.111.126.126 0 01.08-.131.457.457 0 01.137-.021c.137-.014.268-.014.405-.021.114-.007.223-.014.331-.028.063-.008.126-.021.189-.035a.479.479 0 01.137 0 .105.105 0 01.1.1 1.185 1.185 0 01.023.138c.012.2.023.407.04.607.017.3.046.587.062.877.006.11 0 .221 0 .325.007.252.007.501-.005.75z" class="prefix__cls-4" data-name="Caminho 6414" transform="translate(-833.848 -2654.037)"/></g><g id="prefix__Grupo_4518" data-name="Grupo 4518" transform="translate(18.744 .143)"><path id="prefix__Caminho_6415" d="M842.617 2654.648a.165.165 0 01.126-.186 2.522 2.522 0 01.594-.09 3.5 3.5 0 01.377.028c.068.006.137.006.206.006a.547.547 0 01.108.014c.052.007.08.042.091.1s0 .11.006.172c0 .111.006.228.011.346 0 .09 0 .172.006.255 0 .021-.006.042-.006.062 0 .194-.006.38.006.573.011.214.023.421.029.635l.011.325c.006.1.017.207.029.311l.034.5c.006.11.011.22.023.331 0 .055.012.11.063.131a.209.209 0 00.091.014c.086 0 .177 0 .268.007a1.783 1.783 0 01.194.007c.08.013.108.055.114.145l.011.269.034.476c.012.118.018.242.018.359a.15.15 0 01-.115.179 2.996 2.996 0 01-.263.055c-.257.041-.519.09-.782.138-.148.021-.3.042-.457.049a2.174 2.174 0 00-.3.041c-.029 0-.057.007-.086.007l-.285.014c-.023 0-.04-.007-.057-.007-.1-.021-.125-.055-.131-.166l-.034-.545c-.005-.069 0-.145 0-.214l-.017-.366v-.042a33.262 33.262 0 01-.011-.78c0-.145.011-.3.017-.442 0-.118-.011-.235-.011-.352 0-.18.006-.353.011-.532a1.391 1.391 0 01.006-.158c.005-.276.034-.552.057-.829.012-.132.006-.269.006-.407z" class="prefix__cls-4" data-name="Caminho 6415" transform="translate(-842.52 -2654.372)"/></g><g id="prefix__Grupo_4519" data-name="Grupo 4519" transform="translate(21.524 .191)"><path id="prefix__Caminho_6416" d="M851.38 2657.391c.006.145.023.311.029.469.006.2.028.407.028.608 0 .166.023.324.034.49.012.131.023.256.029.387a.175.175 0 01-.12.2.65.65 0 01-.125.028c-.08.021-.16.042-.24.069a1.773 1.773 0 01-.417.1 2.988 2.988 0 01-.434.041c-.091-.006-.126-.041-.137-.151a3.244 3.244 0 01-.034-.532c0-.09-.012-.172-.012-.262.012-.214.017-.429.034-.642s.029-.463.046-.69a7.258 7.258 0 00.023-.787c0-.076-.023-.117-.086-.131a.405.405 0 00-.131-.021 2.054 2.054 0 00-.645.069.424.424 0 01-.092.014c-.051 0-.086-.034-.1-.1a.653.653 0 01-.012-.1l.012-.987c.006-.117.017-.228.029-.345l.017-.3c.006-.083.012-.159.023-.235s.051-.11.125-.1a1.22 1.22 0 00.16.014c.1.007.206.014.308.014.08 0 .166 0 .246-.007s.188-.014.28-.014a2.169 2.169 0 01.3.035c.188.028.376.055.559.09l.554.1a1.054 1.054 0 00.389.021.808.808 0 01.188 0c.074 0 .109.035.126.118a.922.922 0 01.023.249c0 .1-.006.193-.006.29a4.656 4.656 0 01-.034.566l-.012.4-.012.194c-.011.076-.034.1-.1.111a.131.131 0 01-.051.007c-.1 0-.195-.007-.3-.007-.126 0-.251 0-.377.007-.068 0-.092.034-.092.117z" class="prefix__cls-4" data-name="Caminho 6416" transform="translate(-849.022 -2654.483)"/></g><g id="prefix__Grupo_4520" data-name="Grupo 4520" transform="translate(25.18 .192)"><path id="prefix__Caminho_6417" d="M857.65 2657.662a1.778 1.778 0 01.012-.249c.012-.166.028-.332.046-.5l.034-.373a4.361 4.361 0 01.086-.608l.046-.338a5.543 5.543 0 01.12-.621c.017-.055.028-.1.04-.159a.2.2 0 01.1-.158.95.95 0 01.172-.083 1.426 1.426 0 01.611-.076c.086.007.172-.007.251 0a1.751 1.751 0 01.326.028c.137.028.274.069.411.1a.2.2 0 01.154.187c.028.131.046.262.074.394l.092.448c.063.4.137.8.171 1.208.017.2.045.394.068.594.017.145.028.29.04.428l.063.683.074.663.029.366c.005.09-.006.166-.114.179a3.34 3.34 0 01-.28.034c-.171.014-.342.014-.52.021a1.006 1.006 0 00-.137.02c-.109.014-.177-.034-.2-.165a1.491 1.491 0 01-.017-.359 1.015 1.015 0 00-.006-.187.1.1 0 00-.086-.1.245.245 0 00-.068-.014l-.4-.013c-.074 0-.108.034-.12.117l-.046.4c-.012.124-.034.214-.194.18-.126-.028-.257-.035-.388-.062a1.817 1.817 0 01-.422-.145.179.179 0 01-.1-.152 1.464 1.464 0 01.017-.317 5.272 5.272 0 00.028-.781zm1.69-.3a.643.643 0 000-.1c-.017-.242-.023-.49-.057-.739a.693.693 0 00-.023-.117.086.086 0 00-.086-.083h-.08c-.063.007-.1.041-.109.117 0 .042-.006.09-.006.132-.011.145-.017.3-.034.442s-.028.29-.046.435a.488.488 0 00-.005.09c.005.049.028.069.068.069a.628.628 0 00.108-.014l.183-.014c.062-.007.086-.042.086-.125z" class="prefix__cls-4" data-name="Caminho 6417" transform="translate(-857.573 -2654.486)"/></g><g id="prefix__Grupo_4521" data-name="Grupo 4521" transform="translate(28.695 .173)"><path id="prefix__Caminho_6418" d="M866.753 2659.583a2.156 2.156 0 00-.485.042 1.34 1.34 0 01-.286.021.127.127 0 01-.126-.125.24.24 0 01-.011-.089c-.006-.228-.006-.449-.006-.67l-.012-.559a2.438 2.438 0 01.006-.353 1.048 1.048 0 00-.011-.131c-.006-.1-.023-.207-.023-.311-.006-.166 0-.325 0-.49 0-.124-.006-.249-.006-.372l.018-.808v-.842c0-.055-.012-.1-.012-.152a.4.4 0 01.012-.083c.017-.062.051-.1.108-.1a.506.506 0 01.1.007 2.588 2.588 0 00.52-.055 2.271 2.271 0 01.371-.034c.137-.007.268-.027.405-.035a.417.417 0 01.126 0c.194 0 .394 0 .594.014a2.42 2.42 0 01.725.166.681.681 0 01.148.09l.171.145a.892.892 0 01.286.538 2.508 2.508 0 01.04.463 2.836 2.836 0 01-.04.7 2.683 2.683 0 01-.16.642 1.385 1.385 0 01-.32.469l-.114.083-.046.035a.1.1 0 00-.023.117l.017.028.206.49a7.816 7.816 0 00.434.9c.011.034.029.062.04.09.046.1.017.166-.068.194l-.245.1a1.534 1.534 0 01-.543.145 1 1 0 01-.143 0h-.588c-.062 0-.1-.049-.12-.118a1.6 1.6 0 01-.068-.242l-.148-.559a21.532 21.532 0 00-.2-.69.659.659 0 00-.046-.111.049.049 0 00-.034-.027c-.006 0-.023.027-.023.035-.006.069-.006.137-.006.207v.352c0 .132 0 .263-.006.386a3.045 3.045 0 01-.017.325c-.012.117-.046.152-.143.159zm.5-3.127c.006.076.046.117.109.11a.234.234 0 00.125-.069.529.529 0 00.08-.49.281.281 0 00-.211-.2c-.051-.007-.085.014-.1.076 0 .027-.006.048-.006.076.006.075.006.152.006.235 0 .063 0 .124-.006.186z" class="prefix__cls-4" data-name="Caminho 6418" transform="translate(-865.793 -2654.441)"/></g></g><g id="prefix__Grupo_4523" data-name="Grupo 4523" transform="translate(0 89.352)"><path id="prefix__Caminho_6419" d="M695.449 2640.1c-8.885-12.165-6.8-29.712 12.711-29.566s23.639 22.424 11.5 27.406" class="prefix__cls-3" data-name="Caminho 6419" transform="translate(-688.431 -2608.555)"/><path id="prefix__Caminho_6420" d="M692.79 2639.431a1.976 1.976 0 01-1.6-.812c-5.6-7.67-7-16.969-3.551-23.688 2.987-5.826 9.241-9.025 17.626-9.025h.249c8.5.064 17.972 4.8 19.992 15.243 1.37 7.088-1.745 13.507-7.753 15.974a1.979 1.979 0 01-1.5-3.662c3.25-1.334 6.606-5.163 5.369-11.56-1.064-5.5-5.929-11.96-16.135-12.036-7.005-.045-11.991 2.323-14.323 6.872-2.727 5.318-1.43 13.173 3.225 19.547a1.979 1.979 0 01-1.6 3.146z" class="prefix__cls-4" data-name="Caminho 6420" transform="translate(-685.771 -2605.906)"/></g><g id="prefix__Grupo_4524" data-name="Grupo 4524" transform="translate(1.902 83.11)"><path id="prefix__Caminho_6421" d="M762.343 2664.584s-9.563-29.333 22.056-30.3c0 0-23.831-21.193-11.079-33.94 7.461-7.458 20.154-5.07 24.969 4.316l10.337 20.15a25.073 25.073 0 01-1.9 26.009l-10.791 15.121c-9.526 12.607-23.528 18.212-23.528 18.212s-3.692 121.089 176.172 67.485l.055 59.971s-206.1 37.656-213.928-133.076a113.031 113.031 0 01-26.937-14.7 34.136 34.136 0 01-12.5-19.28c-1.647-6.994.914-18.094 14.413-18.894 5.109-.3 12.892-.052 17.114 5.449 10.835 14.121.74 28.432-13.677 24.825" class="prefix__cls-3" data-name="Caminho 6421" transform="translate(-692.859 -2593.96)"/><path id="prefix__Caminho_6422" d="M899.529 2814.464c-4.326 0-8.838-.09-13.494-.3-31.2-1.4-75.319-8.584-108.305-34.833-29.26-23.283-45.263-57.611-47.575-102.053a114.6 114.6 0 01-26.22-14.515 36 36 0 01-13.227-20.4c-.959-4.068-.732-10.094 2.778-14.808 2.033-2.729 6.015-6.076 13.444-6.516 9.029-.534 15.178 1.5 18.8 6.22 5.565 7.252 6.514 15.579 2.477 21.728-3.747 5.71-10.724 8.1-18.2 6.221a1.979 1.979 0 11.961-3.839c5.8 1.45 11.139-.295 13.935-4.553 3.131-4.771 2.268-11.181-2.309-17.147-2.762-3.6-7.809-5.13-15.426-4.678-4.743.281-8.277 1.939-10.5 4.928a14.366 14.366 0 00-2.1 11.536 32.035 32.035 0 0011.766 18.157 111.966 111.966 0 0026.4 14.408 1.979 1.979 0 011.314 1.774c2.011 43.875 17.534 77.665 46.137 100.432 32.132 25.576 75.342 32.6 105.933 33.98a303.539 303.539 0 0057.9-2.923l-.05-55.647q-44.821 13.076-78.989 13.077c-27.57 0-49.779-6.406-66.426-19.215-31.6-24.313-30.808-62.443-30.759-64.054a1.978 1.978 0 011.243-1.777c.133-.054 13.623-5.575 22.684-17.568l10.759-15.078a23.012 23.012 0 001.749-23.956l-10.337-20.149a14.134 14.134 0 00-10.361-7.478 13.122 13.122 0 00-11.447 3.657 10.215 10.215 0 00-3.168 7.884c.313 10.74 14.025 23.054 14.163 23.178a1.979 1.979 0 01-1.255 3.457c-8.795.268-14.973 2.842-18.363 7.652-5.66 8.031-1.909 19.936-1.871 20.055a1.979 1.979 0 01-3.764 1.225c-.183-.562-4.408-13.873 2.385-23.54 3.511-4.995 9.238-8.016 17.06-9.009-4.464-4.695-12.052-13.957-12.313-22.9a14.169 14.169 0 014.326-10.8 17.048 17.048 0 0114.86-4.768 18.108 18.108 0 0113.269 9.582l10.337 20.15a26.955 26.955 0 01-2.05 28.062l-10.791 15.121c-8.209 10.865-19.416 16.64-23.153 18.355.156 6.679 2.335 38.918 29.251 59.6 13.257 10.185 30.635 16.185 51.651 17.835 25.548 2 56.744-2.414 92.719-13.135a1.979 1.979 0 012.545 1.894l.055 59.971a1.979 1.979 0 01-1.624 1.949 291.445 291.445 0 01-46.824 3.551z" class="prefix__cls-4" data-name="Caminho 6422" transform="translate(-690.22 -2591.308)"/></g><g id="prefix__Grupo_4525" data-name="Grupo 4525" transform="translate(38.891 4.391)"><rect id="prefix__Retângulo_4861" width="50.006" height="7.293" class="prefix__cls-4" data-name="Retângulo 4861" rx="3.646"/></g><g id="prefix__Grupo_4532" data-name="Grupo 4532" transform="translate(38.076 33.771)"><g id="prefix__Grupo_4526" data-name="Grupo 4526"><path id="prefix__Caminho_6423" d="M779.067 2478.187a2.589 2.589 0 01-.08.631c-.051.184-.1.368-.159.543a1.254 1.254 0 01-.572.763 1.408 1.408 0 01-.479.2l-.355.079c-.137.036-.166.079-.159.255s.029.333.044.5c0 .062.007.123.007.184.015.28.022.561.029.85.007.114.015.236.015.351 0 .131-.044.193-.152.21-.188.026-.377.044-.565.061-.08 0-.152-.017-.232-.017a4.046 4.046 0 00-.8.087l-.464.1c-.123.018-.181-.035-.2-.184l-.094-.833c-.007-.079-.015-.158-.015-.237v-.4c0-.2-.007-.412-.007-.614s.007-.4.007-.6-.014-.368-.014-.552c0-.123.014-.255.014-.377.008-.21.015-.412.015-.623v-.85c0-.193-.015-.385-.022-.57 0-.105.007-.219.007-.324 0-.079-.007-.158-.014-.236a1.012 1.012 0 01.022-.333.157.157 0 01.109-.123l.2-.044.471-.1a1.776 1.776 0 01.609-.035 2.623 2.623 0 00.587-.017.458.458 0 01.109-.009l.384.026a3.136 3.136 0 01.754.1 2 2 0 01.435.185.887.887 0 01.4.578 5.845 5.845 0 01.1.6 1.456 1.456 0 00.022.167c.007.105.021.2.021.307zm-1.957-.062l.05.438a.147.147 0 00.008.053.128.128 0 00.145.062.8.8 0 00.21-.071.425.425 0 00.167-.184 1.449 1.449 0 00.094-.6c-.029-.184-.181-.3-.471-.325-.2-.017-.246.027-.239.132a1.3 1.3 0 01.022.236z" class="prefix__cls-4" data-name="Caminho 6423" transform="translate(-774.82 -2475.917)"/></g><g id="prefix__Grupo_4527" data-name="Grupo 4527" transform="translate(4.68 .026)"><path id="prefix__Caminho_6424" d="M785.889 2476.329c0-.131.051-.21.159-.236a3.182 3.182 0 01.754-.115 4.277 4.277 0 01.478.036c.087.008.174.008.261.008a.65.65 0 01.138.018c.065.009.1.053.116.131s0 .141.007.219c0 .14.007.289.015.438 0 .114 0 .219.007.324 0 .026-.007.053-.007.079 0 .245-.007.482.007.728.015.272.029.534.036.807l.015.412c.007.131.021.263.036.395l.044.64c.007.14.015.28.029.42 0 .07.014.141.08.167a.265.265 0 00.115.018c.109 0 .225 0 .341.009a2.377 2.377 0 01.246.009c.1.018.138.07.145.184l.014.342.044.6c.014.149.022.307.022.456a.19.19 0 01-.145.227 4.84 4.84 0 01-.334.071c-.326.052-.659.114-.993.175a6.087 6.087 0 01-.58.062 2.688 2.688 0 00-.384.053c-.036 0-.072.009-.109.009l-.363.018c-.029 0-.051-.009-.072-.009-.123-.026-.159-.07-.167-.21l-.044-.692c-.007-.087 0-.184 0-.272l-.022-.464v-.052a45.851 45.851 0 01-.014-.99c0-.184.014-.377.022-.561 0-.149-.015-.3-.015-.447 0-.228.007-.447.015-.674a1.975 1.975 0 01.007-.2c.007-.351.044-.7.073-1.051.014-.167.007-.342.007-.518z" class="prefix__cls-4" data-name="Caminho 6424" transform="translate(-785.766 -2475.978)"/></g><g id="prefix__Grupo_4528" data-name="Grupo 4528" transform="translate(8.277 .088)"><path id="prefix__Caminho_6425" d="M794.276 2480.154a2.291 2.291 0 01.015-.316c.015-.21.036-.421.058-.639l.043-.474a5.423 5.423 0 01.109-.771l.058-.43a7.053 7.053 0 01.153-.789c.021-.071.036-.132.05-.2a.249.249 0 01.13-.2 1.2 1.2 0 01.218-.1 1.8 1.8 0 01.775-.1c.109.009.218-.009.319 0a2.209 2.209 0 01.413.035c.174.035.348.088.522.123a.251.251 0 01.2.237c.036.167.058.333.094.5l.115.57c.08.508.174 1.016.218 1.533.022.254.058.5.087.754.022.184.037.368.051.543l.08.868.094.842.036.464c.007.114-.007.21-.145.228a5.374 5.374 0 01-.355.044c-.217.017-.435.017-.66.026a1.256 1.256 0 00-.174.026c-.138.018-.225-.044-.253-.21a1.872 1.872 0 01-.022-.456 1.33 1.33 0 00-.007-.237.133.133 0 00-.109-.131.3.3 0 00-.087-.017l-.508-.018c-.094 0-.138.044-.152.149l-.058.509c-.014.158-.043.271-.246.227-.159-.035-.326-.043-.493-.079a2.332 2.332 0 01-.537-.184.227.227 0 01-.123-.193 1.819 1.819 0 01.022-.4 6.647 6.647 0 00.036-.99zm2.146-.377a.8.8 0 000-.131c-.022-.307-.029-.623-.073-.938a.845.845 0 00-.029-.149.108.108 0 00-.109-.1h-.1c-.08.008-.123.052-.138.149 0 .052-.007.114-.007.166-.015.184-.022.377-.044.561s-.036.368-.058.552a.591.591 0 00-.007.114c.007.061.036.087.087.087a.8.8 0 00.138-.018l.232-.017c.08-.009.109-.052.109-.157z" class="prefix__cls-4" data-name="Caminho 6425" transform="translate(-794.178 -2476.122)"/></g><g id="prefix__Grupo_4529" data-name="Grupo 4529" transform="translate(12.695 .254)"><path id="prefix__Caminho_6426" d="M808.548 2479.7a.3.3 0 01.087.018.141.141 0 01.094.123 1.083 1.083 0 01.007.149c.007.21 0 .412.007.623a2.692 2.692 0 01-.029.482 2.065 2.065 0 01-.232.7 2.384 2.384 0 01-.363.508 2.2 2.2 0 01-.247.21 1.614 1.614 0 01-.608.263c-.145.035-.283.052-.428.078h-.051c-.05 0-.109-.009-.159-.009a1.406 1.406 0 01-.537-.079c-.13-.044-.275-.053-.413-.087a1.188 1.188 0 01-.435-.167.892.892 0 01-.362-.4q-.109-.21-.2-.42a1.294 1.294 0 01-.087-.474l-.044-.613a1.77 1.77 0 01-.007-.192l-.014-.658c-.008-.157-.022-.315-.022-.473a3.206 3.206 0 01.014-.368c.029-.229.058-.465.1-.684a3.7 3.7 0 01.326-.938 1.194 1.194 0 01.544-.517l.319-.131a1.218 1.218 0 01.457-.1c.116-.018.232-.026.355-.035a2.13 2.13 0 01.659.07 2.436 2.436 0 00.24.07 1.9 1.9 0 01.739.35.454.454 0 01.116.132l.254.4a.962.962 0 01.1.377 2.568 2.568 0 010 .578l-.022.211c-.015.114-.058.158-.152.175l-.732.114c-.152.026-.3.043-.443.061-.13.027-.181-.026-.181-.192a2.166 2.166 0 00-.13-.692l-.029-.079a.22.22 0 00-.413-.009.936.936 0 00-.065.2 5.45 5.45 0 00-.109.771c-.021.272-.036.552-.036.824a3.215 3.215 0 00.174 1.051.381.381 0 00.152.211.164.164 0 00.254-.061.523.523 0 00.087-.281l-.022-.639v-.123a.182.182 0 01.152-.21l.2-.035.565-.07a1.281 1.281 0 01.188 0z" class="prefix__cls-4" data-name="Caminho 6426" transform="translate(-804.511 -2476.512)"/></g><g id="prefix__Grupo_4530" data-name="Grupo 4530" transform="translate(17.437 .088)"><path id="prefix__Caminho_6427" d="M815.7 2480.154a2.3 2.3 0 01.015-.316c.015-.21.036-.421.058-.639l.044-.474a5.431 5.431 0 01.109-.771l.058-.43a6.984 6.984 0 01.152-.789 1.936 1.936 0 00.05-.2.251.251 0 01.13-.2 1.214 1.214 0 01.218-.1 1.8 1.8 0 01.775-.1c.109.009.218-.009.319 0a2.206 2.206 0 01.413.035c.174.035.349.088.522.123a.251.251 0 01.2.237c.036.167.058.333.094.5l.116.57c.08.508.174 1.016.218 1.533.021.254.058.5.087.754.022.184.036.368.051.543l.08.868.094.842.036.464c.007.114-.007.21-.145.228a5.374 5.374 0 01-.355.044c-.218.017-.435.017-.66.026a1.269 1.269 0 00-.174.026c-.138.018-.224-.044-.254-.21a1.9 1.9 0 01-.021-.456 1.292 1.292 0 00-.008-.237.132.132 0 00-.109-.131.3.3 0 00-.087-.017l-.508-.018c-.095 0-.138.044-.152.149l-.058.509c-.015.158-.044.271-.246.227-.16-.035-.326-.043-.493-.079a2.328 2.328 0 01-.536-.184.226.226 0 01-.123-.193 1.8 1.8 0 01.022-.4 6.712 6.712 0 00.036-.99zm2.146-.377a.793.793 0 000-.131c-.022-.307-.029-.623-.073-.938a.938.938 0 00-.029-.149.109.109 0 00-.109-.1h-.1c-.08.008-.123.052-.138.149 0 .052-.007.114-.007.166-.015.184-.022.377-.044.561s-.036.368-.058.552a.6.6 0 00-.007.114c.007.061.036.087.087.087a.8.8 0 00.138-.018l.232-.017c.08-.009.109-.052.109-.157z" class="prefix__cls-4" data-name="Caminho 6427" transform="translate(-815.6 -2476.122)"/></g><g id="prefix__Grupo_4531" data-name="Grupo 4531" transform="translate(21.868 1.423)"><path id="prefix__Caminho_6428" d="M827.864 2483.966a5.657 5.657 0 01-.036.316.272.272 0 01-.065.167.189.189 0 01-.159.061c-.181 0-.355 0-.537-.009-.239-.017-.486-.062-.725-.062a1.249 1.249 0 01-.181 0 .184.184 0 01-.174-.175c-.015-.1-.015-.184-.022-.281-.007-.166.014-.333.022-.5l.036-.6c.008-.167.022-.324.037-.491l.014-.245c.008-.14.058-.219.174-.237a2.266 2.266 0 01.341-.044 4.267 4.267 0 01.747.053c.109.009.21.026.319.043.145.018.189.071.21.237.029.28.043.569.051.859-.016.294-.03.601-.052.908zm-.971-2.612l-.558-.044a.364.364 0 01-.094-.017.24.24 0 01-.167-.228v-.465a1.983 1.983 0 01.015-.3c.007-.272.015-.525.029-.789a.227.227 0 01.2-.245 1.629 1.629 0 01.413-.018l.37.018c.138.009.283.009.428.009a1.022 1.022 0 01.166 0c.116.017.145.061.167.192.014.167.022.325.029.482.007.141.014.272.014.413s-.014.28-.021.42l-.022.272-.029.123a.205.205 0 01-.159.14c-.036 0-.065.009-.1.009z" class="prefix__cls-4" data-name="Caminho 6428" transform="translate(-825.964 -2479.245)"/></g></g><g id="prefix__Grupo_4533" data-name="Grupo 4533" transform="translate(35.464 44.113)"><rect id="prefix__Retângulo_4862" width="54.007" height="18.333" class="prefix__cls-6" data-name="Retângulo 4862" rx="3.501" transform="translate(.752 .752)"/><path id="prefix__Caminho_6429" d="M820.872 2519.94h-48.809a3.354 3.354 0 01-3.351-3.351v-13.135a3.354 3.354 0 013.351-3.351h48.809a3.354 3.354 0 013.351 3.351v13.135a3.354 3.354 0 01-3.351 3.351zm-48.809-18.333a1.849 1.849 0 00-1.848 1.847v13.135a1.849 1.849 0 001.848 1.847h48.809a1.849 1.849 0 001.847-1.847v-13.135a1.849 1.849 0 00-1.847-1.847z" class="prefix__cls-3" data-name="Caminho 6429" transform="translate(-768.712 -2500.104)"/></g><g id="prefix__Grupo_4542" data-name="Grupo 4542" transform="translate(40.781 46.567)"><g id="prefix__Grupo_4534" data-name="Grupo 4534" transform="translate(0 3.705)"><path id="prefix__Caminho_6430" d="M781.288 2520.265a3.261 3.261 0 01.021-.451c.021-.3.052-.6.083-.913l.062-.676a7.8 7.8 0 01.156-1.1l.082-.614a10.253 10.253 0 01.217-1.126 2.961 2.961 0 00.073-.288.355.355 0 01.186-.288 1.733 1.733 0 01.31-.15 2.576 2.576 0 011.108-.138c.155.012.31-.013.456 0a3.106 3.106 0 01.59.05c.248.05.5.125.745.175a.359.359 0 01.28.338c.052.237.083.476.134.713l.166.813c.114.726.248 1.452.31 2.191.031.363.083.713.124 1.076.031.263.052.526.072.776l.114 1.239.134 1.2.052.663c.01.163-.01.3-.207.325a6.709 6.709 0 01-.508.063c-.31.025-.621.025-.942.038a1.669 1.669 0 00-.248.037c-.2.025-.321-.062-.363-.3a2.716 2.716 0 01-.031-.651 1.858 1.858 0 00-.01-.338.188.188 0 00-.156-.188.436.436 0 00-.124-.025l-.725-.025c-.134 0-.2.062-.217.212l-.083.726c-.021.226-.062.388-.352.325-.228-.049-.466-.062-.7-.113a3.306 3.306 0 01-.766-.262.326.326 0 01-.176-.276 2.668 2.668 0 01.031-.576 9.541 9.541 0 00.052-1.414zm3.064-.538a1.151 1.151 0 000-.188c-.031-.438-.041-.888-.1-1.339a1.259 1.259 0 00-.041-.213.157.157 0 00-.156-.15h-.145c-.114.013-.176.075-.2.213 0 .075-.011.163-.011.238-.021.263-.031.539-.062.8s-.052.525-.083.789a.8.8 0 00-.01.163c.01.088.052.125.124.125a1.184 1.184 0 00.2-.025l.331-.025c.114-.012.156-.075.156-.225z" class="prefix__cls-4" data-name="Caminho 6430" transform="translate(-781.146 -2514.508)"/></g><g id="prefix__Grupo_4535" data-name="Grupo 4535" transform="translate(6.304 3.705)"><path id="prefix__Caminho_6431" d="M796.031 2520.265a3.252 3.252 0 01.021-.451c.021-.3.052-.6.083-.913l.062-.676a7.766 7.766 0 01.155-1.1l.083-.614a10.154 10.154 0 01.217-1.126c.031-.1.051-.188.072-.288a.356.356 0 01.186-.288 1.734 1.734 0 01.31-.15 2.576 2.576 0 011.107-.138c.156.012.311-.013.456 0a3.1 3.1 0 01.59.05c.248.05.5.125.745.175a.359.359 0 01.28.338c.052.237.082.476.135.713l.166.813c.114.726.248 1.452.31 2.191.031.363.083.713.124 1.076.031.263.052.526.072.776l.114 1.239.135 1.2.051.663c.011.163-.01.3-.207.325a6.683 6.683 0 01-.507.063c-.311.025-.621.025-.942.038a1.667 1.667 0 00-.248.037c-.2.025-.321-.062-.363-.3a2.719 2.719 0 01-.031-.651 1.858 1.858 0 00-.01-.338.188.188 0 00-.155-.188.441.441 0 00-.124-.025l-.725-.025c-.134 0-.2.062-.217.212l-.083.726c-.021.226-.062.388-.352.325-.228-.049-.466-.062-.7-.113a3.307 3.307 0 01-.766-.262.326.326 0 01-.176-.276 2.637 2.637 0 01.031-.576 9.475 9.475 0 00.052-1.414zm3.064-.538a1.144 1.144 0 000-.188c-.031-.438-.041-.888-.1-1.339a1.174 1.174 0 00-.041-.213.157.157 0 00-.155-.15h-.145c-.114.013-.176.075-.2.213 0 .075-.011.163-.011.238-.02.263-.031.539-.062.8s-.052.525-.083.789a.808.808 0 00-.01.163c.01.088.052.125.124.125a1.18 1.18 0 00.2-.025l.331-.025c.114-.012.156-.075.156-.225z" class="prefix__cls-4" data-name="Caminho 6431" transform="translate(-795.889 -2514.508)"/></g><g id="prefix__Grupo_4536" data-name="Grupo 4536" transform="translate(12.608 3.705)"><path id="prefix__Caminho_6432" d="M810.774 2520.265a3.233 3.233 0 01.021-.451c.021-.3.052-.6.083-.913l.062-.676a7.748 7.748 0 01.155-1.1l.083-.614a10.238 10.238 0 01.217-1.126 2.749 2.749 0 00.073-.288.356.356 0 01.186-.288 1.738 1.738 0 01.31-.15 2.576 2.576 0 011.107-.138c.156.012.311-.013.456 0a3.1 3.1 0 01.59.05c.248.05.5.125.745.175a.359.359 0 01.28.338c.052.237.083.476.135.713l.165.813c.114.726.248 1.452.31 2.191.031.363.083.713.124 1.076.031.263.052.526.073.776l.114 1.239.134 1.2.052.663c.011.163-.01.3-.207.325a6.812 6.812 0 01-.507.063c-.31.025-.621.025-.942.038a1.67 1.67 0 00-.248.037c-.2.025-.321-.062-.362-.3a2.715 2.715 0 01-.031-.651 1.82 1.82 0 00-.01-.338.188.188 0 00-.155-.188.442.442 0 00-.124-.025l-.725-.025c-.135 0-.2.062-.218.212l-.083.726c-.021.226-.062.388-.352.325-.228-.049-.466-.062-.7-.113a3.309 3.309 0 01-.765-.262.324.324 0 01-.176-.276 2.63 2.63 0 01.031-.576 9.542 9.542 0 00.052-1.414zm3.064-.538a1.158 1.158 0 000-.188c-.031-.438-.042-.888-.1-1.339a1.258 1.258 0 00-.041-.213.157.157 0 00-.155-.15h-.145c-.114.013-.176.075-.2.213 0 .075-.01.163-.01.238-.021.263-.031.539-.062.8s-.052.525-.083.789a.8.8 0 00-.01.163c.01.088.052.125.124.125a1.183 1.183 0 00.2-.025l.331-.025c.114-.012.155-.075.155-.225z" class="prefix__cls-4" data-name="Caminho 6432" transform="translate(-810.633 -2514.508)"/></g><g id="prefix__Grupo_4537" data-name="Grupo 4537" transform="translate(18.991 7.174)"><path id="prefix__Caminho_6433" d="M826.865 2522.669c.166.012.363.038.549.038.145 0 .279-.025.414-.038a1.681 1.681 0 01.559-.037 3.094 3.094 0 00.487.05 3.8 3.8 0 00.538 0c.228-.025.269 0 .3.275.042.313.093.614.114.926a5.492 5.492 0 01-.021 1.164c-.031.237-.1.313-.31.313s-.393-.025-.59-.025c-.135 0-.269.012-.393.025l-.466.025c-.248 0-.507.012-.755.012-.269 0-.528 0-.8-.012l-.683-.05c-.155-.013-.207-.075-.227-.25a.446.446 0 01-.011-.125c-.01-.325-.01-.663-.01-1 0-.288 0-.576.01-.851 0-.051.011-.088.011-.125a.246.246 0 01.186-.226 2.452 2.452 0 01.321-.05z" class="prefix__cls-4" data-name="Caminho 6433" transform="translate(-825.561 -2522.621)"/></g><g id="prefix__Grupo_4538" data-name="Grupo 4538" transform="translate(23.991)"><path id="prefix__Caminho_6434" d="M840.6 2510.637a8.824 8.824 0 01-.032 1.052c-.01.112-.01.238-.01.35 0 .526-.01 1.052-.01 1.59v1.264c0 .313.01.613.02.926 0 .276-.01.538-.01.8 0 .2-.01.388-.01.589l.031.85c.01.138.01.276.01.426-.01.213-.083.313-.259.363a1.563 1.563 0 01-.414.088 3.687 3.687 0 01-.911-.025c-.166-.025-.341-.037-.507-.05h-.062c-.145-.025-.218-.113-.218-.288l.042-1.289c.01-.388.01-.764.01-1.151 0-.213-.01-.426-.021-.638 0-.125-.01-.263-.021-.388l-.021-.275a2.819 2.819 0 00-.01-.288c-.021-.163-.083-.238-.217-.226s-.248.025-.373.025a.7.7 0 01-.227-.012.216.216 0 01-.124-.2c0-.1.01-.2.01-.313.01-.175.021-.35.021-.526l.031-1.051a2.251 2.251 0 00-.011-.263.749.749 0 01.021-.15.133.133 0 01.114-.125.211.211 0 01.083-.025.487.487 0 00.352-.15 1.961 1.961 0 00.61-1.364 1.5 1.5 0 01.011-.213.217.217 0 01.186-.2c.145-.012.3-.024.445-.024s.311.024.466.024.29.013.425.013c.1.012.207 0 .31.012.155.012.228.087.248.288l.021.4zm1.8-4.643a3.48 3.48 0 01-.363-.025.11.11 0 01-.114-.125h.476z" class="prefix__cls-4" data-name="Caminho 6434" transform="translate(-837.254 -2505.843)"/></g><g id="prefix__Grupo_4539" data-name="Grupo 4539" transform="translate(27.987)"><path id="prefix__Caminho_6435" d="M849.942 2510.637a9.007 9.007 0 01-.031 1.052c-.011.112-.011.238-.011.35 0 .526-.01 1.052-.01 1.59v1.264c0 .313.01.613.021.926 0 .276-.011.538-.011.8 0 .2-.01.388-.01.589l.031.85c.01.138.01.276.01.426-.01.213-.083.313-.258.363a1.564 1.564 0 01-.414.088 3.685 3.685 0 01-.911-.025c-.165-.025-.342-.037-.507-.05h-.062c-.145-.025-.217-.113-.217-.288l.042-1.289c.01-.388.01-.764.01-1.151 0-.213-.01-.426-.021-.638 0-.125-.011-.263-.021-.388l-.021-.275a2.819 2.819 0 00-.01-.288c-.021-.163-.083-.238-.218-.226s-.248.025-.372.025a.7.7 0 01-.228-.012.215.215 0 01-.124-.2c0-.1.01-.2.01-.313.01-.175.021-.35.021-.526l.031-1.051a2.251 2.251 0 00-.011-.263.749.749 0 01.021-.15.133.133 0 01.114-.125.212.212 0 01.083-.025.485.485 0 00.352-.15 1.96 1.96 0 00.611-1.364 1.565 1.565 0 01.01-.213.219.219 0 01.186-.2c.145-.012.3-.024.445-.024s.311.024.466.024.29.013.425.013c.1.012.207 0 .311.012.155.012.227.087.248.288l.021.4zm1.8-4.643a3.46 3.46 0 01-.362-.025.109.109 0 01-.114-.125h.476z" class="prefix__cls-4" data-name="Caminho 6435" transform="translate(-846.599 -2505.843)"/></g><g id="prefix__Grupo_4540" data-name="Grupo 4540" transform="translate(31.982)"><path id="prefix__Caminho_6436" d="M859.287 2510.637a8.811 8.811 0 01-.032 1.052c-.01.112-.01.238-.01.35 0 .526-.01 1.052-.01 1.59v1.264c0 .313.01.613.021.926 0 .276-.01.538-.01.8 0 .2-.01.388-.01.589l.031.85c.01.138.01.276.01.426-.01.213-.083.313-.259.363a1.564 1.564 0 01-.414.088 3.688 3.688 0 01-.911-.025c-.166-.025-.341-.037-.507-.05h-.062c-.145-.025-.218-.113-.218-.288l.042-1.289c.01-.388.01-.764.01-1.151 0-.213-.01-.426-.021-.638 0-.125-.01-.263-.021-.388l-.021-.275a2.8 2.8 0 00-.01-.288c-.021-.163-.083-.238-.217-.226s-.248.025-.373.025a.7.7 0 01-.227-.012.216.216 0 01-.124-.2c0-.1.01-.2.01-.313.01-.175.021-.35.021-.526l.031-1.051a2.334 2.334 0 00-.011-.263.776.776 0 01.021-.15.134.134 0 01.114-.125.211.211 0 01.083-.025.487.487 0 00.352-.15 1.961 1.961 0 00.611-1.364 1.556 1.556 0 01.01-.213.218.218 0 01.186-.2c.145-.012.3-.024.445-.024s.31.024.466.024.29.013.425.013c.1.012.207 0 .31.012.155.012.227.087.248.288l.021.4zm1.8-4.643a3.48 3.48 0 01-.363-.025.11.11 0 01-.114-.125h.476z" class="prefix__cls-4" data-name="Caminho 6436" transform="translate(-855.943 -2505.843)"/></g><g id="prefix__Grupo_4541" data-name="Grupo 4541" transform="translate(35.978)"><path id="prefix__Caminho_6437" d="M868.631 2510.637a9.007 9.007 0 01-.031 1.052c-.011.112-.011.238-.011.35 0 .526-.01 1.052-.01 1.59v1.264c0 .313.01.613.021.926 0 .276-.011.538-.011.8 0 .2-.01.388-.01.589l.031.85c.01.138.01.276.01.426-.01.213-.083.313-.259.363a1.556 1.556 0 01-.414.088 3.683 3.683 0 01-.911-.025c-.165-.025-.342-.037-.508-.05h-.062c-.145-.025-.217-.113-.217-.288l.041-1.289c.01-.388.01-.764.01-1.151 0-.213-.01-.426-.021-.638 0-.125-.011-.263-.021-.388l-.021-.275a2.819 2.819 0 00-.01-.288c-.021-.163-.083-.238-.218-.226s-.248.025-.372.025a.7.7 0 01-.228-.012.216.216 0 01-.124-.2c0-.1.01-.2.01-.313.01-.175.021-.35.021-.526l.031-1.051a2.238 2.238 0 00-.011-.263.745.745 0 01.021-.15.133.133 0 01.114-.125.212.212 0 01.083-.025.485.485 0 00.352-.15 1.959 1.959 0 00.611-1.364 1.565 1.565 0 01.01-.213.219.219 0 01.187-.2c.145-.012.3-.024.445-.024s.311.024.466.024.29.013.425.013c.1.012.207 0 .31.012.155.012.228.087.248.288l.021.4zm1.8-4.643a3.466 3.466 0 01-.362-.025.109.109 0 01-.114-.125h.476z" class="prefix__cls-4" data-name="Caminho 6437" transform="translate(-865.288 -2505.843)"/></g></g></g></g></g></g></svg>