<svg id="Camada_1" data-name="Camada 1" xmlns="http://www.w3.org/2000/svg" xmlns:xlink="http://www.w3.org/1999/xlink" viewBox="0 0 881.02 881.02"><defs><style>.cls-1{opacity:0.22;}.cls-2{fill:#f2f2f2;}.cls-3{fill:#fff;}.cls-4{fill:url(#linear-gradient);}.cls-5{fill:#f48120;}.cls-6{fill:#ec1c24;}.cls-7{fill:#ffd200;}.cls-8{fill:#231f20;}</style><linearGradient id="linear-gradient" x1="440.51" x2="440.51" y2="881.02" gradientUnits="userSpaceOnUse"><stop offset="0" stop-color="#ffd200" stop-opacity="0.6"/><stop offset="1" stop-color="#ffd200"/></linearGradient></defs><title>icone-logo</title><g class="cls-1"><path class="cls-2" d="M711.66,575.25a20.25,20.25,0,0,0-20.33,20.18v80.41A20.14,20.14,0,0,1,671.23,696H611v-302a40.57,40.57,0,0,0-27.37-38.28l-5.94-2H671A20.36,20.36,0,0,1,691.33,374v61A20.33,20.33,0,0,0,732,435V373.52A60.52,60.52,0,0,0,671.47,313H453.91a15.9,15.9,0,0,0-2.16.44c-1-.08-1.89-.44-2.88-.44a40.35,40.35,0,0,0-40.28,40.34V716.46A40.65,40.65,0,0,0,436,754.81l121.22,40.47a41.5,41.5,0,0,0,12.81,1.88c22.2-.16,40-18.57,40-40.77V736.64h61.46A60.52,60.52,0,0,0,732,676.12V595.43A20.25,20.25,0,0,0,711.66,575.25Z" transform="translate(-210.98 -89.69)"/><path class="cls-2" d="M887.74,500.52l-81.33-81.33a20.32,20.32,0,0,0-34.7,14.37v61H690.64a20.33,20.33,0,1,0-.26,40.66h81.33v61a20.32,20.32,0,0,0,34.7,14.38l81.33-81.33A20.31,20.31,0,0,0,887.74,500.52Z" transform="translate(-210.98 -89.69)"/></g><rect class="cls-3" width="881.02" height="881.02" rx="187.41"/><rect class="cls-4" width="881.02" height="881.02" rx="187.41"/><path class="cls-5" d="M967.46,745.06l-10.53-97.17A30.34,30.34,0,0,0,935,623.16c-.45-.12-.9-.27-1.34-.43l-75-27.1a75.36,75.36,0,0,1-17.94-7.81,18.26,18.26,0,0,1-2.18-1.54L722.39,491.06c-7.18-4.79-16.51-5.81-23.16-5.81H531.35a47.85,47.85,0,0,0-32.44,12.62l-60.68,66.22c-.31.33-.62.65-1,1a61.69,61.69,0,0,1-23.71,13.89l-44,19.8a17,17,0,0,1-2.42.88,27.63,27.63,0,0,0-19.84,24.81L336.22,754.26a2.21,2.21,0,0,0,.57,1,1.94,1.94,0,0,0,1.44.63h35.4a88.39,88.39,0,0,1,56.28-64.44,269.15,269.15,0,0,0-41.34-6.79,27.66,27.66,0,0,1-13.79-49.94c21.93-15.85,58.78-35.34,109.74-38.23a44.9,44.9,0,0,1,33.82,12.8l48,47,28.81-.16a44.68,44.68,0,0,0,31.28-12.81c18.71-18.21,50.89-39.32,102-45.39l-4.36-8.19a17.34,17.34,0,0,0-19.6-8.67L683.6,586.4a18.38,18.38,0,0,1-9.08-35.62l20.9-5.33a54,54,0,0,1,61.12,27l39.2,73.65a136.69,136.69,0,0,1,128,17.82,18.38,18.38,0,0,1-21.7,29.66A100,100,0,0,0,813.23,679l5.68,10.66a87.87,87.87,0,0,1,110.44,66.3h29.28a9,9,0,0,0,8.91-10.26A5.78,5.78,0,0,1,967.46,745.06Z" transform="translate(-210.98 -89.69)"/><path class="cls-6" d="M652.05,669.66a81.21,81.21,0,0,1-56.91,23.22H565.93a36,36,0,0,1-25.32-10.32l-48-47a8.06,8.06,0,0,0-6-2.36,172.53,172.53,0,0,0-68.7,18.19c74.95,12.7,120.52,49.71,128.7,104.51H707.76a136.7,136.7,0,0,1,55.58-92.46l-16.12-30.27C697.46,635.56,668.14,654,652.05,669.66Z" transform="translate(-210.98 -89.69)"/><path class="cls-3" d="M459.82,755.92h47.93a51.39,51.39,0,1,0,0,36.75H459.82a18.38,18.38,0,1,1,0-36.75Z" transform="translate(-210.98 -89.69)"/><path class="cls-3" d="M843.16,722.91a52.65,52.65,0,0,0-6.31.42l22.53,42.33a18.38,18.38,0,1,1-32.44,17.27l-22.52-42.29a51.33,51.33,0,1,0,38.74-17.73Z" transform="translate(-210.98 -89.69)"/><path class="cls-7" d="M987.89,578.76l-16.81-11.24a92.22,92.22,0,0,1-37.81-52.76c-.07-.27-.14-.55-.2-.82l-22.13-100.7c-2.92-10.54-13.18-34-46.56-34h-44a2.47,2.47,0,0,0-2.47,2.47v24.37a23.72,23.72,0,0,1-23.7,23.7h-38a23.72,23.72,0,0,1-23.7-23.7V339A90.55,90.55,0,0,0,642,248.5H338.78a49.68,49.68,0,0,0-49.62,49.62V734.18a21.76,21.76,0,0,0,10.35,18.51c0-.37,0-.74.05-1.1l11.09-129.84a64.28,64.28,0,0,1,44.93-57l44-19.79a19.09,19.09,0,0,1,2.43-.89,24.84,24.84,0,0,0,9.65-5.36l60.66-66.2c.31-.33.63-.66,1-1a84.45,84.45,0,0,1,58.08-23H699.23c17.35,0,32.83,4.44,44.77,12.84.38.26.74.53,1.09.82l115.62,94.78a38.39,38.39,0,0,0,8.49,3.48c.45.13.9.27,1.34.43l75,27.11a67.07,67.07,0,0,1,47.81,55c0,.2,0,.39.07.6L1004,740.84a45.64,45.64,0,0,1-.48,15.08h10.32V627.29A58.29,58.29,0,0,0,987.89,578.76Z" transform="translate(-210.98 -89.69)"/><path class="cls-8" d="M1008.32,548.2,991.51,537a55.52,55.52,0,0,1-22.64-31.36L946.74,404.9c-.06-.27-.13-.54-.2-.82-8-29.79-33.78-61.63-82.16-61.63h-44a39.28,39.28,0,0,0-39.23,39.23V393h-11.9V339A127.36,127.36,0,0,0,642,211.75H338.78a86.47,86.47,0,0,0-86.37,86.37V734.18a58.55,58.55,0,0,0,58.49,58.49h62.73a88.12,88.12,0,0,0,172.37,0H724.87a18.38,18.38,0,0,0,18.38-18.38,99.74,99.74,0,0,1,37.57-78l5.64,10.6a88.11,88.11,0,1,0,142.89,85.77h85.48a35.78,35.78,0,0,0,35.74-35.74V627.29A95,95,0,0,0,1008.32,548.2ZM459.82,792.67h47.93a51.39,51.39,0,1,1,0-36.75H459.82a18.38,18.38,0,1,0,0,36.75Zm247.94-36.75H546.61c-8.18-54.8-53.75-91.81-128.7-104.51a172.53,172.53,0,0,1,68.7-18.19,8.06,8.06,0,0,1,6,2.36l48,47a36,36,0,0,0,25.32,10.32h29.21a81.21,81.21,0,0,0,56.91-23.22c16.09-15.65,45.41-34.1,95.17-36.47l16.12,30.27A136.7,136.7,0,0,0,707.76,755.92Zm135.4,69.76a51.31,51.31,0,0,1-38.74-85l22.52,42.29a18.38,18.38,0,1,0,32.44-17.27l-22.53-42.33a52.65,52.65,0,0,1,6.31-.42,51.39,51.39,0,1,1,0,102.77Zm122.26-72.86a8.87,8.87,0,0,1-6.79,3.1H929.35a87.87,87.87,0,0,0-110.44-66.3L813.23,679a100,100,0,0,1,88.86,14.63,18.38,18.38,0,0,0,21.7-29.66,136.69,136.69,0,0,0-128-17.82l-39.2-73.65a54,54,0,0,0-61.12-27l-20.9,5.33a18.38,18.38,0,0,0,9.08,35.62l20.89-5.33a17.34,17.34,0,0,1,19.6,8.67l4.36,8.19c-51.14,6.07-83.32,27.18-102,45.39a44.68,44.68,0,0,1-31.28,12.81l-28.81.16-48-47a44.9,44.9,0,0,0-33.82-12.8c-51,2.89-87.81,22.38-109.74,38.23a27.66,27.66,0,0,0,13.79,49.94,269.15,269.15,0,0,1,41.34,6.79,88.39,88.39,0,0,0-56.28,64.44h-35.4a1.94,1.94,0,0,1-1.44-.63,2.21,2.21,0,0,1-.57-1l11.09-129.83a27.63,27.63,0,0,1,19.84-24.81,17,17,0,0,0,2.42-.88l44-19.8a61.69,61.69,0,0,0,23.71-13.89c.33-.31.64-.63,1-1l60.68-66.22a47.85,47.85,0,0,1,32.44-12.62H699.23c6.65,0,16,1,23.16,5.81l116.15,95.22a18.26,18.26,0,0,0,2.18,1.54,75.36,75.36,0,0,0,17.94,7.81l75,27.1c.44.16.89.31,1.34.43a30.34,30.34,0,0,1,21.92,24.73l10.53,97.17a5.78,5.78,0,0,0,.08.6A8.92,8.92,0,0,1,965.42,752.82Zm48.39,3.1h-10.32a45.64,45.64,0,0,0,.48-15.08L993.43,643.6c0-.21,0-.4-.07-.6a67.07,67.07,0,0,0-47.81-55l-75-27.11c-.44-.16-.89-.3-1.34-.43a38.39,38.39,0,0,1-8.49-3.48L745.09,462.15c-.35-.29-.71-.56-1.09-.82-11.94-8.4-27.42-12.84-44.77-12.84H531.35a84.45,84.45,0,0,0-58.08,23c-.33.31-.65.64-1,1l-60.66,66.2a24.84,24.84,0,0,1-9.65,5.36,19.09,19.09,0,0,0-2.43.89l-44,19.79a64.28,64.28,0,0,0-44.93,57L299.56,751.59c0,.36,0,.73-.05,1.1a21.76,21.76,0,0,1-10.35-18.51V298.12a49.68,49.68,0,0,1,49.62-49.62H642A90.55,90.55,0,0,1,732.46,339v67.09a23.72,23.72,0,0,0,23.7,23.7h38a23.72,23.72,0,0,0,23.7-23.7V381.68a2.47,2.47,0,0,1,2.47-2.47h44c33.38,0,43.64,23.49,46.56,34l22.13,100.7c.06.27.13.55.2.82a92.22,92.22,0,0,0,37.81,52.76l16.81,11.24a58.29,58.29,0,0,1,25.92,48.53Z" transform="translate(-210.98 -89.69)"/></svg>