<svg id="Camada_1" data-name="Camada 1" xmlns="http://www.w3.org/2000/svg" viewBox="0 0 56.85 34.72"><defs><style>.cls-1{fill:#1d1e1c;}</style></defs><title>atendimento</title><path class="cls-1" d="M353.12,223.42H305.69a1.43,1.43,0,0,0-1.48,1.35V252.9a1.43,1.43,0,0,0,1.48,1.36h47.43a1.42,1.42,0,0,0,1.48-1.36V224.77A1.43,1.43,0,0,0,353.12,223.42Zm-.66,28.16H306.35V226h46.11Z" transform="translate(-300.98 -223.42)"/><path class="cls-1" d="M357.83,255.33a2.7,2.7,0,0,1-2.57,2.81H303.54a2.7,2.7,0,0,1-2.56-2.81Z" transform="translate(-300.98 -223.42)"/><path class="cls-1" d="M338.14,236.74a14.62,14.62,0,0,0-3.33-.47h-.68v.11a22.13,22.13,0,0,1,.2,2.93v.11h.1c3.32-.2,6.77-.47,7-.55a.14.14,0,0,0,.11-.14C341.5,238.33,339,237,338.14,236.74Zm-3.6,2.45a22.39,22.39,0,0,0-.19-2.73h.46a14.23,14.23,0,0,1,3.28.46,11.11,11.11,0,0,1,3.19,1.75C340.82,238.75,338,239,334.54,239.19Zm3.6-2.45a14.62,14.62,0,0,0-3.33-.47h-.68v.11a22.13,22.13,0,0,1,.2,2.93v.11h.1c3.32-.2,6.77-.47,7-.55a.14.14,0,0,0,.11-.14C341.5,238.33,339,237,338.14,236.74Zm-3.6,2.45a22.39,22.39,0,0,0-.19-2.73h.46a14.23,14.23,0,0,1,3.28.46,11.11,11.11,0,0,1,3.19,1.75C340.82,238.75,338,239,334.54,239.19Zm3.6-2.45a14.62,14.62,0,0,0-3.33-.47h-.68v.11a22.13,22.13,0,0,1,.2,2.93v.11h.1c3.32-.2,6.77-.47,7-.55a.14.14,0,0,0,.11-.14C341.5,238.33,339,237,338.14,236.74Zm-3.6,2.45a22.39,22.39,0,0,0-.19-2.73h.46a14.23,14.23,0,0,1,3.28.46,11.11,11.11,0,0,1,3.19,1.75C340.82,238.75,338,239,334.54,239.19Zm3.6-2.45a14.62,14.62,0,0,0-3.33-.47h-.68v.11a22.13,22.13,0,0,1,.2,2.93v.11h.1c3.32-.2,6.77-.47,7-.55a.14.14,0,0,0,.11-.14C341.5,238.33,339,237,338.14,236.74Zm-3.6,2.45a22.39,22.39,0,0,0-.19-2.73h.46a14.23,14.23,0,0,1,3.28.46,11.11,11.11,0,0,1,3.19,1.75C340.82,238.75,338,239,334.54,239.19Zm3.6-2.45a14.62,14.62,0,0,0-3.33-.47h-.68v.11a22.13,22.13,0,0,1,.2,2.93v.11h.1c3.32-.2,6.77-.47,7-.55a.14.14,0,0,0,.11-.14C341.5,238.33,339,237,338.14,236.74Zm-3.6,2.45a22.39,22.39,0,0,0-.19-2.73h.46a14.23,14.23,0,0,1,3.28.46,11.11,11.11,0,0,1,3.19,1.75C340.82,238.75,338,239,334.54,239.19Zm-15.6,2.71-.05-.19a3.43,3.43,0,0,0-2.63,3.34,3.39,3.39,0,0,0,.05.64H314.8c-.43,0-.43,0-.89,0l-.46,0a.93.93,0,0,1-.49-.12l-.08-.09v0a.33.33,0,0,0,0-.06,1,1,0,0,1,0-.24.08.08,0,0,0,0,0,0,0,0,0,0,0,0h0v0l0-.06,0,0v0s0,0,0-.07v0l0,0a.66.66,0,0,0,.05-.15.83.83,0,0,0,0-.13c0-.26,0-.49,0-.71v-.4a1,1,0,0,0,0-.17v-.09a.19.19,0,0,0,0-.08.86.86,0,0,1,0-.15.76.76,0,0,1,0-.14.13.13,0,0,1,0-.06v-.06a1.36,1.36,0,0,1,0-.2,2.14,2.14,0,0,1,.53-1.21l.21-.29c.33-.46,2.44-.76,4.45-1l-.06-.19c-2.14.22-4.18.51-4.55,1-.08.11-.14.21-.21.29a2.32,2.32,0,0,0-.56,1.3l0,.21v.06a.21.21,0,0,0,0,.06.76.76,0,0,0,0,.14,1,1,0,0,0,0,.17v.17a.86.86,0,0,1,0,.15v.42c0,.21,0,.45,0,.71a.38.38,0,0,1,0,.1s0,.05,0,.1,0,0,0,0a.24.24,0,0,0,0,.07l0,0a.06.06,0,0,0,0,0,.21.21,0,0,0,0,.07s0,0,0,.06l0,.09a.81.81,0,0,0,0,.35,1,1,0,0,0,0,.1l0,0a.79.79,0,0,0,.13.14,1.07,1.07,0,0,0,.6.17l.45,0c.48,0,.48,0,.91,0h1.76l0-.12a3.53,3.53,0,0,1-.08-.72A3.25,3.25,0,0,1,318.94,241.9Zm30.56.29c0-.05,0-.1-.05-.17a.08.08,0,0,1,0-.05l-.06-.14s0-.05,0-.05l0-.06,0,0,0-.06a.41.41,0,0,1-.1-.14v0a.43.43,0,0,1,0-.17.71.71,0,0,0,0-.14v-.08c0-.07,0-.13-.05-.2s0,0,0,0l-.11-.5-.06-.17,0-.12,0-.09c-.06-.24-.13-.44-.18-.59a.61.61,0,0,1,0-.11l0,0v0c-.05-.11-.21-.14-1-.24a11.74,11.74,0,0,1-2.26-.44l-.52-.21a27.88,27.88,0,0,0-10.56-2.4h-.81c-3.17,0-3.35,0-4.05.25a50.77,50.77,0,0,0-5,2.38c-.63.3-1.12.56-1.28.62a8.84,8.84,0,0,1-1.9.32l0,.2a9.71,9.71,0,0,0,2-.33l1.29-.64a50.39,50.39,0,0,1,5-2.35c.68-.22.85-.27,4-.25h.46a1.85,1.85,0,0,1,.33,0,27.58,27.58,0,0,1,10.5,2.38l.53.22a11.52,11.52,0,0,0,2.31.45c.36.05.75.09.86.13v0a.28.28,0,0,1,0,.11,6,6,0,0,1,.18.58.46.46,0,0,1,0,.09l0,.11a1.06,1.06,0,0,0,.06.19l.1.41a.23.23,0,0,0,0,.07v0a1,1,0,0,1,0,.17.2.2,0,0,0,0,.07v.13a.69.69,0,0,0,0,.25,0,0,0,0,1,0,0,.72.72,0,0,0,.14.2h0a.07.07,0,0,0,0,0l0,0,0,.06,0,0a1,1,0,0,1,.06.14v0l.05.14a6.75,6.75,0,0,1,0,2.26l0,0a1.33,1.33,0,0,0-.31.18l-.14.11-.05,0,0,0-.08.06-.09.06-.09.06-.19.1-.15.09a3.52,3.52,0,0,1-.69.22l-.09,0-.11,0h0l-.05,0c-.33.07-.67.11-.9.15a3,3,0,0,0,.06-.62,3.43,3.43,0,1,0-6.85,0,3.39,3.39,0,0,0,.06.64H323a3.81,3.81,0,0,0,.06-.64,3.44,3.44,0,0,0-2.22-3.21l0,.21a3.23,3.23,0,0,1,2,3.72l0,.12h17l0-.12a2.94,2.94,0,0,1-.08-.72,3.23,3.23,0,1,1,6.45,0,2.2,2.2,0,0,1-.09.7v.13h.13a10.57,10.57,0,0,0,1.07-.17h.06l.1,0,.09,0a3.1,3.1,0,0,0,.73-.24l.16-.09.21-.11a.19.19,0,0,1,.09-.05l.11-.08.1-.07.06,0,.14-.1a1,1,0,0,1,.23-.14h.06l0,0,.07-.1A6.75,6.75,0,0,0,349.5,242.19Z" transform="translate(-300.98 -223.42)"/><path class="cls-1" d="M329.61,239.46c.69,0,1.45-.06,2.26-.11Zm3.95-3h0Z" transform="translate(-300.98 -223.42)"/><path class="cls-1" d="M334.18,238.5c0-.17,0-.35,0-.54,0-.5-.09-1-.16-1.62l0-.09h-.09l-1.55,0a18.74,18.74,0,0,0-2.38.1,7.68,7.68,0,0,0-1.11.4l-.58.24a17.8,17.8,0,0,0-4.3,2.31.16.16,0,0,0,0,.15.18.18,0,0,0,.08.11l.08,0,.06,0a6.56,6.56,0,0,0,1.3.12h.87c2.15,0,5.42-.16,7.78-.31h.1v-.1C334.2,239.06,334.2,238.79,334.18,238.5Zm-8.1.73c-.12,0-.22-.08-.29,0a.12.12,0,0,0-.06.13c0,.08.07.14.17.21h-.44a8,8,0,0,1-1.12-.08l.06-.06a7.51,7.51,0,0,1,1.09-.8l.29-.16a1.51,1.51,0,0,1,.42-.11s.23,0,.23.13a5.23,5.23,0,0,1-.06.71c0,.16-.06.16-.08.16A.46.46,0,0,1,326.08,239.23Zm7,.06-.48,0-.73,0c-.81.05-1.57.08-2.26.11h-.47l-.57,0-.73,0h-1.57l0,0h.05c.09,0,.25,0,.28-.33a5.94,5.94,0,0,0,.06-.74c0-.21-.19-.31-.39-.33l.6-.28a2.49,2.49,0,0,1,.33-.16l.49-.22.38-.17c.65-.28,1.23-.51,1.59-.64l.12,0,.17-.06H330l.21,0,.66,0c.39,0,.89,0,1.48,0h1.47a22.5,22.5,0,0,1,.19,2.78Z" transform="translate(-300.98 -223.42)"/><path class="cls-1" d="M313.74,242.49H313v-.11a2.34,2.34,0,0,1,.57-1.29l.07-.11h.69c.34,0,.78,0,1.21,0h.12l0,.12c-.15.59-.35,1.13-1,1.3A4.64,4.64,0,0,1,313.74,242.49Zm-.56-.21h.56a3.52,3.52,0,0,0,.78-.07c.53-.12.71-.54.85-1-.39,0-.78,0-1.08,0h-.59v0A2.16,2.16,0,0,0,313.18,242.28Z" transform="translate(-300.98 -223.42)"/><path class="cls-1" d="M317.66,244.61l0,.11a3.11,3.11,0,0,0,0,.33,2,2,0,0,0,.61,1.46l.08.08.64-.88.23-.31.16-.25Zm.61,1.67a1.85,1.85,0,0,1-.47-1.23c0-.06,0-.12,0-.18l.82.26.39.13Zm1.08-3.28a2.09,2.09,0,0,0-1.51,1.08l-.06.11,1,.33.37.13.28.09V243Zm-.08,1.47-1.19-.39a1.82,1.82,0,0,1,1.19-.86Zm.41.28a.3.3,0,0,0-.29.3.29.29,0,0,0,.29.29.3.3,0,1,0,0-.59Zm.41,1.21-.41-.55-1,1.44.1.06a2.06,2.06,0,0,0,.94.22,2.23,2.23,0,0,0,.94-.22l.1-.06Zm-1.15.82.74-1,.74,1A1.82,1.82,0,0,1,318.94,246.78Zm2.59-2.7A2.12,2.12,0,0,0,320,243l-.12,0v1.76l1.67-.55Zm-1.43.39v-1.25a1.84,1.84,0,0,1,1.19.86Zm1.63.26,0-.11-1.66.53,1,1.44.09-.08a2.12,2.12,0,0,0,.59-1.46A1.66,1.66,0,0,0,321.73,244.73Zm-.62,1.55-.74-1v0l1.19-.38a.91.91,0,0,1,0,.17A1.81,1.81,0,0,1,321.11,246.28Zm-3.45-1.67,0,.11a3.11,3.11,0,0,0,0,.33,2,2,0,0,0,.61,1.46l.08.08.64-.88.23-.31.16-.25Zm.61,1.67a1.85,1.85,0,0,1-.47-1.23c0-.06,0-.12,0-.18l.82.26.39.13Zm1.08-3.28a2.09,2.09,0,0,0-1.51,1.08l-.06.11,1,.33.37.13.28.09V243Zm-.08,1.47-1.19-.39a1.82,1.82,0,0,1,1.19-.86Zm.41.28a.3.3,0,0,0-.29.3.29.29,0,0,0,.29.29.3.3,0,1,0,0-.59Zm.41,1.21-.41-.55-1,1.44.1.06a2.06,2.06,0,0,0,.94.22,2.23,2.23,0,0,0,.94-.22l.1-.06Zm-1.15.82.74-1,.74,1A1.82,1.82,0,0,1,318.94,246.78Zm2.59-2.7A2.12,2.12,0,0,0,320,243l-.12,0v1.76l1.67-.55Zm-1.43.39v-1.25a1.84,1.84,0,0,1,1.19.86Zm1.63.26,0-.11-1.66.53,1,1.44.09-.08a2.12,2.12,0,0,0,.59-1.46A1.66,1.66,0,0,0,321.73,244.73Zm-.62,1.55-.74-1v0l1.19-.38a.91.91,0,0,1,0,.17A1.81,1.81,0,0,1,321.11,246.28Zm-3.45-1.67,0,.11a3.11,3.11,0,0,0,0,.33,2,2,0,0,0,.61,1.46l.08.08.64-.88.23-.31.16-.25Zm.61,1.67a1.85,1.85,0,0,1-.47-1.23c0-.06,0-.12,0-.18l.82.26.39.13Zm1.08-3.28a2.09,2.09,0,0,0-1.51,1.08l-.06.11,1,.33.37.13.28.09V243Zm-.08,1.47-1.19-.39a1.82,1.82,0,0,1,1.19-.86Zm.41.28a.3.3,0,0,0-.29.3.29.29,0,0,0,.29.29.3.3,0,1,0,0-.59Zm.41,1.21-.41-.55-1,1.44.1.06a2.06,2.06,0,0,0,.94.22,2.23,2.23,0,0,0,.94-.22l.1-.06Zm-1.15.82.74-1,.74,1A1.82,1.82,0,0,1,318.94,246.78Zm2.59-2.7A2.12,2.12,0,0,0,320,243l-.12,0v1.76l1.67-.55Zm-1.43.39v-1.25a1.84,1.84,0,0,1,1.19.86Zm1.63.26,0-.11-1.66.53,1,1.44.09-.08a2.12,2.12,0,0,0,.59-1.46A1.66,1.66,0,0,0,321.73,244.73Zm-.62,1.55-.74-1v0l1.19-.38a.91.91,0,0,1,0,.17A1.81,1.81,0,0,1,321.11,246.28Zm-.29-3.79,0,.22a2.6,2.6,0,1,1-1.67-.19l-.06-.19a2.77,2.77,0,1,0,1.75.16Zm.35,4a2.12,2.12,0,0,0,.59-1.46,1.66,1.66,0,0,0,0-.32l0-.11-1.66.53,1,1.44Zm-.81-1.25,1.19-.38a.91.91,0,0,1,0,.17,1.81,1.81,0,0,1-.45,1.23l-.74-1Zm1.17-1.18A2.12,2.12,0,0,0,320,243l-.12,0v1.76l1.67-.55Zm-1.43.39v-1.25a1.84,1.84,0,0,1,1.19.86Zm-.42,2.66a2.23,2.23,0,0,0,.94-.22l.1-.06-.63-.89-.41-.55-1,1.44.1.06A2.06,2.06,0,0,0,319.68,247.13Zm0-1.38.74,1a1.82,1.82,0,0,1-1.48,0Zm0-.41a.3.3,0,1,0-.29-.29A.29.29,0,0,0,319.68,245.34Zm-1.84-1.26-.06.11,1,.33.37.13.28.09V243h-.12A2.09,2.09,0,0,0,317.84,244.08Zm1.43-.86v1.25l-1.19-.39A1.82,1.82,0,0,1,319.27,243.22Zm.05,1.93-1.66-.54,0,.11a3.11,3.11,0,0,0,0,.33,2,2,0,0,0,.61,1.46l.08.08.64-.88.23-.31Zm-1.05,1.13a1.85,1.85,0,0,1-.47-1.23c0-.06,0-.12,0-.18l.82.26.39.13Zm3.46-1.55,0-.11-1.66.53,1,1.44.09-.08a2.12,2.12,0,0,0,.59-1.46A1.66,1.66,0,0,0,321.73,244.73Zm-.62,1.55-.74-1v0l1.19-.38a.91.91,0,0,1,0,.17A1.81,1.81,0,0,1,321.11,246.28Zm.42-2.2A2.12,2.12,0,0,0,320,243l-.12,0v1.76l1.67-.55Zm-1.43.39v-1.25a1.84,1.84,0,0,1,1.19.86Zm0,1.49-.41-.55-1,1.44.1.06a2.06,2.06,0,0,0,.94.22,2.23,2.23,0,0,0,.94-.22l.1-.06Zm-1.15.82.74-1,.74,1A1.82,1.82,0,0,1,318.94,246.78Zm.74-2a.3.3,0,0,0-.29.3.29.29,0,0,0,.29.29.3.3,0,1,0,0-.59Zm-.33-1.75a2.09,2.09,0,0,0-1.51,1.08l-.06.11,1,.33.37.13.28.09V243Zm-.08,1.47-1.19-.39a1.82,1.82,0,0,1,1.19-.86Zm-1.61.14,0,.11a3.11,3.11,0,0,0,0,.33,2,2,0,0,0,.61,1.46l.08.08.64-.88.23-.31.16-.25Zm.61,1.67a1.85,1.85,0,0,1-.47-1.23c0-.06,0-.12,0-.18l.82.26.39.13Zm3.46-1.55,0-.11-1.66.53,1,1.44.09-.08a2.12,2.12,0,0,0,.59-1.46A1.66,1.66,0,0,0,321.73,244.73Zm-.62,1.55-.74-1v0l1.19-.38a.91.91,0,0,1,0,.17A1.81,1.81,0,0,1,321.11,246.28Zm.42-2.2A2.12,2.12,0,0,0,320,243l-.12,0v1.76l1.67-.55Zm-1.43.39v-1.25a1.84,1.84,0,0,1,1.19.86Zm0,1.49-.41-.55-1,1.44.1.06a2.06,2.06,0,0,0,.94.22,2.23,2.23,0,0,0,.94-.22l.1-.06Zm-1.15.82.74-1,.74,1A1.82,1.82,0,0,1,318.94,246.78Zm.74-2a.3.3,0,0,0-.29.3.29.29,0,0,0,.29.29.3.3,0,1,0,0-.59Zm-.33-1.75a2.09,2.09,0,0,0-1.51,1.08l-.06.11,1,.33.37.13.28.09V243Zm-.08,1.47-1.19-.39a1.82,1.82,0,0,1,1.19-.86Zm-1.61.14,0,.11a3.11,3.11,0,0,0,0,.33,2,2,0,0,0,.61,1.46l.08.08.64-.88.23-.31.16-.25Zm.61,1.67a1.85,1.85,0,0,1-.47-1.23c0-.06,0-.12,0-.18l.82.26.39.13Zm3.46-1.55,0-.11-1.66.53,1,1.44.09-.08a2.12,2.12,0,0,0,.59-1.46A1.66,1.66,0,0,0,321.73,244.73Zm-.62,1.55-.74-1v0l1.19-.38a.91.91,0,0,1,0,.17A1.81,1.81,0,0,1,321.11,246.28Zm.42-2.2A2.12,2.12,0,0,0,320,243l-.12,0v1.76l1.67-.55Zm-1.43.39v-1.25a1.84,1.84,0,0,1,1.19.86Zm0,1.49-.41-.55-1,1.44.1.06a2.06,2.06,0,0,0,.94.22,2.23,2.23,0,0,0,.94-.22l.1-.06Zm-1.15.82.74-1,.74,1A1.82,1.82,0,0,1,318.94,246.78Zm.74-2a.3.3,0,0,0-.29.3.29.29,0,0,0,.29.29.3.3,0,1,0,0-.59Zm-.33-1.75a2.09,2.09,0,0,0-1.51,1.08l-.06.11,1,.33.37.13.28.09V243Zm-.08,1.47-1.19-.39a1.82,1.82,0,0,1,1.19-.86Zm-1.61.14,0,.11a3.11,3.11,0,0,0,0,.33,2,2,0,0,0,.61,1.46l.08.08.64-.88.23-.31.16-.25Zm.61,1.67a1.85,1.85,0,0,1-.47-1.23c0-.06,0-.12,0-.18l.82.26.39.13Zm-.61-1.67,0,.11a3.11,3.11,0,0,0,0,.33,2,2,0,0,0,.61,1.46l.08.08.64-.88.23-.31.16-.25Zm.61,1.67a1.85,1.85,0,0,1-.47-1.23c0-.06,0-.12,0-.18l.82.26.39.13Zm1.08-3.28a2.09,2.09,0,0,0-1.51,1.08l-.06.11,1,.33.37.13.28.09V243Zm-.08,1.47-1.19-.39a1.82,1.82,0,0,1,1.19-.86Zm.41.28a.3.3,0,0,0-.29.3.29.29,0,0,0,.29.29.3.3,0,1,0,0-.59Zm.41,1.21-.41-.55-1,1.44.1.06a2.06,2.06,0,0,0,.94.22,2.23,2.23,0,0,0,.94-.22l.1-.06Zm-1.15.82.74-1,.74,1A1.82,1.82,0,0,1,318.94,246.78Zm2.59-2.7A2.12,2.12,0,0,0,320,243l-.12,0v1.76l1.67-.55Zm-1.43.39v-1.25a1.84,1.84,0,0,1,1.19.86Zm1.63.26,0-.11-1.66.53,1,1.44.09-.08a2.12,2.12,0,0,0,.59-1.46A1.66,1.66,0,0,0,321.73,244.73Zm-.62,1.55-.74-1v0l1.19-.38a.91.91,0,0,1,0,.17A1.81,1.81,0,0,1,321.11,246.28Zm.62-1.55,0-.11-1.66.53,1,1.44.09-.08a2.12,2.12,0,0,0,.59-1.46A1.66,1.66,0,0,0,321.73,244.73Zm-.62,1.55-.74-1v0l1.19-.38a.91.91,0,0,1,0,.17A1.81,1.81,0,0,1,321.11,246.28Zm.42-2.2A2.12,2.12,0,0,0,320,243l-.12,0v1.76l1.67-.55Zm-1.43.39v-1.25a1.84,1.84,0,0,1,1.19.86Zm0,1.49-.41-.55-1,1.44.1.06a2.06,2.06,0,0,0,.94.22,2.23,2.23,0,0,0,.94-.22l.1-.06Zm-1.15.82.74-1,.74,1A1.82,1.82,0,0,1,318.94,246.78Zm.74-2a.3.3,0,0,0-.29.3.29.29,0,0,0,.29.29.3.3,0,1,0,0-.59Zm-.33-1.75a2.09,2.09,0,0,0-1.51,1.08l-.06.11,1,.33.37.13.28.09V243Zm-.08,1.47-1.19-.39a1.82,1.82,0,0,1,1.19-.86Zm-1.61.14,0,.11a3.11,3.11,0,0,0,0,.33,2,2,0,0,0,.61,1.46l.08.08.64-.88.23-.31.16-.25Zm.61,1.67a1.85,1.85,0,0,1-.47-1.23c0-.06,0-.12,0-.18l.82.26.39.13Zm-.61-1.67,0,.11a3.11,3.11,0,0,0,0,.33,2,2,0,0,0,.61,1.46l.08.08.64-.88.23-.31.16-.25Zm.61,1.67a1.85,1.85,0,0,1-.47-1.23c0-.06,0-.12,0-.18l.82.26.39.13Zm1.08-3.28a2.09,2.09,0,0,0-1.51,1.08l-.06.11,1,.33.37.13.28.09V243Zm-.08,1.47-1.19-.39a1.82,1.82,0,0,1,1.19-.86Zm.41.28a.3.3,0,0,0-.29.3.29.29,0,0,0,.29.29.3.3,0,1,0,0-.59Zm.41,1.21-.41-.55-1,1.44.1.06a2.06,2.06,0,0,0,.94.22,2.23,2.23,0,0,0,.94-.22l.1-.06Zm-1.15.82.74-1,.74,1A1.82,1.82,0,0,1,318.94,246.78Zm2.59-2.7A2.12,2.12,0,0,0,320,243l-.12,0v1.76l1.67-.55Zm-1.43.39v-1.25a1.84,1.84,0,0,1,1.19.86Zm1.63.26,0-.11-1.66.53,1,1.44.09-.08a2.12,2.12,0,0,0,.59-1.46A1.66,1.66,0,0,0,321.73,244.73Zm-.62,1.55-.74-1v0l1.19-.38a.91.91,0,0,1,0,.17A1.81,1.81,0,0,1,321.11,246.28Zm.62-1.55,0-.11-1.66.53,1,1.44.09-.08a2.12,2.12,0,0,0,.59-1.46A1.66,1.66,0,0,0,321.73,244.73Zm-.62,1.55-.74-1v0l1.19-.38a.91.91,0,0,1,0,.17A1.81,1.81,0,0,1,321.11,246.28Zm.42-2.2A2.12,2.12,0,0,0,320,243l-.12,0v1.76l1.67-.55Zm-1.43.39v-1.25a1.84,1.84,0,0,1,1.19.86Zm0,1.49-.41-.55-1,1.44.1.06a2.06,2.06,0,0,0,.94.22,2.23,2.23,0,0,0,.94-.22l.1-.06Zm-1.15.82.74-1,.74,1A1.82,1.82,0,0,1,318.94,246.78Zm.74-2a.3.3,0,0,0-.29.3.29.29,0,0,0,.29.29.3.3,0,1,0,0-.59Zm-.33-1.75a2.09,2.09,0,0,0-1.51,1.08l-.06.11,1,.33.37.13.28.09V243Zm-.08,1.47-1.19-.39a1.82,1.82,0,0,1,1.19-.86Zm-1.61.14,0,.11a3.11,3.11,0,0,0,0,.33,2,2,0,0,0,.61,1.46l.08.08.64-.88.23-.31.16-.25Zm.61,1.67a1.85,1.85,0,0,1-.47-1.23c0-.06,0-.12,0-.18l.82.26.39.13Zm-.61-1.67,0,.11a3.11,3.11,0,0,0,0,.33,2,2,0,0,0,.61,1.46l.08.08.64-.88.23-.31.16-.25Zm.61,1.67a1.85,1.85,0,0,1-.47-1.23c0-.06,0-.12,0-.18l.82.26.39.13Zm1.08-3.28a2.09,2.09,0,0,0-1.51,1.08l-.06.11,1,.33.37.13.28.09V243Zm-.08,1.47-1.19-.39a1.82,1.82,0,0,1,1.19-.86Zm.41.28a.3.3,0,0,0-.29.3.29.29,0,0,0,.29.29.3.3,0,1,0,0-.59Zm.41,1.21-.41-.55-1,1.44.1.06a2.06,2.06,0,0,0,.94.22,2.23,2.23,0,0,0,.94-.22l.1-.06Zm-1.15.82.74-1,.74,1A1.82,1.82,0,0,1,318.94,246.78Zm2.59-2.7A2.12,2.12,0,0,0,320,243l-.12,0v1.76l1.67-.55Zm-1.43.39v-1.25a1.84,1.84,0,0,1,1.19.86Zm1.63.26,0-.11-1.66.53,1,1.44.09-.08a2.12,2.12,0,0,0,.59-1.46A1.66,1.66,0,0,0,321.73,244.73Zm-.62,1.55-.74-1v0l1.19-.38a.91.91,0,0,1,0,.17A1.81,1.81,0,0,1,321.11,246.28Zm.62-1.55,0-.11-1.66.53,1,1.44.09-.08a2.12,2.12,0,0,0,.59-1.46A1.66,1.66,0,0,0,321.73,244.73Zm-.62,1.55-.74-1v0l1.19-.38a.91.91,0,0,1,0,.17A1.81,1.81,0,0,1,321.11,246.28Zm.42-2.2A2.12,2.12,0,0,0,320,243l-.12,0v1.76l1.67-.55Zm-1.43.39v-1.25a1.84,1.84,0,0,1,1.19.86Zm0,1.49-.41-.55-1,1.44.1.06a2.06,2.06,0,0,0,.94.22,2.23,2.23,0,0,0,.94-.22l.1-.06Zm-1.15.82.74-1,.74,1A1.82,1.82,0,0,1,318.94,246.78Zm.74-2a.3.3,0,0,0-.29.3.29.29,0,0,0,.29.29.3.3,0,1,0,0-.59Zm-.33-1.75a2.09,2.09,0,0,0-1.51,1.08l-.06.11,1,.33.37.13.28.09V243Zm-.08,1.47-1.19-.39a1.82,1.82,0,0,1,1.19-.86Zm-1.61.14,0,.11a3.11,3.11,0,0,0,0,.33,2,2,0,0,0,.61,1.46l.08.08.64-.88.23-.31.16-.25Zm.61,1.67a1.85,1.85,0,0,1-.47-1.23c0-.06,0-.12,0-.18l.82.26.39.13Zm-.61-1.67,0,.11a3.11,3.11,0,0,0,0,.33,2,2,0,0,0,.61,1.46l.08.08.64-.88.23-.31.16-.25Zm.61,1.67a1.85,1.85,0,0,1-.47-1.23c0-.06,0-.12,0-.18l.82.26.39.13Zm1.08-3.28a2.09,2.09,0,0,0-1.51,1.08l-.06.11,1,.33.37.13.28.09V243Zm-.08,1.47-1.19-.39a1.82,1.82,0,0,1,1.19-.86Zm.41.28a.3.3,0,0,0-.29.3.29.29,0,0,0,.29.29.3.3,0,1,0,0-.59Zm.41,1.21-.41-.55-1,1.44.1.06a2.06,2.06,0,0,0,.94.22,2.23,2.23,0,0,0,.94-.22l.1-.06Zm-1.15.82.74-1,.74,1A1.82,1.82,0,0,1,318.94,246.78Zm2.59-2.7A2.12,2.12,0,0,0,320,243l-.12,0v1.76l1.67-.55Zm-1.43.39v-1.25a1.84,1.84,0,0,1,1.19.86Zm1.63.26,0-.11-1.66.53,1,1.44.09-.08a2.12,2.12,0,0,0,.59-1.46A1.66,1.66,0,0,0,321.73,244.73Zm-.62,1.55-.74-1v0l1.19-.38a.91.91,0,0,1,0,.17A1.81,1.81,0,0,1,321.11,246.28Zm.62-1.55,0-.11-1.66.53,1,1.44.09-.08a2.12,2.12,0,0,0,.59-1.46A1.66,1.66,0,0,0,321.73,244.73Zm-.62,1.55-.74-1v0l1.19-.38a.91.91,0,0,1,0,.17A1.81,1.81,0,0,1,321.11,246.28Zm.42-2.2A2.12,2.12,0,0,0,320,243l-.12,0v1.76l1.67-.55Zm-1.43.39v-1.25a1.84,1.84,0,0,1,1.19.86Zm0,1.49-.41-.55-1,1.44.1.06a2.06,2.06,0,0,0,.94.22,2.23,2.23,0,0,0,.94-.22l.1-.06Zm-1.15.82.74-1,.74,1A1.82,1.82,0,0,1,318.94,246.78Zm.74-2a.3.3,0,0,0-.29.3.29.29,0,0,0,.29.29.3.3,0,1,0,0-.59Zm-.33-1.75a2.09,2.09,0,0,0-1.51,1.08l-.06.11,1,.33.37.13.28.09V243Zm-.08,1.47-1.19-.39a1.82,1.82,0,0,1,1.19-.86Zm-1.61.14,0,.11a3.11,3.11,0,0,0,0,.33,2,2,0,0,0,.61,1.46l.08.08.64-.88.23-.31.16-.25Zm.61,1.67a1.85,1.85,0,0,1-.47-1.23c0-.06,0-.12,0-.18l.82.26.39.13Zm-.61-1.67,0,.11a3.11,3.11,0,0,0,0,.33,2,2,0,0,0,.61,1.46l.08.08.64-.88.23-.31.16-.25Zm.61,1.67a1.85,1.85,0,0,1-.47-1.23c0-.06,0-.12,0-.18l.82.26.39.13Zm1.08-3.28a2.09,2.09,0,0,0-1.51,1.08l-.06.11,1,.33.37.13.28.09V243Zm-.08,1.47-1.19-.39a1.82,1.82,0,0,1,1.19-.86Zm.41.28a.3.3,0,0,0-.29.3.29.29,0,0,0,.29.29.3.3,0,1,0,0-.59Zm.41,1.21-.41-.55-1,1.44.1.06a2.06,2.06,0,0,0,.94.22,2.23,2.23,0,0,0,.94-.22l.1-.06Zm-1.15.82.74-1,.74,1A1.82,1.82,0,0,1,318.94,246.78Zm2.59-2.7A2.12,2.12,0,0,0,320,243l-.12,0v1.76l1.67-.55Zm-1.43.39v-1.25a1.84,1.84,0,0,1,1.19.86Zm1.63.26,0-.11-1.66.53,1,1.44.09-.08a2.12,2.12,0,0,0,.59-1.46A1.66,1.66,0,0,0,321.73,244.73Zm-.62,1.55-.74-1v0l1.19-.38a.91.91,0,0,1,0,.17A1.81,1.81,0,0,1,321.11,246.28Zm.62-1.55,0-.11-1.66.53,1,1.44.09-.08a2.12,2.12,0,0,0,.59-1.46A1.66,1.66,0,0,0,321.73,244.73Zm-.62,1.55-.74-1v0l1.19-.38a.91.91,0,0,1,0,.17A1.81,1.81,0,0,1,321.11,246.28Zm.42-2.2A2.12,2.12,0,0,0,320,243l-.12,0v1.76l1.67-.55Zm-1.43.39v-1.25a1.84,1.84,0,0,1,1.19.86Zm0,1.49-.41-.55-1,1.44.1.06a2.06,2.06,0,0,0,.94.22,2.23,2.23,0,0,0,.94-.22l.1-.06Zm-1.15.82.74-1,.74,1A1.82,1.82,0,0,1,318.94,246.78Zm.74-2a.3.3,0,0,0-.29.3.29.29,0,0,0,.29.29.3.3,0,1,0,0-.59Zm-.33-1.75a2.09,2.09,0,0,0-1.51,1.08l-.06.11,1,.33.37.13.28.09V243Zm-.08,1.47-1.19-.39a1.82,1.82,0,0,1,1.19-.86Zm-1.61.14,0,.11a3.11,3.11,0,0,0,0,.33,2,2,0,0,0,.61,1.46l.08.08.64-.88.23-.31.16-.25Zm.61,1.67a1.85,1.85,0,0,1-.47-1.23c0-.06,0-.12,0-.18l.82.26.39.13Zm-.61-1.67,0,.11a3.11,3.11,0,0,0,0,.33,2,2,0,0,0,.61,1.46l.08.08.64-.88.23-.31.16-.25Zm.61,1.67a1.85,1.85,0,0,1-.47-1.23c0-.06,0-.12,0-.18l.82.26.39.13Zm1.08-3.28a2.09,2.09,0,0,0-1.51,1.08l-.06.11,1,.33.37.13.28.09V243Zm-.08,1.47-1.19-.39a1.82,1.82,0,0,1,1.19-.86Zm.41.28a.3.3,0,0,0-.29.3.29.29,0,0,0,.29.29.3.3,0,1,0,0-.59Zm.41,1.21-.41-.55-1,1.44.1.06a2.06,2.06,0,0,0,.94.22,2.23,2.23,0,0,0,.94-.22l.1-.06Zm-1.15.82.74-1,.74,1A1.82,1.82,0,0,1,318.94,246.78Zm2.59-2.7A2.12,2.12,0,0,0,320,243l-.12,0v1.76l1.67-.55Zm-1.43.39v-1.25a1.84,1.84,0,0,1,1.19.86Zm1.63.26,0-.11-1.66.53,1,1.44.09-.08a2.12,2.12,0,0,0,.59-1.46A1.66,1.66,0,0,0,321.73,244.73Zm-.62,1.55-.74-1v0l1.19-.38a.91.91,0,0,1,0,.17A1.81,1.81,0,0,1,321.11,246.28Zm-1-.32-.41-.55-1,1.44.1.06a2.06,2.06,0,0,0,.94.22,2.23,2.23,0,0,0,.94-.22l.1-.06Zm-1.15.82.74-1,.74,1A1.82,1.82,0,0,1,318.94,246.78Zm2.79-2.05,0-.11-1.66.53,1,1.44.09-.08a2.12,2.12,0,0,0,.59-1.46A1.66,1.66,0,0,0,321.73,244.73Zm-.62,1.55-.74-1v0l1.19-.38a.91.91,0,0,1,0,.17A1.81,1.81,0,0,1,321.11,246.28Zm-3.45-1.67,0,.11a3.11,3.11,0,0,0,0,.33,2,2,0,0,0,.61,1.46l.08.08.64-.88.23-.31.16-.25Zm.61,1.67a1.85,1.85,0,0,1-.47-1.23c0-.06,0-.12,0-.18l.82.26.39.13Zm1.41-1.53a.3.3,0,0,0-.29.3.29.29,0,0,0,.29.29.3.3,0,1,0,0-.59Zm1.85-.67A2.12,2.12,0,0,0,320,243l-.12,0v1.76l1.67-.55Zm-1.43.39v-1.25a1.84,1.84,0,0,1,1.19.86Zm-.75-1.47a2.09,2.09,0,0,0-1.51,1.08l-.06.11,1,.33.37.13.28.09V243Zm-.08,1.47-1.19-.39a1.82,1.82,0,0,1,1.19-.86Z" transform="translate(-300.98 -223.42)"/><path class="cls-1" d="M318.29,246.59l-.08-.08a2.06,2.06,0,0,1-.61-1.46,1.69,1.69,0,0,1,0-.33l0-.12,1.68.55-.17.24-.24.32Zm-.48-1.72a1.09,1.09,0,0,0,0,.18,1.85,1.85,0,0,0,.47,1.23l.74-1-.38-.12Z" transform="translate(-300.98 -223.42)"/><path class="cls-1" d="M319.47,244.73l-.28-.08-.38-.13-1-.33.06-.11a2.09,2.09,0,0,1,1.51-1.08l.12,0Zm-1.4-.65,1.2.39v-1.25A1.86,1.86,0,0,0,318.07,244.08Z" transform="translate(-300.98 -223.42)"/><path class="cls-1" d="M319.68,247.13a2,2,0,0,1-.93-.23l-.11-.05,1-1.44.41.55.63.89-.1.05A2.1,2.1,0,0,1,319.68,247.13Zm-.74-.35a1.9,1.9,0,0,0,1.48,0l-.74-1Z" transform="translate(-300.98 -223.42)"/><path class="cls-1" d="M319.91,244.74V243l.11,0a2.09,2.09,0,0,1,1.51,1.09l.05.1Zm.2-1.52v1.25l1.18-.39A1.84,1.84,0,0,0,320.11,243.22Z" transform="translate(-300.98 -223.42)"/><path class="cls-1" d="M321.08,246.59l-1-1.44,1.66-.54,0,.12a1.66,1.66,0,0,1,0,.32,2.1,2.1,0,0,1-.59,1.46Zm-.72-1.33,0,0,.73,1a1.85,1.85,0,0,0,.45-1.23.91.91,0,0,0,0-.17Z" transform="translate(-300.98 -223.42)"/><path class="cls-1" d="M318.29,246.59l-.08-.08a2.06,2.06,0,0,1-.61-1.46,1.69,1.69,0,0,1,0-.33l0-.12,1.68.55-.17.24-.24.32Zm-.48-1.72a1.09,1.09,0,0,0,0,.18,1.85,1.85,0,0,0,.47,1.23l.74-1-.38-.12Z" transform="translate(-300.98 -223.42)"/><path class="cls-1" d="M319.47,244.73l-.28-.08-.38-.13-1-.33.06-.11a2.09,2.09,0,0,1,1.51-1.08l.12,0Zm-1.4-.65,1.2.39v-1.25A1.86,1.86,0,0,0,318.07,244.08Z" transform="translate(-300.98 -223.42)"/><path class="cls-1" d="M319.68,247.13a2,2,0,0,1-.93-.23l-.11-.05,1-1.44.41.55.63.89-.1.05A2.1,2.1,0,0,1,319.68,247.13Zm-.74-.35a1.9,1.9,0,0,0,1.48,0l-.74-1Z" transform="translate(-300.98 -223.42)"/><path class="cls-1" d="M319.91,244.74V243l.11,0a2.09,2.09,0,0,1,1.51,1.09l.05.1Zm.2-1.52v1.25l1.18-.39A1.84,1.84,0,0,0,320.11,243.22Z" transform="translate(-300.98 -223.42)"/><path class="cls-1" d="M321.08,246.59l-1-1.44,1.66-.54,0,.12a1.66,1.66,0,0,1,0,.32,2.1,2.1,0,0,1-.59,1.46Zm-.72-1.33,0,0,.73,1a1.85,1.85,0,0,0,.45-1.23.91.91,0,0,0,0-.17Z" transform="translate(-300.98 -223.42)"/><path class="cls-1" d="M342.86,247.84a2.8,2.8,0,1,1,2.8-2.79A2.79,2.79,0,0,1,342.86,247.84Zm0-5.39a2.6,2.6,0,1,0,2.6,2.6A2.6,2.6,0,0,0,342.86,242.45Zm0,4.68a2,2,0,0,1-.94-.23l-.1-.05,1-1.44.4.55.64.89-.11.05A2.06,2.06,0,0,1,342.86,247.13Zm-.74-.35a1.9,1.9,0,0,0,1.48,0l-.74-1Zm2.14-.19-1-1.44,1.67-.54,0,.12a1.66,1.66,0,0,1,0,.32,2.07,2.07,0,0,1-.6,1.46Zm-.72-1.33v0l.73,1a1.86,1.86,0,0,0,.46-1.23.91.91,0,0,0,0-.17Zm-2.07,1.33-.09-.08a2,2,0,0,1-.6-1.46,1.69,1.69,0,0,1,0-.33l0-.12,1.67.55-.16.24-.24.32Zm-.48-1.72a1.09,1.09,0,0,0,0,.18,1.84,1.84,0,0,0,.46,1.23l.75-1-.39-.12Zm1.87.47a.3.3,0,1,1,0-.59.31.31,0,0,1,.3.3A.3.3,0,0,1,342.86,245.34Zm.22-.6V243l.12,0a2.06,2.06,0,0,1,1.5,1.09l.06.1Zm.2-1.52v1.25l1.19-.39A1.89,1.89,0,0,0,343.28,243.22Zm-.64,1.51-.28-.08-.37-.13-1-.33.05-.11a2.11,2.11,0,0,1,1.52-1.08l.11,0Zm-1.39-.65,1.19.39v-1.25A1.84,1.84,0,0,0,341.25,244.08Z" transform="translate(-300.98 -223.42)"/><path class="cls-1" d="M341.47,246.59l-.09-.08a2,2,0,0,1-.6-1.46,1.69,1.69,0,0,1,0-.33l0-.12,1.67.55-.16.24-.24.32Zm-.48-1.72a1.09,1.09,0,0,0,0,.18,1.84,1.84,0,0,0,.46,1.23l.75-1-.39-.12Z" transform="translate(-300.98 -223.42)"/><path class="cls-1" d="M342.64,244.73l-.28-.08-.37-.13-1-.33.05-.11a2.11,2.11,0,0,1,1.52-1.08l.11,0Zm-1.39-.65,1.19.39v-1.25A1.84,1.84,0,0,0,341.25,244.08Z" transform="translate(-300.98 -223.42)"/><path class="cls-1" d="M342.86,247.13a2,2,0,0,1-.94-.23l-.1-.05,1-1.44.4.55.64.89-.11.05A2.06,2.06,0,0,1,342.86,247.13Zm-.74-.35a1.9,1.9,0,0,0,1.48,0l-.74-1Z" transform="translate(-300.98 -223.42)"/><path class="cls-1" d="M343.08,244.74V243l.12,0a2.06,2.06,0,0,1,1.5,1.09l.06.1Zm.2-1.52v1.25l1.19-.39A1.89,1.89,0,0,0,343.28,243.22Z" transform="translate(-300.98 -223.42)"/><path class="cls-1" d="M344.26,246.59l-1-1.44,1.67-.54,0,.12a1.66,1.66,0,0,1,0,.32,2.07,2.07,0,0,1-.6,1.46Zm-.72-1.33v0l.73,1a1.86,1.86,0,0,0,.46-1.23.91.91,0,0,0,0-.17Z" transform="translate(-300.98 -223.42)"/><path class="cls-1" d="M341.47,246.59l-.09-.08a2,2,0,0,1-.6-1.46,1.69,1.69,0,0,1,0-.33l0-.12,1.67.55-.16.24-.24.32Zm-.48-1.72a1.09,1.09,0,0,0,0,.18,1.84,1.84,0,0,0,.46,1.23l.75-1-.39-.12Z" transform="translate(-300.98 -223.42)"/><path class="cls-1" d="M342.64,244.73l-.28-.08-.37-.13-1-.33.05-.11a2.11,2.11,0,0,1,1.52-1.08l.11,0Zm-1.39-.65,1.19.39v-1.25A1.84,1.84,0,0,0,341.25,244.08Z" transform="translate(-300.98 -223.42)"/><path class="cls-1" d="M342.86,247.13a2,2,0,0,1-.94-.23l-.1-.05,1-1.44.4.55.64.89-.11.05A2.06,2.06,0,0,1,342.86,247.13Zm-.74-.35a1.9,1.9,0,0,0,1.48,0l-.74-1Z" transform="translate(-300.98 -223.42)"/><path class="cls-1" d="M343.08,244.74V243l.12,0a2.06,2.06,0,0,1,1.5,1.09l.06.1Zm.2-1.52v1.25l1.19-.39A1.89,1.89,0,0,0,343.28,243.22Z" transform="translate(-300.98 -223.42)"/><path class="cls-1" d="M344.26,246.59l-1-1.44,1.67-.54,0,.12a1.66,1.66,0,0,1,0,.32,2.07,2.07,0,0,1-.6,1.46Zm-.72-1.33v0l.73,1a1.86,1.86,0,0,0,.46-1.23.91.91,0,0,0,0-.17Z" transform="translate(-300.98 -223.42)"/><path class="cls-1" d="M310.35,229.1v7.66h7.91l1.74,5.92.57-5.92h2.6V229.1Zm1,2.7h7.09v.8H311.4Zm7.88,3.58H311.4v-.79h7.88ZM320,234H311.4v-.79H320Zm1-2.78h-9.6v-.8H321Z" transform="translate(-300.98 -223.42)"/><rect class="cls-1" x="37.06" y="7.1" width="2.08" height="3.57"/><rect class="cls-1" x="40.17" y="6.64" width="2.08" height="4.03"/><rect class="cls-1" x="43.29" y="7.68" width="2.08" height="2.99"/><rect class="cls-1" x="46.41" y="5.6" width="2.08" height="5.06"/><path class="cls-1" d="M345.31,230.46a.33.33,0,0,1-.17,0l-3-1.39-3,.72a.55.55,0,0,1-.22,0l-1-.34a.39.39,0,0,1-.25-.5.4.4,0,0,1,.5-.25l.93.3,3-.72a.39.39,0,0,1,.26,0l2.89,1.34,2.92-2.43a.39.39,0,0,1,.25-.1h1a.4.4,0,0,1,0,.8h-.89l-3,2.5A.38.38,0,0,1,345.31,230.46Z" transform="translate(-300.98 -223.42)"/></svg>