<svg id="Camada_1" data-name="Camada 1" xmlns="http://www.w3.org/2000/svg" viewBox="0 0 476.72 476.72"><defs><style>.cls-1{opacity:0.22;}.cls-2{fill:#e6e6e6;}</style></defs><title>Chamado-ICO</title><g class="cls-1"><path class="cls-2" d="M560,323.62A154.46,154.46,0,0,0,447.12,175.13C443,78.41,363,1,265.27,1c-100.37,0-182,81.66-182,182a181.49,181.49,0,0,0,25.24,92.52L83.91,364.38l88.84-24.56a181.29,181.29,0,0,0,84.62,25.05,154.15,154.15,0,0,0,226.9,91.43l75,20.75-20.75-75A153.59,153.59,0,0,0,560,323.62Zm-382.81-14L124,324.33l14.71-53.19-3.35-5.24A153.61,153.61,0,0,1,111.17,183c0-85,69.13-154.1,154.1-154.1S419.36,98.06,419.36,183,350.24,337.12,265.27,337.12A153.61,153.61,0,0,1,182.4,313ZM519.23,437l-39.46-10.92-5.27,3.43a126.21,126.21,0,0,1-188.25-65.66C369.89,354.2,436.44,287.65,446.08,204a126.21,126.21,0,0,1,65.66,188.25l-3.43,5.27Z" transform="translate(-83.24 -1)"/><path class="cls-2" d="M251,253H279v27.93H251Z" transform="translate(-83.24 -1)"/><path class="cls-2" d="M267.57,112.51a28.06,28.06,0,0,1,25.34,28.55A27.63,27.63,0,0,1,283.83,161L251,191v34.08H279V203.28l23.73-21.72a55.87,55.87,0,1,0-93.57-41.23h27.94A28,28,0,0,1,267.57,112.51Z" transform="translate(-83.24 -1)"/></g></svg>