<svg id="Camada_1" data-name="Camada 1" xmlns="http://www.w3.org/2000/svg" viewBox="0 0 422.19 472"><defs><style>.cls-1{opacity:0.22;}.cls-2{fill:#e6e6e6;}</style></defs><title>Cliente-ICO</title><g class="cls-1"><path class="cls-2" d="M238,441.38C251.71,457,240.88,475,225.85,475H183.44a73.75,73.75,0,0,1-73.75-73.75V76.75A73.75,73.75,0,0,1,183.44,3H465A18.94,18.94,0,0,1,484,21.94V193.41a4.85,4.85,0,0,1-1.38,3.4c-16,16.37-35.49,5.28-35.49-10.36V76.75a36.87,36.87,0,0,0-36.88-36.87H183.44a36.87,36.87,0,0,0-36.88,36.87V419.18a19,19,0,0,0,18.95,18.95h65.21A9.68,9.68,0,0,1,238,441.38ZM391.23,113.62H202.15a18.71,18.71,0,0,0-18.78,16.77,18.44,18.44,0,0,0,18.37,20.11h189.9A18.44,18.44,0,0,0,410,130.39,18.72,18.72,0,0,0,391.23,113.62Zm-73.65,73.75H202.15a18.71,18.71,0,0,0-18.78,16.77,18.44,18.44,0,0,0,18.37,20.11H318a18.44,18.44,0,0,0,18.36-20.11C335.52,194.57,327.19,187.37,317.58,187.37ZM201.74,261.13a18.44,18.44,0,0,0-18.37,20.1A18.71,18.71,0,0,0,202.15,298h75.79a18.71,18.71,0,0,0,18.78-16.77,18.44,18.44,0,0,0-18.36-20.1ZM523.4,461.28A36.91,36.91,0,0,1,494.68,475H315.22a37.76,37.76,0,0,1-26.77-10.79,37.31,37.31,0,0,1-10.23-34.14A129.24,129.24,0,0,1,350.69,339a71.91,71.91,0,1,1,107.93,0,128.44,128.44,0,0,1,28,17.59,129.91,129.91,0,0,1,44.05,71.8,14.36,14.36,0,0,1,.37,1.47A37.59,37.59,0,0,1,523.4,461.28Zm-153.78-170a35,35,0,1,0,35-35A35.08,35.08,0,0,0,369.62,291.26ZM495,437.6a0,0,0,0,1,0,0,92.23,92.23,0,0,0-180.65,0,.47.47,0,0,0,.2.55H494.68A1,1,0,0,0,495,437.6Z" transform="translate(-109.69 -3)"/></g></svg>