<svg id="Camada_1" data-name="Camada 1" xmlns="http://www.w3.org/2000/svg" viewBox="0 0 423.97 474"><defs><style>.cls-1{fill:#ffd200;}</style></defs><title>Cliente-ICO-Amarelo</title><path class="cls-1" d="M238.63,442.24c13.79,15.69,2.91,33.76-12.19,33.76H183.86a74.06,74.06,0,0,1-74.07-74.06V76.06A74.06,74.06,0,0,1,183.86,2H466.64a19,19,0,0,1,19,19v172.2a4.88,4.88,0,0,1-1.38,3.41c-16.1,16.44-35.65,5.31-35.65-10.4V76.06a37,37,0,0,0-37-37H183.86a37,37,0,0,0-37,37V419.94a19,19,0,0,0,19,19h65.49A9.72,9.72,0,0,1,238.63,442.24ZM392.52,113.09H202.65a18.79,18.79,0,0,0-18.86,16.84,18.52,18.52,0,0,0,18.44,20.2H392.94a18.52,18.52,0,0,0,18.44-20.2C410.54,120.31,402.18,113.09,392.52,113.09Zm-73.95,74.07H202.65A18.79,18.79,0,0,0,183.79,204a18.52,18.52,0,0,0,18.44,20.2H319A18.52,18.52,0,0,0,337.43,204,18.79,18.79,0,0,0,318.57,187.16ZM202.23,261.22a18.51,18.51,0,0,0-18.44,20.19,18.79,18.79,0,0,0,18.86,16.84h76.11a18.79,18.79,0,0,0,18.86-16.84,18.52,18.52,0,0,0-18.44-20.19Zm323,201A37.1,37.1,0,0,1,496.41,476H316.19a37.94,37.94,0,0,1-26.88-10.84A37.49,37.49,0,0,1,279,430.88a129.87,129.87,0,0,1,72.77-91.5,72.22,72.22,0,1,1,108.39,0,129,129,0,0,1,28.17,17.67,130.54,130.54,0,0,1,44.23,72.1,15.24,15.24,0,0,1,.37,1.48A37.74,37.74,0,0,1,525.26,462.23ZM370.83,291.48A35.18,35.18,0,1,0,406,256.3,35.22,35.22,0,0,0,370.83,291.48Zm125.89,147v0a92.62,92.62,0,0,0-181.42,0,.48.48,0,0,0,.2.55H496.41A.89.89,0,0,0,496.72,438.44Z" transform="translate(-109.79 -2)"/></svg>