<svg id="Camada_1" data-name="Camada 1" xmlns="http://www.w3.org/2000/svg" viewBox="0 0 474.46 472.23"><title>Editar-ICO</title><path d="M523.92,299.52a11.84,11.84,0,0,0-13.6,11.69v104.9a35.48,35.48,0,0,1-35.44,35.46H143.44A35.48,35.48,0,0,1,108,416.11V108.41a35.54,35.54,0,0,1,35.5-35.5H248.2a12.06,12.06,0,0,0,12.06-10,11.84,11.84,0,0,0-11.7-13.62H143.4a59.14,59.14,0,0,0-59.07,59.07V416.17a59.13,59.13,0,0,0,59.07,59.06H474.82A59.19,59.19,0,0,0,534,416.15V311.58A12.07,12.07,0,0,0,523.92,299.52Z" transform="translate(-84.33 -3)"/><path d="M529.37,18.58a53.18,53.18,0,0,0-75.21,0L243.33,229.41a11.77,11.77,0,0,0-3,5.2l-27.73,100.1a11.81,11.81,0,0,0,14.54,14.54l100.1-27.73a11.77,11.77,0,0,0,5.2-3L543.24,107.65a53.25,53.25,0,0,0,0-75.21ZM269.08,237.09,441.63,64.54l55.65,55.65L324.72,292.74ZM258,259.4l44.46,44.46-61.5,17ZM526.53,90.94,514,103.47,458.34,47.82l12.54-12.53a29.54,29.54,0,0,1,41.78,0l13.87,13.86A29.59,29.59,0,0,1,526.53,90.94Z" transform="translate(-84.33 -3)"/></svg>