<svg id="Camada_1" data-name="Camada 1" xmlns="http://www.w3.org/2000/svg" viewBox="0 0 65.44 67.75"><defs><style>.cls-1{fill:#fff;fill-rule:evenodd;}</style></defs><title>icone-whatsapp</title><path class="cls-1" d="M357.69,135.84A31.93,31.93,0,0,0,334.64,126c-18,0-32.58,15.06-32.59,33.57a34.31,34.31,0,0,0,4.35,16.78l-4.62,17.4,17.27-4.67a32,32,0,0,0,15.57,4.09h0c18,0,32.58-15.06,32.58-33.58a33.87,33.87,0,0,0-9.53-23.75M334.64,187.5h0a26.56,26.56,0,0,1-13.79-3.89l-1-.61-10.25,2.77,2.74-10.3-.65-1.05a28.49,28.49,0,0,1-4.14-14.85c0-15.38,12.16-27.9,27.1-27.9a26.53,26.53,0,0,1,19.15,8.18,28.21,28.21,0,0,1,7.92,19.74c0,15.39-12.15,27.91-27.08,27.91" transform="translate(-301.78 -126)"/><path class="cls-1" d="M349.49,166.6c-.81-.42-4.81-2.45-5.56-2.73s-1.29-.42-1.83.42-2.11,2.73-2.58,3.29-.95.63-1.76.21a22.17,22.17,0,0,1-6.55-4.16,25.17,25.17,0,0,1-4.53-5.82c-.48-.84-.05-1.29.36-1.71s.81-1,1.22-1.47a5.94,5.94,0,0,0,.81-1.4,1.57,1.57,0,0,0-.07-1.47c-.2-.42-1.83-4.55-2.51-6.23s-1.33-1.41-1.83-1.44-1,0-1.56,0a3,3,0,0,0-2.17,1.05,9.51,9.51,0,0,0-2.85,7c0,4.13,2.92,8.12,3.33,8.68s5.74,9,13.9,12.66a44,44,0,0,0,4.64,1.77,10.92,10.92,0,0,0,5.13.34c1.57-.24,4.82-2,5.5-4a7.11,7.11,0,0,0,.47-4c-.2-.35-.74-.56-1.56-1" transform="translate(-301.78 -126)"/></svg>