<svg id="Camada_1" data-name="Camada 1" xmlns="http://www.w3.org/2000/svg" viewBox="0 0 66.43 66.43"><defs><style>.cls-1{fill:#fff;}</style></defs><title>icone-orçamento</title><path class="cls-1" d="M333.78,126.77a33.22,33.22,0,0,0,0,66.43H367V160a33.21,33.21,0,0,0-33.22-33.21ZM353,179.2a27.18,27.18,0,1,1,0-38.43h0a27.16,27.16,0,0,1,0,38.44h0Z" transform="translate(-300.57 -126.77)"/><path class="cls-1" d="M336.36,155.72c-3.87-1.46-5.46-2.41-5.46-3.91,0-1.28,1-2.56,3.91-2.56a15.12,15.12,0,0,1,6.65,1.59l-.09,0,1.33-5.15a16.56,16.56,0,0,0-6.59-1.5h0v-4h-4.47v4.32c-4.88,1-7.7,4.1-7.7,8.11,0,4.42,3.32,6.7,8.2,8.34,3.37,1.14,4.83,2.23,4.83,4s-1.78,2.82-4.38,2.82a15.91,15.91,0,0,1-7.64-2l.08,0-1.36,5.32a18.18,18.18,0,0,0,7.71,2h0v4.32h4.47v-4.65c5.23-1,8.11-4.44,8.11-8.5s-2.22-6.6-7.61-8.52Z" transform="translate(-300.57 -126.77)"/></svg>