<svg id="Camada_1" data-name="Camada 1" xmlns="http://www.w3.org/2000/svg" viewBox="0 0 87.78 66.52"><defs><style>.cls-1{fill:#fff;}</style></defs><title>icone-checklist</title><path class="cls-1" d="M291.17,187.91a3.9,3.9,0,0,1-1.16-2.79,4,4,0,0,1,3.95-3.94,3.9,3.9,0,0,1,2.79,1.16l1.64,1.63,6.84-6.89a4,4,0,0,1,5.58,5.63l-9.66,9.66a4,4,0,0,1-5.58,0l-2.82-2.82Zm1.66-22.24,2.81,2.82a4,4,0,0,0,5.58,0l9.66-9.66a3.94,3.94,0,0,0-5.58-5.54h0l-6.92,6.8-1.63-1.63a3.95,3.95,0,0,0-5.58,5.58h0Zm28.52-1h13.8a3.76,3.76,0,0,0,0-7.51H321.32a3.76,3.76,0,1,0,0,7.51h0ZM292.83,141.8l2.81,2.81a3.94,3.94,0,0,0,5.58,0l9.66-9.66a3.95,3.95,0,0,0-5.58-5.58h0l-6.92,6.84-1.63-1.63a3.88,3.88,0,0,0-2.68-1.05,3.93,3.93,0,0,0-3.94,3.94,4,4,0,0,0,1,2.68h0Zm28.49-1.06h34.07a3.76,3.76,0,1,0,0-7.51H321.32a3.76,3.76,0,1,0,0,7.51Zm-3.75,44a3.76,3.76,0,0,1,3.75-3.76h17.1l5.11-17.6a9.28,9.28,0,0,1,2.39-4.06h0L377.79,127v41.83l-11,11.4a9.52,9.52,0,0,1-4,2.38l-.06,0-19.93,5.71a3.83,3.83,0,0,1-1.09.15,2.48,2.48,0,0,1-.39,0h-20a3.75,3.75,0,0,1-3.75-3.75h0Zm29.57-9.64L351,179l9.86-2.82a2.65,2.65,0,0,0,1.15-.67l1-1a60.69,60.69,0,0,1-11.28-11.25l-.11-.15-1.11,1.12a2.56,2.56,0,0,0-.75,1.65h0Z" transform="translate(-290.01 -127)"/></svg>