<svg id="Camada_1" data-name="Camada 1" xmlns="http://www.w3.org/2000/svg" viewBox="0 0 71.23 71.08"><defs><style>.cls-1{fill:#dedddd;}</style></defs><title>logout</title><path class="cls-1" d="M245.77,214.72a3.08,3.08,0,0,0-.64-1l-9-9a3,3,0,0,0-4.23,4.23l3.87,3.86H219.12a3,3,0,1,0,0,6h16.69l-3.87,3.87a3,3,0,0,0,4.23,4.22l9-9a3,3,0,0,0,.64-1A2.91,2.91,0,0,0,245.77,214.72Z" transform="translate(-174.77 -183.28)"/><path class="cls-1" d="M225.12,224.72a3,3,0,0,0-3,3V242.6H210.33V195.18a3,3,0,0,0-2.11-2.84L198,189.25h24.17v14.94a3,3,0,0,0,6,0V186.27a3,3,0,0,0-3-3H177.73a1.7,1.7,0,0,0-.31.06,1.87,1.87,0,0,0-.4.07,3.07,3.07,0,0,0-.85.36c-.07,0-.15,0-.21.1s0,0-.06.06a3.12,3.12,0,0,0-.79.94,2.41,2.41,0,0,0-.08.25,2.67,2.67,0,0,0-.23.69,1.13,1.13,0,0,0,0,.26,1,1,0,0,0,0,.17v59.23a2.94,2.94,0,0,0,2.38,2.9l29.64,5.93a2.78,2.78,0,0,0,.58.06,3,3,0,0,0,3-3v-3h14.79a3,3,0,0,0,3-3V227.69A3,3,0,0,0,225.12,224.72Z" transform="translate(-174.77 -183.28)"/></svg>