<svg id="Camada_1" data-name="Camada 1" xmlns="http://www.w3.org/2000/svg" viewBox="0 0 473.92 473.92"><title>Mais-ICO</title><path d="M321.84,475.92c-130.66,0-237-106.3-237-237S191.18,2,321.84,2s237,106.3,237,237S452.5,475.92,321.84,475.92Zm0-444.3c-114.33,0-207.34,93-207.34,207.34s93,207.34,207.34,207.34,207.34-93,207.34-207.34S436.17,31.62,321.84,31.62Z" transform="translate(-84.88 -2)"/><path d="M425.51,253.81H218.56a15.07,15.07,0,0,1-15.11-13.12,14.82,14.82,0,0,1,14.72-16.5h207a15.06,15.06,0,0,1,15.11,13.11A14.83,14.83,0,0,1,425.51,253.81Z" transform="translate(-84.88 -2)"/><path d="M307.18,342.24V135.68a15.06,15.06,0,0,1,13.11-15.11,14.83,14.83,0,0,1,16.51,14.72V342.63a14.83,14.83,0,0,1-16.51,14.72A15.06,15.06,0,0,1,307.18,342.24Z" transform="translate(-84.88 -2)"/></svg>