<svg id="Camada_1" data-name="Camada 1" xmlns="http://www.w3.org/2000/svg" viewBox="0 0 46.45 47.97"><defs><style>.cls-1{fill:#1d1e1c;}</style></defs><title>serviços</title><path class="cls-1" d="M351.22,250.13a9,9,0,0,0-9.66-3.59l-6.63-6.63-1.4,1.4,4.45,4.45a1.63,1.63,0,1,1-2.3,2.3l-4.45-4.46-1.4,1.41,6.06,6.06a9,9,0,0,0,8.63,13.09l-4.06-5.91a1.79,1.79,0,0,1,.46-2.48l4.48-3.07a1.79,1.79,0,0,1,2.48.45l4.05,5.91A9,9,0,0,0,351.22,250.13Zm-28.11-18.57a1.62,1.62,0,0,1,1.14.47l5,5,1.4-1.4-6.45-6.45a9,9,0,0,0-8.8-12.92l4.11,5.86a1.77,1.77,0,0,1-.44,2.48l-4.44,3.13a1.78,1.78,0,0,1-2.48-.44L308,221.4a9,9,0,0,0,10.62,12.39l6.91,6.91,1.4-1.4-5-5a1.62,1.62,0,0,1,1.15-2.77Z" transform="translate(-306.35 -216.21)"/><rect class="cls-1" x="324.38" y="240.87" width="1.93" height="8.64" rx="0.77" transform="translate(-384.43 85.66) rotate(-45)"/><path class="cls-1" d="M326,249.49l-11,11.95-1.35,1.47a4.16,4.16,0,0,1-1.43.95,4,4,0,0,1-1.22.3l-.41,0a4.23,4.23,0,0,1-3.05-1.26,4.3,4.3,0,0,1,0-6.11l1.46-1.35,11.95-11Z" transform="translate(-306.35 -216.21)"/><path class="cls-1" d="M348.49,224l-2.09,3.28-1.84.79L328,244.58,326,242.52,342.51,226l.79-1.84,3.28-2.08.17.17-2.41,2a1.38,1.38,0,0,0,.19,1.76c.43.43,1.36.68,1.79.25l2-2.48Z" transform="translate(-306.35 -216.21)"/></svg>