<svg id="Camada_1" data-name="Camada 1" xmlns="http://www.w3.org/2000/svg" viewBox="0 0 475.35 475.35"><defs><style>.cls-1{opacity:0.43;}.cls-2{fill:#ccc;}</style></defs><title>User-ICO</title><g class="cls-1"><path class="cls-2" d="M127.21,239.72A192.61,192.61,0,0,0,161.78,350a120.76,120.76,0,0,1,74.67-67.46,95.12,95.12,0,1,1,169.64,0A120.7,120.7,0,0,1,480.71,350a193.48,193.48,0,0,0-35-259.11,21.83,21.83,0,0,1,28-33.47h0c100.65,84.26,113.93,234.16,29.68,334.81S269.28,506.17,168.63,421.91,54.7,187.76,139,87.11A237.67,237.67,0,0,1,321.06,2a21.86,21.86,0,0,1,0,43.66C214,45.87,127.3,132.67,127.21,239.72Zm71.23,137.85-3.24,11a193,193,0,0,0,251.89,0l-3.29-11c-9.84-33-40.21-55.55-74.63-60.69H365c-9,5.48-17.3.21-20.92-8.08a22,22,0,0,1,7.22-26.14,51.46,51.46,0,1,0-71.9-11.25,52.15,52.15,0,0,0,11.29,11.25,21.85,21.85,0,0,1,4.7,30.55,21.21,21.21,0,0,1-2.19,2.55,22.61,22.61,0,0,1-16.05,6.35h-4.08A77.5,77.5,0,0,0,198.44,377.57Z" transform="translate(-83.52 -2)"/></g></svg>